SplineFontDB: 3.0
FontName: KacstNaskh
FullName: KacstNaskh
FamilyName: KacstNaskh
Weight: Medium
Copyright: KACST holds the copyright of the included Arabic font which is donated under GPL by KACST. \nURW Design and Development holds the copyright of the included Latin font which is donated under GPL by URW. 
Version: 1
ItalicAngle: 0
UnderlinePosition: -800
UnderlineWidth: 100
Ascent: 1638
Descent: 410
LayerCount: 2
Layer: 0 1 "Back" 
Layer: 1 1 "Fore" 
NeedsXUIDChange: 1
XUID: [1021 255 672703024 11649559]
FSType: 0
OS2Version: 2
OS2_WeightWidthSlopeOnly: 0
OS2_UseTypoMetrics: 1
CreationTime: 1163511077
ModificationTime: 1215812584
PfmFamily: 17
TTFWeight: 500
TTFWidth: 5
LineGap: 59
VLineGap: 0
Panose: 2 0 0 0 0 0 0 0 0 0
OS2TypoAscent: -38
OS2TypoAOffset: 1
OS2TypoDescent: -190
OS2TypoDOffset: 1
OS2TypoLinegap: 59
OS2WinAscent: -1
OS2WinAOffset: 1
OS2WinDescent: -25
OS2WinDOffset: 1
HheadAscent: -564
HheadAOffset: 1
HheadDescent: 425
HheadDOffset: 1
OS2SubXSize: 1434
OS2SubYSize: 1331
OS2SubXOff: 0
OS2SubYOff: 293
OS2SupXSize: 1434
OS2SupYSize: 1331
OS2SupXOff: 0
OS2SupYOff: 928
OS2StrikeYSize: 102
OS2StrikeYPos: 530
OS2Vendor: 'GLYF'
OS2CodePages: 00000040.00000000
OS2UnicodeRanges: 00002000.00000000.00000000.00000000
Lookup: 1 0 0 "'aalt' Access All Alternates in Latin lookup 0"  {"'aalt' Access All Alternates in Latin lookup 0 subtable"  } ['aalt' ('latn' <'dflt' > ) ]
Lookup: 3 0 0 "'aalt' Access All Alternates in Latin lookup 1"  {"'aalt' Access All Alternates in Latin lookup 1 subtable"  } ['aalt' ('latn' <'dflt' > ) ]
Lookup: 1 1 0 "'isol' Isolated Forms in Arabic lookup 2"  {"'isol' Isolated Forms in Arabic lookup 2 subtable"  } ['isol' ('arab' <'dflt' > ) ]
Lookup: 1 1 0 "'init' Initial Forms in Arabic lookup 3"  {"'init' Initial Forms in Arabic lookup 3 subtable"  } ['init' ('arab' <'dflt' > ) ]
Lookup: 1 1 0 "'medi' Medial Forms in Arabic lookup 4"  {"'medi' Medial Forms in Arabic lookup 4 subtable"  } ['medi' ('arab' <'dflt' > ) ]

StartChar: arabiccomma
Encoding: 1548 1548 1
Width: 403
Flags: W
LayerCount: 2
Fore
SplineSet
277 379 m 1,0,1
 239 351 239 351 207 314 c 128,-1,2
 175 277 175 277 158.5 241 c 128,-1,3
 142 205 142 205 144 174.5 c 128,-1,4
 146 144 146 144 175 130 c 1,5,-1
 177 131 l 1,6,7
 185 138 185 138 192.5 142.5 c 128,-1,8
 200 147 200 147 207 151 c 1,9,-1
 209 153 l 1,10,11
 213 155 213 155 214 156 c 1,12,13
 219 158 219 158 222.5 159.5 c 128,-1,14
 226 161 226 161 229 163 c 1,15,-1
 234 164 l 1,16,-1
 235 164 l 1,17,18
 237 165 237 165 247 165 c 0,19,20
 254 165 254 165 260 164 c 128,-1,21
 266 163 266 163 271 161 c 0,22,23
 274 160 274 160 278 158 c 1,24,25
 279 157 279 157 280 157 c 1,26,27
 283 155 283 155 285.5 153 c 128,-1,28
 288 151 288 151 291 149 c 0,29,30
 295 145 295 145 296 143 c 2,31,32
 297 142 297 142 297.5 141 c 128,-1,33
 298 140 298 140 299 139 c 256,34,35
 300 138 300 138 302 134 c 0,36,37
 305 130 305 130 309 120 c 1,38,-1
 317 82 l 1,39,-1
 317 79 l 2,40,41
 317 74 317 74 316.5 70.5 c 128,-1,42
 316 67 316 67 315 63 c 2,43,44
 315 59 315 59 313 51 c 1,45,46
 312 49 312 49 312 48 c 1,47,-1
 311 46 l 1,48,49
 311 44 311 44 310 43 c 1,50,51
 310 41 310 41 308 37 c 0,52,53
 307 35 307 35 306.5 33.5 c 128,-1,54
 306 32 306 32 305 30 c 0,55,56
 303 26 303 26 299 20 c 0,57,58
 296 14 296 14 291 9 c 0,59,60
 285 3 l 128,-1,61
 282 0 282 0 279 -2 c 0,62,63
 277 -3 277 -3 276.5 -3.5 c 128,-1,64
 276 -4 276 -4 274 -5 c 1,65,66
 272 -7 272 -7 269.5 -8.5 c 128,-1,67
 267 -10 267 -10 264 -11 c 1,68,69
 263 -12 263 -12 263 -22 c 256,70,71
 263 -32 263 -32 262 -32 c 1,72,-1
 262 -12 l 1,73,74
 260 -14 260 -14 257 -14.5 c 128,-1,75
 254 -15 254 -15 252 -16 c 1,76,77
 251 -17 251 -17 249 -17 c 1,78,-1
 244 -19 l 1,79,-1
 241 -19 l 1,80,81
 239 -20 239 -20 236 -20 c 0,82,83
 231 -21 231 -21 221 -21 c 2,84,-1
 208 -21 l 1,85,-1
 199 -19 l 2,86,87
 188 -17 188 -17 179 -13 c 2,88,-1
 173 -10 l 1,89,90
 172 -9 172 -9 168 -7 c 2,91,92
 167 -6 167 -6 163 -4 c 2,93,94
 162 -3 162 -3 161 -2.5 c 128,-1,95
 160 -2 160 -2 158 0 c 0,96,97
 140 15 140 15 128 39 c 2,98,-1
 124 50 l 1,99,-1
 124 49 l 1,100,-1
 122 52 l 1,101,102
 120 60 120 60 119 63 c 2,103,-1
 112 88 l 1,104,-1
 111 98 l 1,105,106
 110 100 110 100 110 106 c 0,107,108
 110 107 110 107 109.5 107.5 c 128,-1,109
 109 108 109 108 109 110 c 2,110,-1
 109 143 l 2,111,112
 109 148 109 148 110 151 c 1,113,-1
 110 156 l 1,114,115
 116 193 116 193 132 230 c 128,-1,116
 148 267 148 267 170 300 c 128,-1,117
 192 333 192 333 219.5 360 c 128,-1,118
 247 387 247 387 276 405 c 1,119,-1
 277 379 l 1,0,1
EndSplineSet
EndChar

StartChar: arabicsemicolon
Encoding: 1563 1563 2
Width: 852
Flags: W
LayerCount: 2
Fore
SplineSet
580 371 m 0,0,1
 580 350 580 350 572.5 330.5 c 128,-1,2
 565 311 565 311 550.5 296.5 c 128,-1,3
 536 282 536 282 515 273 c 128,-1,4
 494 264 494 264 467 264 c 0,5,6
 405 264 405 264 349 335 c 256,7,8
 293 406 293 406 293 500 c 0,9,10
 293 597 293 597 346 668 c 0,11,12
 384 721 384 721 438 749 c 1,13,-1
 469 758 l 1,14,15
 429 732 429 732 398 674 c 0,16,17
 373 618 373 618 373 561 c 0,18,19
 373 506 373 506 406 451 c 1,20,-1
 438 471 l 1,21,22
 448 475 448 475 457.5 477.5 c 128,-1,23
 467 480 467 480 475 481 c 0,24,25
 497 481 497 481 516.5 472 c 128,-1,26
 536 463 536 463 550 448 c 128,-1,27
 564 433 564 433 572 413 c 128,-1,28
 580 393 580 393 580 371 c 0,0,1
539 74 m 0,29,30
 539 56 539 56 532 40.5 c 128,-1,31
 525 25 525 25 513.5 13.5 c 128,-1,32
 502 2 502 2 486.5 -5 c 128,-1,33
 471 -12 471 -12 453 -12 c 0,34,35
 421 -12 421 -12 396 15 c 0,36,37
 371 40 371 40 371 74 c 0,38,39
 371 106 371 106 396 131 c 0,40,41
 421 158 421 158 453 158 c 0,42,43
 486 158 486 158 512 132 c 0,44,45
 539 108 539 108 539 74 c 0,29,30
EndSplineSet
EndChar

StartChar: arabicquestionmark
Encoding: 1567 1567 3
Width: 757
Flags: W
LayerCount: 2
Fore
SplineSet
404 263 m 1,0,1
 398 364 398 364 371 421 c 0,2,3
 343 479 343 479 223 616 c 0,4,5
 145 705 145 705 119 767 c 0,6,7
 92 831 92 831 92 892 c 0,8,9
 92 982 92 982 152 1056 c 0,10,11
 233 1156 233 1156 406 1156 c 0,12,13
 546 1156 546 1156 626 1083 c 0,14,15
 707 1009 707 1009 707 916 c 0,16,17
 707 885 707 885 699 860.5 c 128,-1,18
 691 836 691 836 678 819.5 c 128,-1,19
 665 803 665 803 648.5 794 c 128,-1,20
 632 785 632 785 614 785 c 0,21,22
 587 785 587 785 567.5 805.5 c 128,-1,23
 548 826 548 826 548 856 c 0,24,25
 548 880 548 880 573 924 c 256,26,27
 598 968 598 968 598 1000 c 0,28,29
 598 1040 598 1040 556 1075 c 0,30,31
 516 1109 516 1109 442 1109 c 0,32,33
 360 1109 360 1109 303 1046 c 0,34,35
 247 984 247 984 247 877 c 0,36,37
 247 826 247 826 262 775 c 0,38,39
 270 749 270 749 286 713.5 c 128,-1,40
 302 678 302 678 327 630 c 0,41,42
 359 568 359 568 380.5 520.5 c 128,-1,43
 402 473 402 473 412 438 c 0,44,45
 434 367 434 367 438 263 c 1,46,-1
 404 263 l 1,0,1
416 160 m 0,47,48
 435 160 435 160 452 152.5 c 128,-1,49
 469 145 469 145 481.5 132.5 c 128,-1,50
 494 120 494 120 501.5 102.5 c 128,-1,51
 509 85 509 85 509 66 c 0,52,53
 509 46 509 46 501.5 29.5 c 128,-1,54
 494 13 494 13 481.5 0 c 128,-1,55
 469 -13 469 -13 452 -20 c 128,-1,56
 435 -27 435 -27 416 -27 c 0,57,58
 377 -27 377 -27 349.5 0 c 128,-1,59
 322 27 322 27 322 66 c 256,60,61
 322 105 322 105 349 132.5 c 128,-1,62
 376 160 376 160 416 160 c 0,47,48
EndSplineSet
EndChar

StartChar: hamza
Encoding: 1569 1569 4
Width: 767
Flags: W
AnchorPoint: "ArabicBelow" 383 -385 basechar 0
AnchorPoint: "ArabicAbove" 383 746 basechar 0
LayerCount: 2
Fore
SplineSet
574 40 m 1,0,1
 541 40 541 40 510.5 36.5 c 128,-1,2
 480 33 480 33 454 25 c 2,3,-1
 337 -4 l 2,4,5
 327 -6 327 -6 282.5 -32 c 128,-1,6
 238 -58 238 -58 157 -109 c 2,7,-1
 117 -127 l 1,8,-1
 104 -135 l 1,9,10
 104 -126 104 -126 148 -70 c 0,11,12
 169 -47 169 -47 197 -24.5 c 128,-1,13
 225 -2 225 -2 262 17 c 2,14,-1
 286 29 l 1,15,-1
 281 53 l 1,16,17
 170 67 170 67 158 72 c 1,18,-1
 157 73 l 1,19,20
 83 93 83 93 83 136 c 0,21,22
 83 249 83 249 173 362 c 0,23,24
 280 496 280 496 443 496 c 0,25,26
 478 496 478 496 513 469 c 0,27,28
 549 434 549 434 549 402 c 1,29,-1
 473 295 l 1,30,-1
 441 319 l 2,31,32
 412 338 412 338 380.5 348.5 c 128,-1,33
 349 359 349 359 333 359 c 0,34,35
 309 359 309 359 294 354.5 c 128,-1,36
 279 350 279 350 252 335 c 0,37,38
 196 309 196 309 196 267 c 0,39,40
 196 220 196 220 336 194 c 2,41,-1
 487 178 l 1,42,-1
 582 173 l 1,43,-1
 662 173 l 1,44,-1
 574 40 l 1,0,1
EndSplineSet
Substitution2: "'isol' Isolated Forms in Arabic lookup 2 subtable" hamzaisolated
Substitution2: "'aalt' Access All Alternates in Latin lookup 0 subtable" hamzaisolated
EndChar

StartChar: alefwithmaddaabove
Encoding: 1570 1570 5
Width: 330
Flags: W
AnchorPoint: "ArabicBelow" 165 -283 basechar 0
AnchorPoint: "ArabicAbove" 165 1281 basechar 0
LayerCount: 2
Fore
SplineSet
400 1028 m 1,0,-1
 409 1031 l 1,1,-1
 373 989 l 1,2,3
 290 929 290 929 241 929 c 0,4,5
 190 929 190 929 154 939 c 2,6,-1
 129 949 l 1,7,-1
 92 971 l 1,8,-1
 75 966 l 1,9,10
 70 956 70 956 64 945 c 128,-1,11
 58 934 58 934 48 920 c 1,12,-1
 48 919 l 1,13,14
 33 899 33 899 30 896 c 1,15,-1
 74 989 l 1,16,-1
 95 1026 l 1,17,18
 103 1021 103 1021 117.5 1014.5 c 128,-1,19
 132 1008 132 1008 149 1000 c 2,20,-1
 201 982 l 2,21,22
 225 976 225 976 248 976 c 0,23,24
 296 976 296 976 400 1028 c 1,0,-1
253 297 m 2,25,26
 253 170 253 170 218 67 c 0,27,28
 207 34 207 34 195.5 9 c 128,-1,29
 184 -16 184 -16 171 -33 c 1,30,-1
 99 670 l 2,31,32
 99 681 99 681 118 715 c 128,-1,33
 137 749 137 749 172 810 c 2,34,-1
 213 882 l 1,35,36
 215 870 215 870 217 854.5 c 128,-1,37
 219 839 219 839 222 816 c 128,-1,38
 225 793 225 793 228.5 760.5 c 128,-1,39
 232 728 232 728 237 681 c 2,40,-1
 253 515 l 1,41,-1
 253 297 l 2,25,26
EndSplineSet
Substitution2: "'fina' Terminal Forms in Arabic lookup 5 subtable" alefwithmaddaabovefinal
Substitution2: "'isol' Isolated Forms in Arabic lookup 2 subtable" alefwithmaddaaboveisolated
AlternateSubs2: "'aalt' Access All Alternates in Latin lookup 1 subtable" alefwithmaddaaboveisolated alefwithmaddaabovefinal
EndChar

StartChar: alefwithhamzaabove
Encoding: 1571 1571 6
Width: 329
Flags: W
AnchorPoint: "ArabicBelow" 164 -283 basechar 0
AnchorPoint: "ArabicAbove" 164 1364 basechar 0
LayerCount: 2
Fore
SplineSet
266 929 m 1,0,-1
 216 924 l 2,1,2
 178 920 178 920 116 881 c 2,3,-1
 63 846 l 1,4,5
 62 848 62 848 62 852 c 0,6,7
 62 871 62 871 94 897 c 2,8,-1
 133 929 l 1,9,-1
 100 932 l 1,10,-1
 84 935 l 1,11,-1
 66 941 l 2,12,13
 37 949 37 949 37 964 c 0,14,15
 37 1005 37 1005 78 1056 c 0,16,17
 124 1114 124 1114 185 1114 c 0,18,19
 201 1114 201 1114 211 1104.5 c 128,-1,20
 221 1095 221 1095 225 1080 c 1,21,-1
 220 1066 l 2,22,23
 217 1057 217 1057 214 1054 c 1,24,25
 209 1043 209 1043 202 1035 c 1,26,27
 187 1065 187 1065 150 1065 c 0,28,29
 123 1065 123 1065 104 1055.5 c 128,-1,30
 85 1046 85 1046 76 1026 c 1,31,-1
 75 1018 l 2,32,33
 75 1002 75 1002 106 995 c 2,34,-1
 151 985 l 1,35,-1
 295 985 l 1,36,-1
 266 929 l 1,0,-1
257 297 m 0,37,38
 257 231 257 231 248.5 174.5 c 128,-1,39
 240 118 240 118 223 67 c 0,40,41
 202 5 202 5 173 -33 c 1,42,-1
 85 685 l 2,43,44
 85 691 85 691 97.5 716.5 c 128,-1,45
 110 742 110 742 138 787 c 2,46,-1
 206 896 l 1,47,-1
 226 734 l 2,48,49
 234 658 234 658 239.5 597 c 128,-1,50
 245 536 245 536 249 488 c 0,51,52
 253 441 253 441 255 393.5 c 128,-1,53
 257 346 257 346 257 297 c 0,37,38
EndSplineSet
Substitution2: "'fina' Terminal Forms in Arabic lookup 5 subtable" alefwithhamzaabovefinal
Substitution2: "'isol' Isolated Forms in Arabic lookup 2 subtable" alefwithhamzaaboveisolated
AlternateSubs2: "'aalt' Access All Alternates in Latin lookup 1 subtable" alefwithhamzaaboveisolated alefwithhamzaabovefinal
EndChar

StartChar: wawwithhamzaabove
Encoding: 1572 1572 7
Width: 842
Flags: W
AnchorPoint: "ArabicBelow" 421 -678 basechar 0
AnchorPoint: "ArabicAbove" 421 1163 basechar 0
LayerCount: 2
Fore
SplineSet
673 256 m 1,0,1
 673 309 673 309 635 347 c 0,2,3
 595 385 595 385 553 385 c 0,4,5
 514 385 514 385 471 357 c 0,6,7
 451 343 451 343 439 325.5 c 128,-1,8
 427 308 427 308 423 298 c 0,9,10
 421 290 421 290 421 285 c 2,11,-1
 422 275 l 1,12,13
 425 264 425 264 457 238 c 1,14,15
 480 225 480 225 497.5 218.5 c 128,-1,16
 515 212 515 212 527.5 210 c 128,-1,17
 540 208 540 208 548 207.5 c 128,-1,18
 556 207 556 207 559 206 c 1,19,-1
 562 206 l 2,20,21
 569 206 569 206 581 206.5 c 128,-1,22
 593 207 593 207 609 212 c 0,23,24
 625 219 625 219 636.5 222.5 c 128,-1,25
 648 226 648 226 655.5 230 c 128,-1,26
 663 234 663 234 667 239.5 c 128,-1,27
 671 245 671 245 673 256 c 1,0,1
818 217 m 0,28,29
 818 114 818 114 795 9 c 128,-1,30
 772 -96 772 -96 724 -197 c 0,31,32
 616 -428 616 -428 468 -428 c 0,33,34
 438 -428 438 -428 407 -425 c 128,-1,35
 376 -422 376 -422 344 -417 c 0,36,37
 314 -412 314 -412 276.5 -402.5 c 128,-1,38
 239 -393 239 -393 191 -379 c 0,39,40
 11 -336 11 -336 11 -309 c 1,41,-1
 27 -309 l 1,42,-1
 54 -312 l 1,43,-1
 206 -342 l 1,44,-1
 256 -346 l 2,45,46
 284 -346 284 -346 309 -341 c 128,-1,47
 334 -336 334 -336 357 -325 c 0,48,49
 429 -295 429 -295 497.5 -244.5 c 128,-1,50
 566 -194 566 -194 626 -128 c 256,51,52
 686 -62 686 -62 720 1.5 c 128,-1,53
 754 65 754 65 754 119 c 0,54,55
 754 143 754 143 747 177 c 1,56,57
 745 182 745 182 741.5 192 c 128,-1,58
 738 202 738 202 733 216 c 1,59,-1
 711 216 l 1,60,-1
 702 188 l 2,61,62
 682 146 682 146 668 120.5 c 128,-1,63
 654 95 654 95 646 81 c 0,64,65
 607 27 607 27 502 27 c 0,66,67
 437 27 437 27 396 83 c 0,68,69
 391 91 391 91 386.5 102.5 c 128,-1,70
 382 114 382 114 380 122 c 0,71,72
 378 131 378 131 374.5 163 c 128,-1,73
 371 195 371 195 371 237 c 0,74,75
 371 299 371 299 468 440 c 0,76,77
 516 509 516 509 556 544 c 128,-1,78
 596 579 596 579 631 579 c 0,79,80
 680 579 680 579 748 459 c 0,81,82
 781 399 781 399 799.5 339.5 c 128,-1,83
 818 280 818 280 818 217 c 0,28,29
604 711 m 1,84,-1
 550 705 l 2,85,86
 507 701 507 701 440 658 c 2,87,-1
 382 620 l 1,88,89
 381 622 381 622 381 626 c 0,90,91
 381 644 381 644 416 676 c 2,92,-1
 459 711 l 1,93,-1
 423 714 l 1,94,-1
 405 717 l 1,95,-1
 386 724 l 2,96,97
 354 732 354 732 354 749 c 0,98,99
 354 791 354 791 398 850 c 0,100,101
 450 913 450 913 516 913 c 0,102,103
 533 913 533 913 544 902.5 c 128,-1,104
 555 892 555 892 559 876 c 1,105,-1
 554 861 l 2,106,107
 551 851 551 851 547 847 c 1,108,109
 541 834 541 834 534 827 c 1,110,111
 517 859 517 859 477 859 c 0,112,113
 416 859 416 859 397 817 c 1,114,-1
 395 808 l 1,115,116
 395 790 395 790 429 783 c 2,117,-1
 479 772 l 1,118,-1
 636 772 l 1,119,-1
 604 711 l 1,84,-1
EndSplineSet
Substitution2: "'fina' Terminal Forms in Arabic lookup 5 subtable" wawwithhamzaabovefinal
Substitution2: "'isol' Isolated Forms in Arabic lookup 2 subtable" wawwithhamzaaboveisolated
AlternateSubs2: "'aalt' Access All Alternates in Latin lookup 1 subtable" wawwithhamzaaboveisolated wawwithhamzaabovefinal
EndChar

StartChar: alefwithhamzabelow
Encoding: 1573 1573 8
Width: 434
Flags: W
AnchorPoint: "ArabicBelow" 217 -633 basechar 0
AnchorPoint: "ArabicAbove" 217 1224 basechar 0
LayerCount: 2
Fore
SplineSet
302 313 m 1,0,1
 302 190 302 190 266 84 c 0,2,3
 244 18 244 18 219 -15 c 1,4,-1
 130 762 l 1,5,-1
 246 974 l 1,6,-1
 302 484 l 1,7,-1
 302 313 l 1,8,-1
 302 313 l 1,0,1
297 -292 m 1,9,-1
 243 -298 l 2,10,11
 200 -302 200 -302 133 -345 c 2,12,-1
 75 -383 l 1,13,14
 74 -381 74 -381 74 -377 c 0,15,16
 74 -359 74 -359 109 -327 c 2,17,-1
 152 -292 l 1,18,-1
 116 -289 l 1,19,-1
 98 -286 l 1,20,-1
 79 -279 l 2,21,22
 47 -271 47 -271 47 -254 c 0,23,24
 47 -212 47 -212 91 -153 c 0,25,26
 143 -90 143 -90 209 -90 c 0,27,28
 226 -90 226 -90 237 -100.5 c 128,-1,29
 248 -111 248 -111 252 -127 c 1,30,-1
 247 -142 l 2,31,32
 244 -152 244 -152 240 -156 c 1,33,34
 234 -169 234 -169 227 -176 c 1,35,36
 210 -144 210 -144 170 -144 c 0,37,38
 109 -144 109 -144 90 -186 c 1,39,-1
 88 -195 l 1,40,41
 88 -213 88 -213 122 -220 c 2,42,-1
 172 -231 l 1,43,-1
 329 -231 l 1,44,-1
 297 -292 l 1,9,-1
EndSplineSet
Substitution2: "'fina' Terminal Forms in Arabic lookup 5 subtable" alefwithhamzabelowfinal
Substitution2: "'isol' Isolated Forms in Arabic lookup 2 subtable" alefwithhamzabelowisolated
AlternateSubs2: "'aalt' Access All Alternates in Latin lookup 1 subtable" alefwithhamzabelowisolated alefwithhamzabelowfinal
EndChar

StartChar: yehwithhamzaabove
Encoding: 1574 1574 9
Width: 1085
Flags: W
AnchorPoint: "ArabicBelow" 542 -705 basechar 0
AnchorPoint: "ArabicAbove" 542 1002 basechar 0
LayerCount: 2
Fore
SplineSet
1117 588 m 2,0,1
 1117 528 1117 528 1101.5 494.5 c 128,-1,2
 1086 461 1086 461 1069 461 c 0,3,4
 1066 461 1066 461 1060.5 467.5 c 128,-1,5
 1055 474 1055 474 1047 482 c 128,-1,6
 1039 490 1039 490 1029.5 498 c 128,-1,7
 1020 506 1020 506 1011 509 c 1,8,-1
 961 516 l 2,9,10
 949 516 949 516 924 499.5 c 128,-1,11
 899 483 899 483 867.5 456 c 128,-1,12
 836 429 836 429 803 395.5 c 128,-1,13
 770 362 770 362 743 327.5 c 128,-1,14
 716 293 716 293 698.5 261.5 c 128,-1,15
 681 230 681 230 681 207 c 0,16,17
 681 183 681 183 697 170 c 1,18,-1
 736 167 l 1,19,-1
 928 137 l 1,20,-1
 984 124 l 1,21,-1
 1007 114 l 2,22,23
 1055 87 1055 87 1055 24 c 2,24,-1
 1055 12 l 2,25,26
 1055 -2 1055 -2 1053 -20 c 128,-1,27
 1051 -38 1051 -38 1041 -54 c 0,28,29
 979 -180 979 -180 944 -214.5 c 128,-1,30
 909 -249 909 -249 863 -282.5 c 128,-1,31
 817 -316 817 -316 761.5 -347.5 c 128,-1,32
 706 -379 706 -379 643.5 -402.5 c 128,-1,33
 581 -426 581 -426 513 -440.5 c 128,-1,34
 445 -455 445 -455 375 -455 c 0,35,36
 330 -455 330 -455 285.5 -446.5 c 128,-1,37
 241 -438 241 -438 202 -422 c 128,-1,38
 163 -406 163 -406 130 -382.5 c 128,-1,39
 97 -359 97 -359 74 -329 c 0,40,41
 -21 -204 -21 -204 -21 -53 c 0,42,43
 -21 -1 -21 -1 30 157 c 0,44,45
 81 316 81 316 108 328 c 1,46,-1
 112 328 l 2,47,48
 120 328 120 328 120 314 c 128,-1,49
 120 300 120 300 108 276 c 0,50,51
 82 237 82 237 72.5 174 c 128,-1,52
 63 111 63 111 63 39 c 0,53,54
 63 -19 63 -19 83.5 -74.5 c 128,-1,55
 104 -130 104 -130 148.5 -173 c 128,-1,56
 193 -216 193 -216 263 -242.5 c 128,-1,57
 333 -269 333 -269 432 -269 c 0,58,59
 481 -269 481 -269 524.5 -262 c 128,-1,60
 568 -255 568 -255 609 -242.5 c 128,-1,61
 650 -230 650 -230 691 -212 c 128,-1,62
 732 -194 732 -194 776 -173 c 0,63,64
 817 -153 817 -153 850 -132.5 c 128,-1,65
 883 -112 883 -112 906.5 -93 c 128,-1,66
 930 -74 930 -74 943 -58.5 c 128,-1,67
 956 -43 956 -43 956 -33 c 0,68,69
 956 -30 956 -30 955 -29 c 2,70,71
 955 -17 955 -17 932 -14 c 0,72,73
 841 -8 841 -8 829.5 -7 c 128,-1,74
 818 -6 818 -6 795 0 c 2,75,-1
 758 6 l 2,76,77
 715 14 715 14 687.5 22 c 128,-1,78
 660 30 660 30 643 40 c 128,-1,79
 626 50 626 50 617 62.5 c 128,-1,80
 608 75 608 75 602 92 c 1,81,-1
 600 133 l 2,82,83
 600 185 600 185 617.5 246.5 c 128,-1,84
 635 308 635 308 665.5 370.5 c 128,-1,85
 696 433 696 433 737 493 c 128,-1,86
 778 553 778 553 825.5 601.5 c 128,-1,87
 873 650 873 650 924.5 684 c 128,-1,88
 976 718 976 718 1028 729 c 1,89,90
 1073 708 1073 708 1095 680 c 128,-1,91
 1117 652 1117 652 1117 614 c 2,92,-1
 1117 588 l 2,0,1
278 550 m 1,93,-1
 224 544 l 2,94,95
 181 540 181 540 114 497 c 2,96,-1
 56 459 l 1,97,98
 55 461 55 461 55 465 c 0,99,100
 55 483 55 483 90 515 c 2,101,-1
 133 550 l 1,102,-1
 97 553 l 1,103,-1
 79 556 l 1,104,-1
 60 563 l 2,105,106
 28 571 28 571 28 588 c 0,107,108
 28 630 28 630 72 689 c 0,109,110
 124 752 124 752 190 752 c 0,111,112
 207 752 207 752 218 741.5 c 128,-1,113
 229 731 229 731 233 715 c 1,114,-1
 228 700 l 2,115,116
 225 690 225 690 221 686 c 1,117,118
 215 673 215 673 208 666 c 1,119,120
 191 698 191 698 151 698 c 0,121,122
 90 698 90 698 71 656 c 1,123,-1
 69 647 l 1,124,125
 69 629 69 629 103 622 c 2,126,-1
 153 611 l 1,127,-1
 310 611 l 1,128,-1
 278 550 l 1,93,-1
EndSplineSet
Substitution2: "'fina' Terminal Forms in Arabic lookup 5 subtable" yehwithhamzaabovefinal
Substitution2: "'medi' Medial Forms in Arabic lookup 4 subtable" yehwithhamzaabovemedial
Substitution2: "'init' Initial Forms in Arabic lookup 3 subtable" yehwithhamzaaboveinitial
Substitution2: "'isol' Isolated Forms in Arabic lookup 2 subtable" yehwithhamzaaboveisolated
AlternateSubs2: "'aalt' Access All Alternates in Latin lookup 1 subtable" yehwithhamzaaboveisolated yehwithhamzaaboveinitial yehwithhamzaabovemedial yehwithhamzaabovefinal
EndChar

StartChar: arabicalef
Encoding: 1575 1575 10
Width: 424
Flags: W
AnchorPoint: "ArabicBelow" 212 -293 basechar 0
AnchorPoint: "ArabicAbove" 212 1142 basechar 0
LayerCount: 2
Fore
SplineSet
300 285 m 0,0,1
 300 156 300 156 265 55 c 0,2,3
 249 4 249 4 213 -43 c 1,4,-1
 124 686 l 2,5,6
 124 691 124 691 178 779 c 0,7,8
 195 806 195 806 213.5 835.5 c 128,-1,9
 232 865 232 865 249 892 c 1,10,-1
 269 732 l 2,11,12
 277 654 277 654 282.5 591.5 c 128,-1,13
 288 529 288 529 292 479 c 0,14,15
 296 430 296 430 298 383 c 128,-1,16
 300 336 300 336 300 285 c 0,0,1
EndSplineSet
Substitution2: "'fina' Terminal Forms in Arabic lookup 5 subtable" aleffinal
Substitution2: "'isol' Isolated Forms in Arabic lookup 2 subtable" alefisolated
AlternateSubs2: "'aalt' Access All Alternates in Latin lookup 1 subtable" alefisolated aleffinal
EndChar

StartChar: beh
Encoding: 1576 1576 11
Width: 1159
Flags: W
AnchorPoint: "ArabicBelow" 579 -717 basechar 0
AnchorPoint: "ArabicAbove" 579 814 basechar 0
LayerCount: 2
Fore
SplineSet
1143 315 m 2,0,1
 1142 297 1142 297 1140 279 c 128,-1,2
 1138 261 1138 261 1135 242 c 0,3,4
 1132 228 1132 228 1121.5 197.5 c 128,-1,5
 1111 167 1111 167 1094 119 c 0,6,7
 1075 65 1075 65 1062 35 c 128,-1,8
 1049 5 1049 5 1044 0 c 1,9,-1
 256 0 l 1,10,-1
 208 3 l 2,11,12
 205 3 205 3 199.5 3.5 c 128,-1,13
 194 4 194 4 192 5 c 0,14,15
 187 7 187 7 180.5 8.5 c 128,-1,16
 174 10 174 10 169 12 c 0,17,18
 146 19 146 19 126 29.5 c 128,-1,19
 106 40 106 40 89 55 c 1,20,-1
 89 56 l 1,21,22
 16 114 16 114 16 181 c 0,23,24
 16 204 16 204 18.5 230 c 128,-1,25
 21 256 21 256 27 286 c 1,26,-1
 27 287 l 1,27,28
 32 314 32 314 42.5 359.5 c 128,-1,29
 53 405 53 405 67 453 c 0,30,31
 93 544 93 544 117 544 c 1,32,-1
 118 549 l 1,33,34
 118 535 118 535 115 514 c 128,-1,35
 112 493 112 493 109 471 c 0,36,37
 107 458 107 458 105.5 445 c 128,-1,38
 104 432 104 432 102 421 c 0,39,40
 100 404 100 404 99 383 c 128,-1,41
 98 362 98 362 98 337 c 0,42,43
 98 275 98 275 135 239 c 0,44,45
 207 148 207 148 335 148 c 2,46,-1
 1013 148 l 2,47,48
 1022 149 1022 149 1027.5 151.5 c 128,-1,49
 1033 154 1033 154 1035.5 161 c 128,-1,50
 1038 168 1038 168 1039 180.5 c 128,-1,51
 1040 193 1040 193 1040 216 c 0,52,53
 1040 237 1040 237 1036 263.5 c 128,-1,54
 1032 290 1032 290 1020 315 c 0,55,56
 1013 331 1013 331 998 355 c 128,-1,57
 983 379 983 379 961 410 c 1,58,-1
 1049 564 l 1,59,60
 1077 519 1077 519 1093.5 492.5 c 128,-1,61
 1110 466 1110 466 1112 464 c 1,62,63
 1119 449 1119 449 1123.5 437 c 128,-1,64
 1128 425 1128 425 1132 413 c 1,65,-1
 1132 411 l 1,66,67
 1138 396 1138 396 1140.5 382 c 128,-1,68
 1143 368 1143 368 1143 357 c 2,69,-1
 1143 315 l 2,0,1
737 -358 m 1,70,-1
 656 -467 l 1,71,-1
 532 -378 l 1,72,-1
 611 -268 l 1,73,-1
 737 -358 l 1,70,-1
EndSplineSet
Substitution2: "'fina' Terminal Forms in Arabic lookup 5 subtable" behfinal
Substitution2: "'medi' Medial Forms in Arabic lookup 4 subtable" behmedial
Substitution2: "'init' Initial Forms in Arabic lookup 3 subtable" behinitial
Substitution2: "'isol' Isolated Forms in Arabic lookup 2 subtable" behisolated
AlternateSubs2: "'aalt' Access All Alternates in Latin lookup 1 subtable" behisolated behinitial behmedial behfinal
EndChar

StartChar: tehmarbuta
Encoding: 1577 1577 12
Width: 582
Flags: W
AnchorPoint: "ArabicBelow" 291 -269 basechar 0
AnchorPoint: "ArabicAbove" 291 1213 basechar 0
LayerCount: 2
Fore
SplineSet
515 132 m 2,0,1
 501 90 501 90 460 56 c 1,2,-1
 460 55 l 1,3,4
 462 57 462 57 436.5 46 c 128,-1,5
 411 35 411 35 359 13 c 2,6,-1
 286 -9 l 1,7,-1
 231 -19 l 1,8,9
 174 -19 174 -19 141.5 -16 c 128,-1,10
 109 -13 109 -13 92 -8 c 0,11,12
 54 2 54 2 33 19.5 c 128,-1,13
 12 37 12 37 12 60 c 0,14,15
 12 99 12 99 29 152 c 128,-1,16
 46 205 46 205 87 271 c 2,17,-1
 178 415 l 1,18,-1
 178 416 l 1,19,20
 213 475 213 475 247.5 522 c 128,-1,21
 282 569 282 569 318 608 c 1,22,-1
 518 443 l 1,23,-1
 539 414 l 1,24,-1
 557 378 l 2,25,26
 570 346 570 346 570 310 c 2,27,-1
 568 285 l 1,28,-1
 557 252 l 1,29,-1
 515 132 l 2,0,1
491 165 m 1,30,-1
 491 177 l 2,31,32
 491 208 491 208 466 251 c 128,-1,33
 441 294 441 294 393 347 c 0,34,35
 342 404 342 404 310.5 433 c 128,-1,36
 279 462 279 462 268 462 c 1,37,-1
 268 455 l 1,38,39
 249 431 249 431 229.5 406.5 c 128,-1,40
 210 382 210 382 190 358 c 1,41,-1
 190 356 l 1,42,43
 167 322 167 322 154 294.5 c 128,-1,44
 141 267 141 267 137 247 c 1,45,-1
 137 243 l 2,46,47
 137 170 137 170 176 143 c 0,48,49
 191 134 191 134 212.5 128 c 128,-1,50
 234 122 234 122 261 122 c 0,51,52
 305 122 305 122 340 125 c 128,-1,53
 375 128 375 128 405 133 c 2,54,-1
 480 144 l 1,55,-1
 480 151 l 1,56,-1
 491 165 l 1,30,-1
289 883 m 1,57,-1
 216 783 l 1,58,-1
 102 863 l 1,59,-1
 174 963 l 1,60,-1
 289 883 l 1,57,-1
474 883 m 1,61,-1
 401 783 l 1,62,-1
 287 863 l 1,63,-1
 359 963 l 1,64,-1
 474 883 l 1,61,-1
EndSplineSet
Substitution2: "'fina' Terminal Forms in Arabic lookup 5 subtable" tehmarbutafinal
Substitution2: "'isol' Isolated Forms in Arabic lookup 2 subtable" tehmarbutaisolated
AlternateSubs2: "'aalt' Access All Alternates in Latin lookup 1 subtable" tehmarbutaisolated tehmarbutafinal
EndChar

StartChar: teh
Encoding: 1578 1578 13
Width: 1132
Flags: W
AnchorPoint: "ArabicBelow" 566 -251 basechar 0
AnchorPoint: "ArabicAbove" 566 1150 basechar 0
LayerCount: 2
Fore
SplineSet
1080 120 m 0,0,1
 1061 64 1061 64 1048.5 34.5 c 128,-1,2
 1036 5 1036 5 1031 0 c 1,3,4
 931 -1 931 -1 842 -1 c 256,5,6
 753 -1 753 -1 678 -1 c 2,7,-1
 259 -1 l 2,8,9
 233 -1 233 -1 215 -1 c 256,10,11
 197 -1 197 -1 188 0 c 0,12,13
 159 2 159 2 135 8.5 c 128,-1,14
 111 15 111 15 95 27 c 0,15,16
 70 44 70 44 54 57 c 128,-1,17
 38 70 38 70 29 81 c 0,18,19
 3 112 3 112 3 181 c 0,20,21
 3 204 3 204 5.5 230 c 128,-1,22
 8 256 8 256 14 286 c 1,23,-1
 14 287 l 1,24,25
 19 314 19 314 29.5 359.5 c 128,-1,26
 40 405 40 405 54 453 c 0,27,28
 65 493 65 493 77.5 516 c 128,-1,29
 90 539 90 539 104 543 c 1,30,31
 103 532 103 532 101 514 c 128,-1,32
 99 496 99 496 96 471 c 2,33,-1
 96 470 l 2,34,35
 91 427 91 427 88 400 c 128,-1,36
 85 373 85 373 85 358 c 0,37,38
 85 327 85 327 91 302 c 0,39,40
 100 270 100 270 105 258 c 0,41,42
 110 245 110 245 121.5 230.5 c 128,-1,43
 133 216 133 216 150 196 c 0,44,45
 193 148 193 148 322 148 c 2,46,-1
 1000 148 l 1,47,-1
 1000 150 l 1,48,49
 1003 151 1003 151 1008 154 c 128,-1,50
 1013 157 1013 157 1017 162.5 c 128,-1,51
 1021 168 1021 168 1024 177.5 c 128,-1,52
 1027 187 1027 187 1027 201 c 0,53,54
 1027 217 1027 217 1021 259 c 0,55,56
 1015 309 1015 309 966 382 c 2,57,-1
 947 409 l 1,58,-1
 1036 565 l 1,59,-1
 1088 485 l 2,60,61
 1113 435 1113 435 1119 414 c 1,62,-1
 1119 413 l 1,63,64
 1129 386 1129 386 1129 345 c 2,65,-1
 1129 331 l 2,66,67
 1128 306 1128 306 1125.5 282 c 128,-1,68
 1123 258 1123 258 1117 235 c 0,69,70
 1113 215 1113 215 1104 186 c 128,-1,71
 1095 157 1095 157 1080 120 c 0,0,1
552 820 m 1,72,-1
 479 720 l 1,73,-1
 364 800 l 1,74,-1
 436 900 l 1,75,-1
 552 820 l 1,72,-1
737 820 m 1,76,-1
 664 720 l 1,77,-1
 550 800 l 1,78,-1
 622 900 l 1,79,-1
 737 820 l 1,76,-1
110 544 m 1,80,81
 108 544 108 544 107 543.5 c 128,-1,82
 106 543 106 543 104 543 c 1,83,84
 104 545 104 545 104.5 547 c 128,-1,85
 105 549 105 549 105 551 c 1,86,87
 105 548 105 548 110 544 c 1,80,81
EndSplineSet
Substitution2: "'fina' Terminal Forms in Arabic lookup 5 subtable" tehfinal
Substitution2: "'medi' Medial Forms in Arabic lookup 4 subtable" tehmedial
Substitution2: "'init' Initial Forms in Arabic lookup 3 subtable" tehinitial
Substitution2: "'isol' Isolated Forms in Arabic lookup 2 subtable" tehisolated
AlternateSubs2: "'aalt' Access All Alternates in Latin lookup 1 subtable" tehisolated tehinitial tehmedial tehfinal
EndChar

StartChar: theh
Encoding: 1579 1579 14
Width: 1132
Flags: W
AnchorPoint: "ArabicBelow" 566 -251 basechar 0
AnchorPoint: "ArabicAbove" 566 1158 basechar 0
LayerCount: 2
Fore
SplineSet
1080 120 m 0,0,1
 1061 64 1061 64 1048.5 34.5 c 128,-1,2
 1036 5 1036 5 1031 0 c 1,3,4
 931 -1 931 -1 842 -1 c 256,5,6
 753 -1 753 -1 678 -1 c 2,7,-1
 259 -1 l 2,8,9
 233 -1 233 -1 215 -1 c 256,10,11
 197 -1 197 -1 188 0 c 0,12,13
 159 2 159 2 135 8.5 c 128,-1,14
 111 15 111 15 95 27 c 0,15,16
 70 44 70 44 54 57 c 128,-1,17
 38 70 38 70 29 81 c 0,18,19
 3 112 3 112 3 181 c 0,20,21
 3 204 3 204 5.5 230 c 128,-1,22
 8 256 8 256 14 286 c 1,23,-1
 14 287 l 1,24,25
 19 314 19 314 29.5 359.5 c 128,-1,26
 40 405 40 405 54 453 c 0,27,28
 65 493 65 493 77.5 516 c 128,-1,29
 90 539 90 539 104 543 c 1,30,31
 103 532 103 532 101 514 c 128,-1,32
 99 496 99 496 96 471 c 2,33,-1
 96 470 l 2,34,35
 91 427 91 427 88 400 c 128,-1,36
 85 373 85 373 85 358 c 0,37,38
 85 327 85 327 91 302 c 0,39,40
 100 270 100 270 105 258 c 0,41,42
 110 245 110 245 121.5 230.5 c 128,-1,43
 133 216 133 216 150 196 c 0,44,45
 193 148 193 148 322 148 c 2,46,-1
 1000 148 l 1,47,-1
 1000 150 l 1,48,49
 1003 151 1003 151 1008 154 c 128,-1,50
 1013 157 1013 157 1017 162.5 c 128,-1,51
 1021 168 1021 168 1024 177.5 c 128,-1,52
 1027 187 1027 187 1027 201 c 0,53,54
 1027 217 1027 217 1021 259 c 0,55,56
 1015 309 1015 309 966 382 c 2,57,-1
 947 409 l 1,58,-1
 1036 565 l 1,59,-1
 1088 485 l 2,60,61
 1113 435 1113 435 1119 414 c 1,62,-1
 1119 413 l 1,63,64
 1129 386 1129 386 1129 345 c 2,65,-1
 1129 331 l 2,66,67
 1128 306 1128 306 1125.5 282 c 128,-1,68
 1123 258 1123 258 1117 235 c 0,69,70
 1113 215 1113 215 1104 186 c 128,-1,71
 1095 157 1095 157 1080 120 c 0,0,1
755 628 m 1,72,-1
 682 528 l 1,73,-1
 568 608 l 1,74,-1
 640 708 l 1,75,-1
 755 628 l 1,72,-1
570 628 m 1,76,-1
 497 528 l 1,77,-1
 383 608 l 1,78,-1
 455 708 l 1,79,-1
 570 628 l 1,76,-1
634 841 m 1,80,-1
 574 762 l 1,81,-1
 480 829 l 1,82,-1
 538 908 l 1,83,-1
 634 841 l 1,80,-1
110 544 m 1,84,85
 108 544 108 544 107 543.5 c 128,-1,86
 106 543 106 543 104 543 c 1,87,88
 104 545 104 545 104.5 547 c 128,-1,89
 105 549 105 549 105 551 c 1,90,91
 105 548 105 548 110 544 c 1,84,85
EndSplineSet
Substitution2: "'fina' Terminal Forms in Arabic lookup 5 subtable" thehfinal
Substitution2: "'medi' Medial Forms in Arabic lookup 4 subtable" thehmedial
Substitution2: "'init' Initial Forms in Arabic lookup 3 subtable" thehinitial
Substitution2: "'isol' Isolated Forms in Arabic lookup 2 subtable" thehisolated
AlternateSubs2: "'aalt' Access All Alternates in Latin lookup 1 subtable" thehisolated thehinitial thehmedial thehfinal
EndChar

StartChar: jeem
Encoding: 1580 1580 15
Width: 901
Flags: W
AnchorPoint: "ArabicBelow" 450 -941 basechar 0
AnchorPoint: "ArabicAbove" 450 774 basechar 0
LayerCount: 2
Fore
SplineSet
674 -584 m 0,0,1
 694 -586 694 -586 714.5 -587.5 c 128,-1,2
 735 -589 735 -589 755 -592 c 1,3,-1
 867 -592 l 1,4,5
 854 -600 854 -600 837.5 -608.5 c 128,-1,6
 821 -617 821 -617 802 -628 c 0,7,8
 738 -660 738 -660 659 -675.5 c 128,-1,9
 580 -691 580 -691 484 -691 c 0,10,11
 264 -691 264 -691 142 -587 c 0,12,13
 15 -478 15 -478 15 -330 c 0,14,15
 15 -227 15 -227 35 -137 c 128,-1,16
 55 -47 55 -47 93 34 c 0,17,18
 124 97 124 97 178 164.5 c 128,-1,19
 232 232 232 232 306 298 c 1,20,-1
 306 355 l 1,21,22
 298 357 298 357 289.5 359.5 c 128,-1,23
 281 362 281 362 274 364 c 0,24,25
 260 369 260 369 248 372 c 128,-1,26
 236 375 236 375 228 377 c 2,27,-1
 178 383 l 1,28,-1
 120 383 l 2,29,30
 80 383 80 383 28 346 c 1,31,-1
 28 345 l 1,32,33
 18 336 18 336 10 331.5 c 128,-1,34
 2 327 2 327 -3 326 c 1,35,-1
 21 407 l 2,36,37
 74 524 74 524 164 524 c 2,38,-1
 208 524 l 2,39,40
 223 522 223 522 240 520 c 128,-1,41
 257 518 257 518 279 517 c 1,42,-1
 392 489 l 1,43,-1
 392 488 l 1,44,45
 435 481 435 481 477 474.5 c 128,-1,46
 519 468 519 468 562 462 c 2,47,-1
 806 462 l 1,48,-1
 749 335 l 1,49,50
 719 334 719 334 685.5 330 c 128,-1,51
 652 326 652 326 597 315 c 0,52,53
 570 310 570 310 542 303.5 c 128,-1,54
 514 297 514 297 485 289 c 0,55,56
 463 281 463 281 439.5 272.5 c 128,-1,57
 416 264 416 264 394 256 c 0,58,59
 336 233 336 233 282.5 188 c 128,-1,60
 229 143 229 143 178 66 c 0,61,62
 86 -73 86 -73 86 -196 c 0,63,64
 86 -350 86 -350 202 -443 c 0,65,66
 248 -485 248 -485 310 -509 c 0,67,68
 342 -524 342 -524 370 -533.5 c 128,-1,69
 398 -543 398 -543 418 -548 c 0,70,71
 444 -556 444 -556 478.5 -561.5 c 128,-1,72
 513 -567 513 -567 557 -572 c 0,73,74
 615 -580 615 -580 674 -584 c 0,0,1
608 -181 m 1,75,-1
 527 -290 l 1,76,-1
 403 -201 l 1,77,-1
 482 -92 l 1,78,-1
 608 -181 l 1,75,-1
632 -176 m 1,79,80
 622 -186 622 -186 620.5 -182.5 c 128,-1,81
 619 -179 619 -179 619 -173 c 1,82,-1
 621 -165 l 1,83,-1
 632 -176 l 1,79,80
EndSplineSet
Substitution2: "'fina' Terminal Forms in Arabic lookup 5 subtable" jeemfinal
Substitution2: "'medi' Medial Forms in Arabic lookup 4 subtable" jeemmedial
Substitution2: "'init' Initial Forms in Arabic lookup 3 subtable" jeeminitial
Substitution2: "'isol' Isolated Forms in Arabic lookup 2 subtable" jeemisolated
AlternateSubs2: "'aalt' Access All Alternates in Latin lookup 1 subtable" jeemisolated jeeminitial jeemmedial jeemfinal
EndChar

StartChar: hah
Encoding: 1581 1581 16
Width: 901
Flags: W
AnchorPoint: "ArabicBelow" 450 -941 basechar 0
AnchorPoint: "ArabicAbove" 450 774 basechar 0
LayerCount: 2
Fore
SplineSet
674 -584 m 0,0,1
 694 -586 694 -586 714.5 -587.5 c 128,-1,2
 735 -589 735 -589 755 -592 c 1,3,-1
 867 -592 l 1,4,5
 854 -600 854 -600 837.5 -608.5 c 128,-1,6
 821 -617 821 -617 802 -628 c 0,7,8
 738 -660 738 -660 659 -675.5 c 128,-1,9
 580 -691 580 -691 484 -691 c 0,10,11
 264 -691 264 -691 142 -587 c 0,12,13
 15 -478 15 -478 15 -330 c 0,14,15
 15 -227 15 -227 35 -137 c 128,-1,16
 55 -47 55 -47 93 34 c 0,17,18
 124 97 124 97 178 164.5 c 128,-1,19
 232 232 232 232 306 298 c 1,20,-1
 306 355 l 1,21,22
 298 357 298 357 289.5 359.5 c 128,-1,23
 281 362 281 362 274 364 c 0,24,25
 260 369 260 369 248 372 c 128,-1,26
 236 375 236 375 228 377 c 2,27,-1
 178 383 l 1,28,-1
 120 383 l 2,29,30
 80 383 80 383 28 346 c 1,31,-1
 28 345 l 1,32,33
 18 336 18 336 10 331.5 c 128,-1,34
 2 327 2 327 -3 326 c 1,35,-1
 21 407 l 2,36,37
 74 524 74 524 164 524 c 2,38,-1
 208 524 l 2,39,40
 223 522 223 522 240 520 c 128,-1,41
 257 518 257 518 279 517 c 1,42,-1
 392 489 l 1,43,-1
 392 488 l 1,44,45
 435 481 435 481 477 474.5 c 128,-1,46
 519 468 519 468 562 462 c 2,47,-1
 806 462 l 1,48,-1
 749 335 l 1,49,50
 719 334 719 334 685.5 330 c 128,-1,51
 652 326 652 326 597 315 c 0,52,53
 570 310 570 310 542 303.5 c 128,-1,54
 514 297 514 297 485 289 c 0,55,56
 463 281 463 281 439.5 272.5 c 128,-1,57
 416 264 416 264 394 256 c 0,58,59
 336 233 336 233 282.5 188 c 128,-1,60
 229 143 229 143 178 66 c 0,61,62
 86 -73 86 -73 86 -196 c 0,63,64
 86 -350 86 -350 202 -443 c 0,65,66
 248 -485 248 -485 310 -509 c 0,67,68
 342 -524 342 -524 370 -533.5 c 128,-1,69
 398 -543 398 -543 418 -548 c 0,70,71
 444 -556 444 -556 478.5 -561.5 c 128,-1,72
 513 -567 513 -567 557 -572 c 0,73,74
 615 -580 615 -580 674 -584 c 0,0,1
EndSplineSet
Substitution2: "'fina' Terminal Forms in Arabic lookup 5 subtable" hahfinal
Substitution2: "'medi' Medial Forms in Arabic lookup 4 subtable" hahmedial
Substitution2: "'init' Initial Forms in Arabic lookup 3 subtable" hahinitial
Substitution2: "'isol' Isolated Forms in Arabic lookup 2 subtable" hahisolated
AlternateSubs2: "'aalt' Access All Alternates in Latin lookup 1 subtable" hahisolated hahinitial hahmedial hahfinal
EndChar

StartChar: khah
Encoding: 1582 1582 17
Width: 901
Flags: W
AnchorPoint: "ArabicBelow" 450 -941 basechar 0
AnchorPoint: "ArabicAbove" 450 1198 basechar 0
LayerCount: 2
Fore
SplineSet
674 -584 m 0,0,1
 694 -586 694 -586 714.5 -587.5 c 128,-1,2
 735 -589 735 -589 755 -592 c 1,3,-1
 867 -592 l 1,4,5
 854 -600 854 -600 837.5 -608.5 c 128,-1,6
 821 -617 821 -617 802 -628 c 0,7,8
 738 -660 738 -660 659 -675.5 c 128,-1,9
 580 -691 580 -691 484 -691 c 0,10,11
 264 -691 264 -691 142 -587 c 0,12,13
 15 -478 15 -478 15 -330 c 0,14,15
 15 -227 15 -227 35 -137 c 128,-1,16
 55 -47 55 -47 93 34 c 0,17,18
 124 97 124 97 178 164.5 c 128,-1,19
 232 232 232 232 306 298 c 1,20,-1
 306 355 l 1,21,22
 298 357 298 357 289.5 359.5 c 128,-1,23
 281 362 281 362 274 364 c 0,24,25
 260 369 260 369 248 372 c 128,-1,26
 236 375 236 375 228 377 c 2,27,-1
 178 383 l 1,28,-1
 120 383 l 2,29,30
 80 383 80 383 28 346 c 1,31,-1
 28 345 l 1,32,33
 18 336 18 336 10 331.5 c 128,-1,34
 2 327 2 327 -3 326 c 1,35,-1
 21 407 l 2,36,37
 74 524 74 524 164 524 c 2,38,-1
 208 524 l 2,39,40
 223 522 223 522 240 520 c 128,-1,41
 257 518 257 518 279 517 c 1,42,-1
 392 489 l 1,43,-1
 392 488 l 1,44,45
 435 481 435 481 477 474.5 c 128,-1,46
 519 468 519 468 562 462 c 2,47,-1
 806 462 l 1,48,-1
 749 335 l 1,49,50
 719 334 719 334 685.5 330 c 128,-1,51
 652 326 652 326 597 315 c 0,52,53
 570 310 570 310 542 303.5 c 128,-1,54
 514 297 514 297 485 289 c 0,55,56
 463 281 463 281 439.5 272.5 c 128,-1,57
 416 264 416 264 394 256 c 0,58,59
 336 233 336 233 282.5 188 c 128,-1,60
 229 143 229 143 178 66 c 0,61,62
 86 -73 86 -73 86 -196 c 0,63,64
 86 -350 86 -350 202 -443 c 0,65,66
 248 -485 248 -485 310 -509 c 0,67,68
 342 -524 342 -524 370 -533.5 c 128,-1,69
 398 -543 398 -543 418 -548 c 0,70,71
 444 -556 444 -556 478.5 -561.5 c 128,-1,72
 513 -567 513 -567 557 -572 c 0,73,74
 615 -580 615 -580 674 -584 c 0,0,1
421 859 m 1,75,-1
 340 750 l 1,76,-1
 215 839 l 1,77,-1
 295 948 l 1,78,-1
 421 859 l 1,75,-1
EndSplineSet
Substitution2: "'fina' Terminal Forms in Arabic lookup 5 subtable" khahfinal
Substitution2: "'medi' Medial Forms in Arabic lookup 4 subtable" khahmedial
Substitution2: "'init' Initial Forms in Arabic lookup 3 subtable" khahinitial
Substitution2: "'isol' Isolated Forms in Arabic lookup 2 subtable" khahisolated
AlternateSubs2: "'aalt' Access All Alternates in Latin lookup 1 subtable" khahisolated khahinitial khahmedial khahfinal
EndChar

StartChar: dal
Encoding: 1583 1583 18
Width: 672
Flags: W
AnchorPoint: "ArabicBelow" 336 -252 basechar 0
AnchorPoint: "ArabicAbove" 336 916 basechar 0
LayerCount: 2
Fore
SplineSet
81 148 m 1,0,-1
 518 148 l 1,1,-1
 518 195 l 2,2,3
 518 262 518 262 475 330 c 0,4,5
 450 368 450 368 425 396.5 c 128,-1,6
 400 425 400 425 376 440 c 0,7,8
 363 448 363 448 348 457 c 128,-1,9
 333 466 333 466 320 474 c 1,10,-1
 320 475 l 1,11,12
 309 480 309 480 299.5 485 c 128,-1,13
 290 490 290 490 279 495 c 1,14,-1
 317 666 l 1,15,16
 435 586 435 586 451 571 c 0,17,18
 468 555 468 555 483 537.5 c 128,-1,19
 498 520 498 520 512 499 c 0,20,21
 546 448 546 448 565.5 402 c 128,-1,22
 585 356 585 356 594 318 c 0,23,24
 599 294 599 294 602.5 276 c 128,-1,25
 606 258 606 258 607 249 c 2,26,-1
 607 248 l 1,27,28
 608 242 608 242 608 234 c 256,29,30
 608 226 608 226 608 217 c 2,31,-1
 608 170 l 2,32,33
 608 142 608 142 605.5 115.5 c 128,-1,34
 603 89 603 89 598 63 c 0,35,36
 586 -2 586 -2 549 -2 c 2,37,-1
 65 -2 l 1,38,-1
 81 148 l 1,0,-1
EndSplineSet
Substitution2: "'fina' Terminal Forms in Arabic lookup 5 subtable" dalfinal
Substitution2: "'isol' Isolated Forms in Arabic lookup 2 subtable" dalisolated
AlternateSubs2: "'aalt' Access All Alternates in Latin lookup 1 subtable" dalisolated dalfinal
EndChar

StartChar: thal
Encoding: 1584 1584 19
Width: 672
Flags: W
AnchorPoint: "ArabicBelow" 336 -252 basechar 0
AnchorPoint: "ArabicAbove" 336 1242 basechar 0
LayerCount: 2
Fore
SplineSet
81 148 m 1,0,-1
 518 148 l 1,1,-1
 518 195 l 2,2,3
 518 262 518 262 475 330 c 0,4,5
 450 368 450 368 425 396.5 c 128,-1,6
 400 425 400 425 376 440 c 0,7,8
 363 448 363 448 348 457 c 128,-1,9
 333 466 333 466 320 474 c 1,10,-1
 320 475 l 1,11,12
 309 480 309 480 299.5 485 c 128,-1,13
 290 490 290 490 279 495 c 1,14,-1
 317 666 l 1,15,16
 435 586 435 586 451 571 c 0,17,18
 468 555 468 555 483 537.5 c 128,-1,19
 498 520 498 520 512 499 c 0,20,21
 546 448 546 448 565.5 402 c 128,-1,22
 585 356 585 356 594 318 c 0,23,24
 599 294 599 294 602.5 276 c 128,-1,25
 606 258 606 258 607 249 c 2,26,-1
 607 248 l 1,27,28
 608 242 608 242 608 234 c 256,29,30
 608 226 608 226 608 217 c 2,31,-1
 608 170 l 2,32,33
 608 142 608 142 605.5 115.5 c 128,-1,34
 603 89 603 89 598 63 c 0,35,36
 586 -2 586 -2 549 -2 c 2,37,-1
 65 -2 l 1,38,-1
 81 148 l 1,0,-1
275 911 m 1,39,-1
 202 812 l 1,40,-1
 88 892 l 1,41,-1
 160 992 l 1,42,-1
 275 911 l 1,39,-1
EndSplineSet
Substitution2: "'fina' Terminal Forms in Arabic lookup 5 subtable" thalfinal
Substitution2: "'isol' Isolated Forms in Arabic lookup 2 subtable" thalisolated
AlternateSubs2: "'aalt' Access All Alternates in Latin lookup 1 subtable" thalisolated thalfinal
EndChar

StartChar: reh
Encoding: 1585 1585 20
Width: 831
Flags: W
AnchorPoint: "ArabicBelow" 415 -687 basechar 0
AnchorPoint: "ArabicAbove" 415 732 basechar 0
LayerCount: 2
Fore
SplineSet
800 -12 m 1,0,1
 784 -77 784 -77 757 -141.5 c 128,-1,2
 730 -206 730 -206 692 -270 c 0,3,4
 642 -349 642 -349 582.5 -393 c 128,-1,5
 523 -437 523 -437 457 -437 c 0,6,7
 422 -437 422 -437 355.5 -418 c 128,-1,8
 289 -399 289 -399 200 -364 c 0,9,10
 188 -359 188 -359 176.5 -355 c 128,-1,11
 165 -351 165 -351 154 -347 c 1,12,-1
 155 -347 l 1,13,14
 193 -357 193 -357 223 -362.5 c 128,-1,15
 253 -368 253 -368 270 -368 c 0,16,17
 369 -368 369 -368 559 -205 c 0,18,19
 741 -47 741 -47 741 73 c 0,20,21
 741 131 741 131 650 222 c 0,22,23
 614 259 614 259 588 282.5 c 128,-1,24
 562 306 562 306 544 320 c 1,25,-1
 600 482 l 1,26,27
 672 444 672 444 726 369 c 0,28,29
 814 243 814 243 814 107 c 0,30,31
 814 63 814 63 800 -13 c 1,32,-1
 800 -12 l 1,0,1
EndSplineSet
Substitution2: "'fina' Terminal Forms in Arabic lookup 5 subtable" rehfinal
Substitution2: "'isol' Isolated Forms in Arabic lookup 2 subtable" rehisolated
AlternateSubs2: "'aalt' Access All Alternates in Latin lookup 1 subtable" rehisolated rehfinal
EndChar

StartChar: zain
Encoding: 1586 1586 21
Width: 831
Flags: W
AnchorPoint: "ArabicBelow" 415 -687 basechar 0
AnchorPoint: "ArabicAbove" 415 1139 basechar 0
LayerCount: 2
Fore
SplineSet
692 -270 m 0,0,1
 591 -437 591 -437 457 -437 c 0,2,3
 422 -437 422 -437 355.5 -418 c 128,-1,4
 289 -399 289 -399 200 -364 c 0,5,6
 188 -359 188 -359 176 -355 c 128,-1,7
 164 -351 164 -351 153 -346 c 1,8,-1
 155 -347 l 1,9,10
 193 -357 193 -357 223 -362.5 c 128,-1,11
 253 -368 253 -368 270 -368 c 0,12,13
 369 -368 369 -368 559 -205 c 0,14,15
 741 -47 741 -47 741 73 c 0,16,17
 741 127 741 127 650 223 c 1,18,-1
 650 224 l 1,19,20
 622 249 622 249 596.5 271 c 128,-1,21
 571 293 571 293 543 318 c 1,22,-1
 600 482 l 1,23,24
 672 444 672 444 726 369 c 0,25,26
 814 243 814 243 814 107 c 0,27,28
 814 57 814 57 798 -13 c 1,29,-1
 798 -14 l 1,30,31
 784 -79 784 -79 757 -142 c 128,-1,32
 730 -205 730 -205 692 -270 c 0,0,1
615 809 m 1,33,-1
 542 709 l 1,34,-1
 427 789 l 1,35,-1
 499 889 l 1,36,-1
 615 809 l 1,33,-1
EndSplineSet
Substitution2: "'fina' Terminal Forms in Arabic lookup 5 subtable" zainfinal
Substitution2: "'isol' Isolated Forms in Arabic lookup 2 subtable" zainisolated
AlternateSubs2: "'aalt' Access All Alternates in Latin lookup 1 subtable" zainisolated zainfinal
EndChar

StartChar: seen
Encoding: 1587 1587 22
Width: 1630
Flags: W
AnchorPoint: "ArabicBelow" 815 -677 basechar 0
AnchorPoint: "ArabicAbove" 815 699 basechar 0
LayerCount: 2
Fore
SplineSet
1274 -2 m 1,0,-1
 1238 34 l 1,1,-1
 1238 36 l 1,2,3
 1224 26 1224 26 1213 17 c 128,-1,4
 1202 8 1202 8 1188 -2 c 1,5,-1
 860 -2 l 1,6,-1
 860 -48 l 2,7,8
 860 -60 860 -60 839 -117 c 0,9,10
 817 -173 817 -173 793 -213 c 128,-1,11
 769 -253 769 -253 740 -280 c 0,12,13
 717 -301 717 -301 669 -324.5 c 128,-1,14
 621 -348 621 -348 550 -377 c 0,15,16
 482 -401 482 -401 433.5 -414 c 128,-1,17
 385 -427 385 -427 355 -427 c 0,18,19
 181 -427 181 -427 100 -386 c 0,20,21
 -7 -332 -7 -332 -7 -219 c 0,22,23
 -7 -90 -7 -90 67 103 c 0,24,25
 129 258 129 258 152 258 c 1,26,-1
 103 119 l 1,27,-1
 103 118 l 1,28,-1
 82 44 l 1,29,-1
 82 40 l 1,30,31
 80 26 80 26 77.5 10.5 c 128,-1,32
 75 -5 75 -5 73 -20 c 2,33,-1
 73 -22 l 2,34,35
 73 -149 73 -149 157 -213 c 0,36,37
 197 -245 197 -245 246.5 -265 c 128,-1,38
 296 -285 296 -285 355 -286 c 0,39,40
 375 -285 375 -285 395.5 -284 c 128,-1,41
 416 -283 416 -283 436 -282 c 0,42,43
 447 -280 447 -280 459 -278 c 128,-1,44
 471 -276 471 -276 482 -274 c 0,45,46
 496 -271 496 -271 510.5 -266.5 c 128,-1,47
 525 -262 525 -262 539 -259 c 1,48,-1
 539 -258 l 1,49,50
 556 -253 556 -253 574 -247 c 128,-1,51
 592 -241 592 -241 609 -236 c 0,52,53
 678 -213 678 -213 724.5 -185 c 128,-1,54
 771 -157 771 -157 788 -127 c 1,55,-1
 788 -116 l 2,56,57
 788 -114 788 -114 789 -112.5 c 128,-1,58
 790 -111 790 -111 790 -109 c 0,59,60
 790 -87 790 -87 783.5 -53 c 128,-1,61
 777 -19 777 -19 762 32 c 0,62,63
 743 87 743 87 721 139.5 c 128,-1,64
 699 192 699 192 675 231 c 1,65,-1
 772 403 l 1,66,-1
 841 265 l 2,67,68
 866 220 866 220 887.5 194 c 128,-1,69
 909 168 909 168 929 151 c 1,70,-1
 929 146 l 1,71,-1
 1236 146 l 1,72,-1
 1236 152 l 1,73,74
 1239 155 1239 155 1242.5 158 c 128,-1,75
 1246 161 1246 161 1249 165 c 1,76,-1
 1249 178 l 2,77,78
 1251 211 1251 211 1253.5 238 c 128,-1,79
 1256 265 1256 265 1258 298 c 1,80,-1
 1350 389 l 1,81,-1
 1346 377 l 1,82,-1
 1346 375 l 1,83,84
 1333 306 1333 306 1327 262.5 c 128,-1,85
 1321 219 1321 219 1321 199 c 2,86,-1
 1321 195 l 1,87,88
 1322 190 1322 190 1322.5 184 c 128,-1,89
 1323 178 1323 178 1324 173 c 1,90,-1
 1324 159 l 1,91,-1
 1337 150 l 1,92,-1
 1337 146 l 1,93,-1
 1543 146 l 1,94,-1
 1543 152 l 1,95,96
 1546 155 1546 155 1550 158 c 128,-1,97
 1554 161 1554 161 1557 165 c 1,98,-1
 1557 199 l 2,99,100
 1556 208 1556 208 1555 217.5 c 128,-1,101
 1554 227 1554 227 1553 237 c 2,102,-1
 1553 240 l 1,103,104
 1547 261 1547 261 1542.5 276.5 c 128,-1,105
 1538 292 1538 292 1533 314 c 1,106,-1
 1634 449 l 1,107,-1
 1634 259 l 2,108,109
 1635 250 1635 250 1635.5 241 c 128,-1,110
 1636 232 1636 232 1636 224 c 0,111,112
 1636 157 1636 157 1614 102 c 128,-1,113
 1592 47 1592 47 1566 -2 c 1,114,-1
 1274 -2 l 1,0,-1
EndSplineSet
Substitution2: "'fina' Terminal Forms in Arabic lookup 5 subtable" seenfinal
Substitution2: "'medi' Medial Forms in Arabic lookup 4 subtable" seenmedial
Substitution2: "'init' Initial Forms in Arabic lookup 3 subtable" seeninitial
Substitution2: "'isol' Isolated Forms in Arabic lookup 2 subtable" seenisolated
AlternateSubs2: "'aalt' Access All Alternates in Latin lookup 1 subtable" seenisolated seeninitial seenmedial seenfinal
EndChar

StartChar: sheen
Encoding: 1588 1588 23
Width: 1630
Flags: W
AnchorPoint: "ArabicBelow" 815 -677 basechar 0
AnchorPoint: "ArabicAbove" 815 1249 basechar 0
LayerCount: 2
Fore
SplineSet
1274 -2 m 1,0,-1
 1238 34 l 1,1,-1
 1238 36 l 1,2,3
 1224 26 1224 26 1213 17 c 128,-1,4
 1202 8 1202 8 1188 -2 c 1,5,-1
 873 -2 l 1,6,-1
 873 -8 l 1,7,-1
 860 -21 l 1,8,-1
 860 -48 l 2,9,10
 860 -60 860 -60 839 -117 c 0,11,12
 817 -173 817 -173 793 -213 c 128,-1,13
 769 -253 769 -253 740 -280 c 0,14,15
 717 -301 717 -301 669 -324.5 c 128,-1,16
 621 -348 621 -348 550 -377 c 0,17,18
 482 -401 482 -401 433.5 -414 c 128,-1,19
 385 -427 385 -427 355 -427 c 0,20,21
 181 -427 181 -427 100 -386 c 0,22,23
 -7 -332 -7 -332 -7 -219 c 0,24,25
 -7 -90 -7 -90 67 103 c 0,26,27
 129 258 129 258 152 258 c 1,28,-1
 103 119 l 1,29,-1
 103 118 l 1,30,-1
 82 44 l 1,31,-1
 82 40 l 1,32,33
 80 26 80 26 77.5 10.5 c 128,-1,34
 75 -5 75 -5 73 -20 c 2,35,-1
 73 -22 l 2,36,37
 73 -149 73 -149 157 -213 c 0,38,39
 197 -245 197 -245 246.5 -265 c 128,-1,40
 296 -285 296 -285 355 -286 c 0,41,42
 375 -285 375 -285 395.5 -284 c 128,-1,43
 416 -283 416 -283 436 -282 c 0,44,45
 447 -280 447 -280 459 -278 c 128,-1,46
 471 -276 471 -276 482 -274 c 0,47,48
 496 -271 496 -271 510.5 -266.5 c 128,-1,49
 525 -262 525 -262 539 -259 c 1,50,-1
 539 -258 l 1,51,52
 556 -253 556 -253 574 -247 c 128,-1,53
 592 -241 592 -241 609 -236 c 0,54,55
 678 -213 678 -213 724.5 -185 c 128,-1,56
 771 -157 771 -157 788 -127 c 1,57,-1
 788 -116 l 2,58,59
 788 -114 788 -114 789 -112.5 c 128,-1,60
 790 -111 790 -111 790 -109 c 0,61,62
 790 -87 790 -87 783.5 -53 c 128,-1,63
 777 -19 777 -19 762 32 c 0,64,65
 743 87 743 87 721 139.5 c 128,-1,66
 699 192 699 192 675 231 c 1,67,-1
 772 403 l 1,68,-1
 841 265 l 2,69,70
 866 220 866 220 887.5 194 c 128,-1,71
 909 168 909 168 929 151 c 1,72,-1
 929 146 l 1,73,-1
 1236 146 l 1,74,-1
 1236 152 l 1,75,76
 1239 155 1239 155 1242.5 158 c 128,-1,77
 1246 161 1246 161 1249 165 c 1,78,-1
 1249 178 l 2,79,80
 1251 211 1251 211 1253.5 238 c 128,-1,81
 1256 265 1256 265 1258 298 c 1,82,-1
 1350 389 l 1,83,-1
 1346 377 l 1,84,-1
 1346 375 l 1,85,86
 1333 306 1333 306 1327 262.5 c 128,-1,87
 1321 219 1321 219 1321 199 c 2,88,-1
 1321 195 l 1,89,90
 1322 190 1322 190 1322.5 184 c 128,-1,91
 1323 178 1323 178 1324 173 c 1,92,-1
 1324 159 l 1,93,-1
 1337 150 l 1,94,-1
 1337 146 l 1,95,-1
 1543 146 l 1,96,-1
 1543 152 l 1,97,98
 1546 155 1546 155 1550 158 c 128,-1,99
 1554 161 1554 161 1557 165 c 1,100,-1
 1557 199 l 2,101,102
 1556 208 1556 208 1555 217.5 c 128,-1,103
 1554 227 1554 227 1553 237 c 2,104,-1
 1553 240 l 1,105,106
 1547 261 1547 261 1542.5 276.5 c 128,-1,107
 1538 292 1538 292 1533 314 c 1,108,-1
 1634 449 l 1,109,-1
 1634 259 l 2,110,111
 1635 250 1635 250 1635.5 241 c 128,-1,112
 1636 232 1636 232 1636 224 c 0,113,114
 1636 157 1636 157 1614 102 c 128,-1,115
 1592 47 1592 47 1566 -2 c 1,116,-1
 1274 -2 l 1,0,-1
1469 743 m 1,117,-1
 1396 643 l 1,118,-1
 1282 723 l 1,119,-1
 1354 823 l 1,120,-1
 1469 743 l 1,117,-1
1210 723 m 1,121,-1
 1137 623 l 1,122,-1
 1023 704 l 1,123,-1
 1095 803 l 1,124,-1
 1210 723 l 1,121,-1
1305 931 m 1,125,-1
 1244 850 l 1,126,-1
 1148 918 l 1,127,-1
 1208 999 l 1,128,-1
 1305 931 l 1,125,-1
EndSplineSet
Substitution2: "'fina' Terminal Forms in Arabic lookup 5 subtable" sheenfinal
Substitution2: "'medi' Medial Forms in Arabic lookup 4 subtable" sheenmedial
Substitution2: "'init' Initial Forms in Arabic lookup 3 subtable" sheeninitial
Substitution2: "'isol' Isolated Forms in Arabic lookup 2 subtable" sheenisolated
AlternateSubs2: "'aalt' Access All Alternates in Latin lookup 1 subtable" sheenisolated sheeninitial sheenmedial sheenfinal
EndChar

StartChar: sad
Encoding: 1589 1589 24
Width: 2022
Flags: W
AnchorPoint: "ArabicBelow" 1011 -675 basechar 0
AnchorPoint: "ArabicAbove" 1011 794 basechar 0
LayerCount: 2
Fore
SplineSet
2030 316 m 1,0,1
 2030 317 2030 317 2026 309 c 1,2,-1
 2026 299 l 2,3,4
 2026 298 2026 298 2025.5 299 c 128,-1,5
 2025 300 2025 300 2025 299 c 1,6,7
 2023 294 2023 294 2021 287.5 c 128,-1,8
 2019 281 2019 281 2008 265 c 1,9,-1
 2008 261 l 1,10,11
 2001 242 2001 242 1993 222 c 128,-1,12
 1985 202 1985 202 1978 182 c 0,13,14
 1974 172 l 128,-1,15
 1970 162 l 1,16,-1
 1970 160 l 1,17,18
 1961 139 1961 139 1952 117 c 128,-1,19
 1943 95 1943 95 1932 71 c 1,20,-1
 1932 69 l 1,21,22
 1904 1 1904 1 1880 0 c 2,23,-1
 856 0 l 1,24,-1
 856 -46 l 2,25,26
 856 -48 856 -48 846.5 -70 c 128,-1,27
 837 -92 837 -92 819 -137 c 1,28,-1
 819 -138 l 1,29,30
 817 -142 817 -142 815.5 -146 c 128,-1,31
 814 -150 814 -150 812 -154 c 0,32,33
 795 -198 795 -198 775.5 -228 c 128,-1,34
 756 -258 756 -258 734 -282 c 0,35,36
 686 -334 686 -334 543 -386 c 0,37,38
 486 -405 486 -405 438 -415 c 128,-1,39
 390 -425 390 -425 351 -425 c 0,40,41
 270 -425 270 -425 206 -410.5 c 128,-1,42
 142 -396 142 -396 97 -369 c 0,43,44
 46 -337 46 -337 18.5 -293.5 c 128,-1,45
 -9 -250 -9 -250 -9 -199 c 0,46,47
 -9 -127 -9 -127 7.5 -53 c 128,-1,48
 24 21 24 21 60 108 c 0,49,50
 74 139 74 139 87.5 167 c 128,-1,51
 101 195 101 195 112.5 215.5 c 128,-1,52
 124 236 124 236 133.5 248 c 128,-1,53
 143 260 143 260 149 260 c 1,54,-1
 74 61 l 1,55,-1
 74 57 l 2,56,57
 72 42 72 42 70.5 28 c 128,-1,58
 69 14 69 14 69 -3 c 0,59,60
 69 -160 69 -160 203 -235 c 0,61,62
 227 -249 227 -249 249 -256.5 c 128,-1,63
 271 -264 271 -264 292 -270 c 0,64,65
 303 -273 303 -273 315.5 -276.5 c 128,-1,66
 328 -280 328 -280 339 -283 c 1,67,-1
 339 -284 l 1,68,69
 352 -284 352 -284 364 -283 c 128,-1,70
 376 -282 376 -282 389 -282 c 2,71,-1
 433 -280 l 2,72,73
 455 -276 l 128,-1,74
 477 -272 l 0,75,76
 491 -268 491 -268 506 -264 c 128,-1,77
 521 -260 521 -260 535 -257 c 1,78,-1
 535 -256 l 1,79,80
 540 -254 540 -254 545 -253 c 128,-1,81
 550 -252 550 -252 555 -250 c 2,82,83
 566 -248 566 -248 577 -244.5 c 128,-1,84
 588 -241 588 -241 599 -236 c 0,85,86
 748 -187 748 -187 784 -124 c 1,87,-1
 784 -114 l 2,88,89
 784 -112 784 -112 785 -110.5 c 128,-1,90
 786 -109 786 -109 786 -107 c 0,91,92
 786 -75 786 -75 780.5 -39.5 c 128,-1,93
 775 -4 775 -4 763 34 c 0,94,95
 724 166 724 166 673 235 c 1,96,-1
 687 261 l 1,97,-1
 767 387 l 1,98,-1
 853 236 l 1,99,-1
 853 235 l 1,100,101
 911 148 911 148 975 148 c 2,102,-1
 1007 148 l 2,103,104
 1039 148 1039 148 1078.5 161 c 128,-1,105
 1118 174 1118 174 1165 199 c 1,106,-1
 1165 200 l 1,107,108
 1217 235 1217 235 1268.5 270.5 c 128,-1,109
 1320 306 1320 306 1372 341 c 0,110,111
 1472 405 1472 405 1530.5 440.5 c 128,-1,112
 1589 476 1589 476 1606 486 c 2,113,-1
 1671 521 l 1,114,-1
 1675 521 l 1,115,-1
 1675 522 l 1,116,117
 1685 526 1685 526 1692.5 528.5 c 128,-1,118
 1700 531 1700 531 1711 535 c 1,119,-1
 1756 544 l 1,120,121
 1793 544 1793 544 1838 521 c 128,-1,122
 1883 498 1883 498 1930 456 c 0,123,124
 1978 411 1978 411 2004 375.5 c 128,-1,125
 2030 340 2030 340 2030 316 c 1,0,1
1850 174 m 1,126,127
 1868 183 1868 183 1875 222 c 1,128,-1
 1875 226 l 2,129,130
 1875 257 1875 257 1850.5 289 c 128,-1,131
 1826 321 1826 321 1779 352 c 0,132,133
 1731 383 1731 383 1692.5 400 c 128,-1,134
 1654 417 1654 417 1630 417 c 0,135,136
 1604 417 1604 417 1563.5 398 c 128,-1,137
 1523 379 1523 379 1475 350 c 0,138,139
 1446 331 1446 331 1411.5 309 c 128,-1,140
 1377 287 1377 287 1348 268 c 2,141,-1
 1239 210 l 1,142,-1
 1239 148 l 1,143,-1
 1767 148 l 1,144,145
 1771 149 1771 149 1776.5 149.5 c 128,-1,146
 1782 150 1782 150 1785 151 c 2,147,148
 1791 151 1791 151 1846 167 c 1,149,-1
 1846 171 l 1,150,-1
 1850 174 l 1,126,127
EndSplineSet
Substitution2: "'fina' Terminal Forms in Arabic lookup 5 subtable" sadfinal
Substitution2: "'medi' Medial Forms in Arabic lookup 4 subtable" sadmedial
Substitution2: "'init' Initial Forms in Arabic lookup 3 subtable" sadinitial
Substitution2: "'isol' Isolated Forms in Arabic lookup 2 subtable" sadisolated
AlternateSubs2: "'aalt' Access All Alternates in Latin lookup 1 subtable" sadisolated sadinitial sadmedial sadfinal
EndChar

StartChar: dad
Encoding: 1590 1590 25
Width: 2022
Flags: W
AnchorPoint: "ArabicBelow" 1011 -675 basechar 0
AnchorPoint: "ArabicAbove" 1011 1186 basechar 0
LayerCount: 2
Fore
SplineSet
1930 456 m 0,0,1
 1978 411 1978 411 2003.5 375.5 c 128,-1,2
 2029 340 2029 340 2030 316 c 1,3,4
 2028 316 2028 316 2025 306 c 1,5,-1
 2025 297 l 1,6,7
 2023 292 2023 292 2021 286.5 c 128,-1,8
 2019 281 2019 281 2008 266 c 1,9,-1
 2008 261 l 1,10,11
 2000 242 2000 242 1991.5 222 c 128,-1,12
 1983 202 1983 202 1975 182 c 0,13,14
 1972 174 1972 174 1969.5 165 c 128,-1,15
 1967 156 1967 156 1964 149 c 1,16,-1
 1964 148 l 1,17,18
 1951 112 1951 112 1932 71 c 1,19,-1
 1932 69 l 1,20,21
 1904 1 1904 1 1880 0 c 2,22,-1
 856 0 l 1,23,-1
 856 -46 l 2,24,25
 856 -48 856 -48 846.5 -70 c 128,-1,26
 837 -92 837 -92 819 -137 c 1,27,-1
 819 -138 l 1,28,29
 817 -142 817 -142 815.5 -146 c 128,-1,30
 814 -150 814 -150 812 -154 c 0,31,32
 795 -198 795 -198 775.5 -228 c 128,-1,33
 756 -258 756 -258 734 -282 c 0,34,35
 686 -334 686 -334 543 -386 c 0,36,37
 486 -405 486 -405 438 -415 c 128,-1,38
 390 -425 390 -425 351 -425 c 0,39,40
 270 -425 270 -425 206 -410.5 c 128,-1,41
 142 -396 142 -396 97 -369 c 0,42,43
 46 -337 46 -337 18.5 -293.5 c 128,-1,44
 -9 -250 -9 -250 -9 -199 c 0,45,46
 -9 -127 -9 -127 7.5 -53 c 128,-1,47
 24 21 24 21 60 108 c 0,48,49
 74 139 74 139 87.5 167 c 128,-1,50
 101 195 101 195 112.5 215.5 c 128,-1,51
 124 236 124 236 133.5 248 c 128,-1,52
 143 260 143 260 149 260 c 1,53,-1
 73 61 l 1,54,-1
 73 57 l 2,55,56
 71 42 71 42 70 28 c 128,-1,57
 69 14 69 14 69 -3 c 0,58,59
 69 -160 69 -160 203 -235 c 0,60,61
 228 -249 228 -249 249.5 -257 c 128,-1,62
 271 -265 271 -265 292 -270 c 1,63,-1
 292 -271 l 1,64,65
 303 -273 303 -273 315.5 -276.5 c 128,-1,66
 328 -280 328 -280 339 -282 c 1,67,-1
 409 -282 l 1,68,-1
 433 -280 l 2,69,70
 455 -276 l 128,-1,71
 477 -272 l 0,72,73
 491 -268 491 -268 506 -264 c 128,-1,74
 521 -260 521 -260 535 -257 c 1,75,-1
 535 -256 l 1,76,77
 540 -254 540 -254 545 -253 c 128,-1,78
 550 -252 550 -252 555 -250 c 2,79,80
 566 -248 566 -248 577 -244.5 c 128,-1,81
 588 -241 588 -241 599 -236 c 0,82,83
 748 -187 748 -187 784 -124 c 1,84,-1
 784 -114 l 2,85,86
 784 -112 784 -112 785 -110.5 c 128,-1,87
 786 -109 786 -109 786 -107 c 0,88,89
 786 -75 786 -75 780.5 -39.5 c 128,-1,90
 775 -4 775 -4 763 34 c 0,91,92
 724 166 724 166 673 235 c 1,93,-1
 687 261 l 1,94,-1
 767 387 l 1,95,-1
 853 236 l 1,96,-1
 853 235 l 1,97,98
 911 148 911 148 975 148 c 2,99,-1
 1007 148 l 2,100,101
 1039 148 1039 148 1078.5 161 c 128,-1,102
 1118 174 1118 174 1165 199 c 1,103,-1
 1165 200 l 1,104,-1
 1536 440 l 1,105,-1
 1536 441 l 1,106,107
 1566 464 1566 464 1599 483 c 128,-1,108
 1632 502 1632 502 1664 517 c 2,109,-1
 1711 535 l 1,110,-1
 1756 544 l 1,111,112
 1793 544 1793 544 1838 521 c 128,-1,113
 1883 498 1883 498 1930 456 c 0,0,1
1803 154 m 0,114,115
 1816 156 1816 156 1827 160.5 c 128,-1,116
 1838 165 1838 165 1851 175 c 2,117,-1
 1855 178 l 1,118,-1
 1855 176 l 1,119,120
 1862 181 1862 181 1866.5 192 c 128,-1,121
 1871 203 1871 203 1875 220 c 1,122,-1
 1875 224 l 2,123,124
 1875 255 1875 255 1850.5 287.5 c 128,-1,125
 1826 320 1826 320 1779 352 c 0,126,127
 1731 383 1731 383 1692.5 400 c 128,-1,128
 1654 417 1654 417 1630 417 c 0,129,130
 1604 417 1604 417 1563.5 398 c 128,-1,131
 1523 379 1523 379 1475 350 c 0,132,133
 1446 331 1446 331 1411.5 309 c 128,-1,134
 1377 287 1377 287 1348 268 c 2,135,-1
 1239 210 l 1,136,-1
 1239 148 l 1,137,-1
 1767 148 l 1,138,-1
 1785 150 l 2,139,140
 1793 152 1793 152 1796 153 c 2,141,142
 1797 153 1797 153 1799.5 153.5 c 128,-1,143
 1802 154 1802 154 1803 154 c 0,114,115
1524 856 m 1,144,-1
 1451 756 l 1,145,-1
 1337 836 l 1,146,-1
 1409 936 l 1,147,-1
 1524 856 l 1,144,-1
1855 214 m 1,148,149
 1856 214 1856 214 1856.5 215 c 128,-1,150
 1857 216 1857 216 1858 216 c 1,151,-1
 1858 181 l 1,152,-1
 1855 178 l 1,153,-1
 1855 214 l 1,148,149
EndSplineSet
Substitution2: "'fina' Terminal Forms in Arabic lookup 5 subtable" dadfinal
Substitution2: "'medi' Medial Forms in Arabic lookup 4 subtable" dadmedial
Substitution2: "'init' Initial Forms in Arabic lookup 3 subtable" dadinitial
Substitution2: "'isol' Isolated Forms in Arabic lookup 2 subtable" dadisolated
AlternateSubs2: "'aalt' Access All Alternates in Latin lookup 1 subtable" dadisolated dadinitial dadmedial dadfinal
EndChar

StartChar: tah
Encoding: 1591 1591 26
Width: 1560
Flags: W
AnchorPoint: "ArabicBelow" 780 -250 basechar 0
AnchorPoint: "ArabicAbove" 780 1288 basechar 0
LayerCount: 2
Fore
SplineSet
120 420 m 1,0,1
 119 420 119 420 118.5 419.5 c 128,-1,2
 118 419 118 419 117 419 c 1,3,-1
 120 428 l 1,4,-1
 120 420 l 1,0,1
1356 206 m 2,5,6
 1356 259 1356 259 1301 315 c 0,7,8
 1224 393 1224 393 1141 393 c 0,9,10
 1094 393 1094 393 1034 377 c 0,11,12
 981 362 981 362 911 326 c 1,13,-1
 911 325 l 1,14,15
 813 267 l 128,-1,16
 715 209 l 1,17,-1
 715 191 l 2,18,19
 715 186 715 186 714.5 180 c 128,-1,20
 714 174 714 174 714 169 c 2,21,-1
 714 148 l 1,22,-1
 1293 148 l 2,23,24
 1316 148 1316 148 1337 156 c 0,25,26
 1348 162 1348 162 1356 202 c 1,27,-1
 1356 206 l 2,5,6
1493 207 m 1,28,-1
 1463 140 l 2,29,30
 1432 68 1432 68 1406.5 34.5 c 128,-1,31
 1381 1 1381 1 1367 0 c 2,32,-1
 249 0 l 2,33,34
 147 0 147 0 92 48 c 0,35,36
 27 102 27 102 27 171 c 0,37,38
 27 194 27 194 28 207.5 c 128,-1,39
 29 221 29 221 30 230 c 2,40,-1
 30 232 l 2,41,42
 30 236 30 236 30.5 236 c 128,-1,43
 31 236 31 236 31 239 c 1,44,45
 32 241 32 241 32 244 c 0,46,47
 32 248 32 248 33 251 c 1,48,-1
 33 252 l 1,49,50
 35 260 35 260 37.5 273 c 128,-1,51
 40 286 40 286 47 307 c 2,52,-1
 63 352 l 2,53,54
 74 383 74 383 88 399.5 c 128,-1,55
 102 416 102 416 117 419 c 1,56,57
 99 353 99 353 96 316 c 2,58,-1
 96 314 l 2,59,60
 96 238 96 238 137 194 c 1,61,-1
 137 193 l 1,62,63
 191 148 191 148 256 148 c 2,64,-1
 499 148 l 2,65,66
 517 148 517 148 553 171 c 1,67,-1
 553 172 l 1,68,69
 567 183 567 183 578 202 c 128,-1,70
 589 221 589 221 595 250 c 1,71,-1
 595 254 l 2,72,73
 595 285 595 285 586 363 c 2,74,-1
 586 364 l 1,75,76
 570 469 570 469 554 573.5 c 128,-1,77
 538 678 538 678 523 783 c 1,78,-1
 523 784 l 1,79,80
 518 816 518 816 510 844.5 c 128,-1,81
 502 873 502 873 491 899 c 1,82,83
 499 915 499 915 512 949.5 c 128,-1,84
 525 984 525 984 545 1038 c 1,85,86
 591 988 591 988 638 946.5 c 128,-1,87
 685 905 685 905 735 867 c 1,88,-1
 682 741 l 1,89,-1
 638 745 l 1,90,-1
 638 721 l 1,91,92
 642 694 642 694 646.5 667 c 128,-1,93
 651 640 651 640 656 613 c 0,94,95
 664 563 664 563 668.5 532 c 128,-1,96
 673 501 673 501 674 493 c 0,97,98
 674 491 674 491 674.5 489.5 c 128,-1,99
 675 488 675 488 675 486 c 2,100,-1
 675 483 l 1,101,102
 676 476 676 476 676 471 c 256,103,104
 676 461 l 0,105,106
 676 450 676 450 673 431 c 128,-1,107
 670 412 670 412 665 385 c 0,108,109
 663 377 663 377 662.5 371.5 c 128,-1,110
 662 366 662 366 660 360 c 1,111,-1
 660 359 l 1,112,113
 658 345 658 345 654.5 332 c 128,-1,114
 651 319 651 319 647 308 c 0,115,116
 643 294 643 294 639.5 281.5 c 128,-1,117
 636 269 636 269 632 258 c 1,118,-1
 632 240 l 1,119,120
 635 236 635 236 638.5 231.5 c 128,-1,121
 642 227 642 227 645 223 c 1,122,-1
 645 215 l 1,123,124
 654 216 654 216 681 234 c 0,125,126
 693 242 693 242 706.5 249.5 c 128,-1,127
 720 257 720 257 732 265 c 0,128,129
 769 290 769 290 801.5 310.5 c 128,-1,130
 834 331 834 331 858 346 c 0,131,132
 881 359 881 359 899 369.5 c 128,-1,133
 917 380 917 380 932 387 c 2,134,-1
 1077 457 l 2,135,136
 1137 486 1137 486 1185 501 c 128,-1,137
 1233 516 1233 516 1258 516 c 0,138,139
 1275 516 1275 516 1293 511.5 c 128,-1,140
 1311 507 1311 507 1327 499 c 0,141,142
 1350 486 1350 486 1373 471.5 c 128,-1,143
 1396 457 1396 457 1418 441 c 0,144,145
 1532 352 1532 352 1532 296 c 1,146,-1
 1493 207 l 1,28,-1
EndSplineSet
Substitution2: "'fina' Terminal Forms in Arabic lookup 5 subtable" tahfinal
Substitution2: "'medi' Medial Forms in Arabic lookup 4 subtable" tahmedial
Substitution2: "'init' Initial Forms in Arabic lookup 3 subtable" tahinitial
Substitution2: "'isol' Isolated Forms in Arabic lookup 2 subtable" tahisolated
AlternateSubs2: "'aalt' Access All Alternates in Latin lookup 1 subtable" tahisolated tahinitial tahmedial tahfinal
EndChar

StartChar: zah
Encoding: 1592 1592 27
Width: 1560
Flags: W
AnchorPoint: "ArabicBelow" 780 -250 basechar 0
AnchorPoint: "ArabicAbove" 780 1288 basechar 0
LayerCount: 2
Fore
SplineSet
120 420 m 1,0,1
 119 420 119 420 118.5 419.5 c 128,-1,2
 118 419 118 419 117 419 c 1,3,-1
 120 428 l 1,4,-1
 120 420 l 1,0,1
1172 813 m 1,5,6
 1149 782 1149 782 1125.5 750.5 c 128,-1,7
 1102 719 1102 719 1079 688 c 1,8,-1
 1079 684 l 1,9,10
 1047 707 1047 707 1015.5 730 c 128,-1,11
 984 753 984 753 952 776 c 1,12,-1
 952 804 l 1,13,14
 975 836 975 836 996.5 867 c 128,-1,15
 1018 898 1018 898 1041 929 c 1,16,-1
 1041 933 l 1,17,-1
 1172 841 l 1,18,-1
 1172 813 l 1,5,6
1356 206 m 2,19,20
 1356 259 1356 259 1301 315 c 0,21,22
 1224 393 1224 393 1141 393 c 0,23,24
 1094 393 1094 393 1034 377 c 0,25,26
 981 362 981 362 911 326 c 1,27,-1
 911 325 l 1,28,29
 813 267 l 128,-1,30
 715 209 l 1,31,-1
 715 191 l 2,32,33
 715 186 715 186 714.5 180 c 128,-1,34
 714 174 714 174 714 169 c 2,35,-1
 714 148 l 1,36,-1
 1293 148 l 2,37,38
 1316 148 1316 148 1337 156 c 0,39,40
 1348 162 1348 162 1356 202 c 1,41,-1
 1356 206 l 2,19,20
1493 207 m 1,42,-1
 1463 140 l 2,43,44
 1432 68 1432 68 1406.5 34.5 c 128,-1,45
 1381 1 1381 1 1367 0 c 2,46,-1
 249 0 l 2,47,48
 147 0 147 0 92 48 c 0,49,50
 27 102 27 102 27 171 c 0,51,52
 27 194 27 194 28 207.5 c 128,-1,53
 29 221 29 221 30 230 c 2,54,-1
 30 232 l 2,55,56
 30 236 30 236 30.5 236 c 128,-1,57
 31 236 31 236 31 239 c 1,58,59
 32 241 32 241 32 244 c 0,60,61
 32 248 32 248 33 251 c 1,62,-1
 33 252 l 1,63,64
 35 260 35 260 37.5 273 c 128,-1,65
 40 286 40 286 47 307 c 2,66,-1
 63 352 l 2,67,68
 74 383 74 383 88 399.5 c 128,-1,69
 102 416 102 416 117 419 c 1,70,71
 99 353 99 353 96 316 c 2,72,-1
 96 314 l 2,73,74
 96 238 96 238 137 194 c 1,75,-1
 137 193 l 1,76,77
 191 148 191 148 256 148 c 2,78,-1
 499 148 l 2,79,80
 517 148 517 148 553 171 c 1,81,-1
 553 172 l 1,82,83
 567 183 567 183 578 202 c 128,-1,84
 589 221 589 221 595 250 c 1,85,-1
 595 254 l 2,86,87
 595 285 595 285 586 363 c 2,88,-1
 586 364 l 1,89,90
 570 469 570 469 554 573.5 c 128,-1,91
 538 678 538 678 523 783 c 1,92,-1
 523 784 l 1,93,94
 518 816 518 816 510 844.5 c 128,-1,95
 502 873 502 873 491 899 c 1,96,97
 499 915 499 915 512 949.5 c 128,-1,98
 525 984 525 984 545 1038 c 1,99,100
 591 988 591 988 638 946.5 c 128,-1,101
 685 905 685 905 735 867 c 1,102,-1
 682 741 l 1,103,-1
 638 745 l 1,104,-1
 638 721 l 1,105,106
 642 694 642 694 646.5 667 c 128,-1,107
 651 640 651 640 656 613 c 0,108,109
 664 563 664 563 668.5 532 c 128,-1,110
 673 501 673 501 674 493 c 0,111,112
 674 491 674 491 674.5 489.5 c 128,-1,113
 675 488 675 488 675 486 c 2,114,-1
 675 483 l 1,115,116
 676 476 676 476 676 471 c 256,117,118
 676 461 l 0,119,120
 676 450 676 450 673 431 c 128,-1,121
 670 412 670 412 665 385 c 0,122,123
 663 377 663 377 662.5 371.5 c 128,-1,124
 662 366 662 366 660 360 c 1,125,-1
 660 359 l 1,126,127
 658 345 658 345 654.5 332 c 128,-1,128
 651 319 651 319 647 308 c 0,129,130
 643 294 643 294 639.5 281.5 c 128,-1,131
 636 269 636 269 632 258 c 1,132,-1
 632 240 l 1,133,134
 635 236 635 236 638.5 231.5 c 128,-1,135
 642 227 642 227 645 223 c 1,136,-1
 645 215 l 1,137,138
 654 216 654 216 681 234 c 0,139,140
 693 242 693 242 706.5 249.5 c 128,-1,141
 720 257 720 257 732 265 c 0,142,143
 769 290 769 290 801.5 310.5 c 128,-1,144
 834 331 834 331 858 346 c 0,145,146
 881 359 881 359 899 369.5 c 128,-1,147
 917 380 917 380 932 387 c 2,148,-1
 1077 457 l 2,149,150
 1137 486 1137 486 1185 501 c 128,-1,151
 1233 516 1233 516 1258 516 c 0,152,153
 1275 516 1275 516 1293 511.5 c 128,-1,154
 1311 507 1311 507 1327 499 c 0,155,156
 1350 486 1350 486 1373 471.5 c 128,-1,157
 1396 457 1396 457 1418 441 c 0,158,159
 1532 352 1532 352 1532 296 c 1,160,-1
 1493 207 l 1,42,-1
EndSplineSet
Substitution2: "'fina' Terminal Forms in Arabic lookup 5 subtable" zahfinal
Substitution2: "'medi' Medial Forms in Arabic lookup 4 subtable" zahmedial
Substitution2: "'init' Initial Forms in Arabic lookup 3 subtable" zahinitial
Substitution2: "'isol' Isolated Forms in Arabic lookup 2 subtable" zahisolated
AlternateSubs2: "'aalt' Access All Alternates in Latin lookup 1 subtable" zahisolated zahinitial zahmedial zahfinal
EndChar

StartChar: ain
Encoding: 1593 1593 28
Width: 753
Flags: W
AnchorPoint: "ArabicBelow" 376 -965 basechar 0
AnchorPoint: "ArabicAbove" 376 897 basechar 0
LayerCount: 2
Fore
SplineSet
138 -518 m 0,0,1
 214 -560 214 -560 343 -582 c 128,-1,2
 472 -604 472 -604 655 -604 c 2,3,-1
 787 -604 l 1,4,5
 770 -615 770 -615 751 -626 c 128,-1,6
 732 -637 732 -637 706 -648 c 0,7,8
 678 -660 678 -660 637 -672 c 128,-1,9
 596 -684 596 -684 546 -694 c 0,10,11
 498 -705 498 -705 451 -710 c 128,-1,12
 404 -715 404 -715 351 -715 c 0,13,14
 119 -715 119 -715 18 -643 c 0,15,16
 -78 -571 -78 -571 -78 -434 c 0,17,18
 -78 -357 -78 -357 -62.5 -285 c 128,-1,19
 -47 -213 -47 -213 -11 -132 c 0,20,21
 34 -31 34 -31 101 31 c 1,22,-1
 101 83 l 1,23,24
 78 97 78 97 65 102 c 0,25,26
 51 109 51 109 42 114 c 128,-1,27
 33 119 33 119 25 124.5 c 128,-1,28
 17 130 17 130 8.5 137.5 c 128,-1,29
 0 145 0 145 -13 157 c 1,30,-1
 -13 158 l 1,31,32
 -86 228 -86 228 -86 283 c 0,33,34
 -86 306 -86 306 -62 355 c 128,-1,35
 -38 404 -38 404 8 477 c 0,36,37
 59 556 59 556 114 601.5 c 128,-1,38
 169 647 169 647 221 647 c 0,39,40
 243 647 243 647 277 630.5 c 128,-1,41
 311 614 311 614 370 566 c 0,42,43
 389 549 389 549 404 541 c 1,44,-1
 381 545 l 2,45,46
 355 547 l 128,-1,47
 329 549 l 2,48,-1
 292 549 l 2,49,50
 269 547 269 547 241 543.5 c 128,-1,51
 213 540 213 540 179 532 c 0,52,53
 150 526 150 526 125 517 c 128,-1,54
 100 508 100 508 79 497 c 0,55,56
 42 479 42 479 36 423 c 2,57,-1
 36 414 l 2,58,59
 36 394 36 394 40 376 c 128,-1,60
 44 358 44 358 49 344 c 0,61,62
 74 292 74 292 123.5 260 c 128,-1,63
 173 228 173 228 237 228 c 0,64,65
 266 228 266 228 297.5 235.5 c 128,-1,66
 329 243 329 243 377 259 c 0,67,68
 415 273 415 273 455 288 c 128,-1,69
 495 303 495 303 533 317 c 2,70,-1
 582 331 l 1,71,-1
 540 224 l 1,72,73
 459 198 459 198 378.5 157.5 c 128,-1,74
 298 117 298 117 218 57 c 0,75,76
 11 -99 11 -99 11 -296 c 0,77,78
 11 -370 11 -370 44 -426 c 128,-1,79
 77 -482 77 -482 138 -518 c 0,0,1
EndSplineSet
Substitution2: "'fina' Terminal Forms in Arabic lookup 5 subtable" ainfinal
Substitution2: "'medi' Medial Forms in Arabic lookup 4 subtable" ainmedial
Substitution2: "'init' Initial Forms in Arabic lookup 3 subtable" aininitial
Substitution2: "'isol' Isolated Forms in Arabic lookup 2 subtable" ainisolated
AlternateSubs2: "'aalt' Access All Alternates in Latin lookup 1 subtable" ainisolated aininitial ainmedial ainfinal
EndChar

StartChar: ghain
Encoding: 1594 1594 29
Width: 753
Flags: W
AnchorPoint: "ArabicBelow" 376 -965 basechar 0
AnchorPoint: "ArabicAbove" 376 1257 basechar 0
LayerCount: 2
Fore
SplineSet
212 831 m 1,0,-1
 106 910 l 1,1,-1
 176 1007 l 1,2,-1
 285 928 l 1,3,-1
 212 831 l 1,0,-1
138 -518 m 0,4,5
 214 -560 214 -560 343 -582 c 128,-1,6
 472 -604 472 -604 655 -604 c 2,7,-1
 787 -604 l 1,8,9
 770 -615 770 -615 751 -626 c 128,-1,10
 732 -637 732 -637 706 -648 c 0,11,12
 678 -660 678 -660 637 -672 c 128,-1,13
 596 -684 596 -684 546 -694 c 0,14,15
 498 -705 498 -705 451 -710 c 128,-1,16
 404 -715 404 -715 351 -715 c 0,17,18
 119 -715 119 -715 18 -643 c 0,19,20
 -78 -571 -78 -571 -78 -434 c 0,21,22
 -78 -357 -78 -357 -62.5 -285 c 128,-1,23
 -47 -213 -47 -213 -11 -132 c 0,24,25
 34 -31 34 -31 101 31 c 1,26,-1
 101 83 l 1,27,28
 78 97 78 97 65 102 c 0,29,30
 51 109 51 109 42 114 c 128,-1,31
 33 119 33 119 25 124.5 c 128,-1,32
 17 130 17 130 8.5 137.5 c 128,-1,33
 0 145 0 145 -13 157 c 1,34,-1
 -13 158 l 1,35,36
 -86 228 -86 228 -86 283 c 0,37,38
 -86 306 -86 306 -62 355 c 128,-1,39
 -38 404 -38 404 8 477 c 0,40,41
 59 556 59 556 114 601.5 c 128,-1,42
 169 647 169 647 221 647 c 0,43,44
 243 647 243 647 277 630.5 c 128,-1,45
 311 614 311 614 370 566 c 0,46,47
 389 549 389 549 404 541 c 1,48,-1
 381 545 l 2,49,50
 355 547 l 128,-1,51
 329 549 l 2,52,-1
 292 549 l 2,53,54
 269 547 269 547 241 543.5 c 128,-1,55
 213 540 213 540 179 532 c 0,56,57
 150 526 150 526 125 517 c 128,-1,58
 100 508 100 508 79 497 c 0,59,60
 42 479 42 479 36 423 c 2,61,-1
 36 414 l 2,62,63
 36 394 36 394 40 376 c 128,-1,64
 44 358 44 358 49 344 c 0,65,66
 74 292 74 292 123.5 260 c 128,-1,67
 173 228 173 228 237 228 c 0,68,69
 266 228 266 228 297.5 235.5 c 128,-1,70
 329 243 329 243 377 259 c 0,71,72
 415 273 415 273 455 288 c 128,-1,73
 495 303 495 303 533 317 c 2,74,-1
 582 331 l 1,75,-1
 540 224 l 1,76,77
 459 198 459 198 378.5 157.5 c 128,-1,78
 298 117 298 117 218 57 c 0,79,80
 11 -99 11 -99 11 -296 c 0,81,82
 11 -370 11 -370 44 -426 c 128,-1,83
 77 -482 77 -482 138 -518 c 0,4,5
EndSplineSet
Substitution2: "'fina' Terminal Forms in Arabic lookup 5 subtable" ghainfinal
Substitution2: "'medi' Medial Forms in Arabic lookup 4 subtable" ghainmedial
Substitution2: "'init' Initial Forms in Arabic lookup 3 subtable" ghaininitial
Substitution2: "'isol' Isolated Forms in Arabic lookup 2 subtable" ghainisolated
AlternateSubs2: "'aalt' Access All Alternates in Latin lookup 1 subtable" ghainisolated ghaininitial ghainmedial ghainfinal
EndChar

StartChar: tatweel
Encoding: 1600 1600 30
Width: 193
Flags: W
LayerCount: 2
Fore
SplineSet
201 -2 m 1,0,-1
 -8 -2 l 1,1,-1
 -8 146 l 1,2,-1
 201 146 l 1,3,-1
 201 -2 l 1,0,-1
EndSplineSet
EndChar

StartChar: feh
Encoding: 1601 1601 31
Width: 1400
Flags: W
AnchorPoint: "ArabicBelow" 700 -250 basechar 0
AnchorPoint: "ArabicAbove" 700 1302 basechar 0
LayerCount: 2
Fore
SplineSet
1351 0 m 1,0,-1
 256 0 l 2,1,2
 193 0 193 0 147 14.5 c 128,-1,3
 101 29 101 29 70 58 c 0,4,5
 8 123 8 123 8 221 c 0,6,7
 8 285 8 285 40 401 c 0,8,9
 53 447 53 447 65 471.5 c 128,-1,10
 77 496 77 496 91 496 c 1,11,-1
 82 466 l 2,12,13
 65 419 65 419 65 370 c 0,14,15
 65 279 65 279 121 217 c 0,16,17
 182 148 182 148 261 148 c 2,18,-1
 1301 148 l 1,19,-1
 1301 170 l 2,20,21
 1300 184 1300 184 1299.5 199.5 c 128,-1,22
 1299 215 1299 215 1298 232 c 1,23,-1
 1288 276 l 2,24,25
 1269 383 1269 383 1235 414 c 1,26,27
 1232 418 1232 418 1228 420.5 c 128,-1,28
 1224 423 1224 423 1221 425 c 1,29,30
 1211 427 1211 427 1204 415 c 1,31,-1
 1129 336 l 1,32,33
 1080 308 1080 308 996 308 c 0,34,35
 927 308 927 308 869 347 c 0,36,37
 809 386 809 386 809 418 c 0,38,39
 809 449 809 449 838 498.5 c 128,-1,40
 867 548 867 548 920 610 c 0,41,42
 977 675 977 675 1037.5 711 c 128,-1,43
 1098 747 1098 747 1155 747 c 0,44,45
 1231 747 1231 747 1307 590 c 0,46,47
 1392 416 1392 416 1392 267 c 2,48,-1
 1374 138 l 1,49,-1
 1351 0 l 1,0,-1
1195 493 m 1,50,51
 1184 510 1184 510 1171 528 c 128,-1,52
 1158 546 1158 546 1145.5 561.5 c 128,-1,53
 1133 577 1133 577 1121.5 589 c 128,-1,54
 1110 601 1110 601 1101 607 c 0,55,56
 1078 623 1078 623 1062 631 c 128,-1,57
 1046 639 1046 639 1032 641 c 1,58,59
 1018 641 1018 641 1005 635 c 128,-1,60
 992 629 992 629 967 607 c 0,61,62
 956 596 956 596 945.5 584 c 128,-1,63
 935 572 935 572 924 559 c 0,64,65
 913 543 913 543 912 529 c 128,-1,66
 911 515 911 515 930 494 c 1,67,68
 941 487 941 487 951 479.5 c 128,-1,69
 961 472 961 472 972 465 c 0,70,71
 986 455 986 455 999 447 c 128,-1,72
 1012 439 1012 439 1020 435 c 0,73,74
 1023 434 1023 434 1027.5 433.5 c 128,-1,75
 1032 433 1032 433 1040 432 c 128,-1,76
 1048 431 1048 431 1061.5 430.5 c 128,-1,77
 1075 430 1075 430 1097 429 c 1,78,79
 1112 431 1112 431 1131.5 433.5 c 128,-1,80
 1151 436 1151 436 1185 441 c 1,81,-1
 1195 454 l 1,82,-1
 1195 493 l 1,50,51
928 866 m 1,83,-1
 824 957 l 1,84,-1
 923 1052 l 1,85,-1
 1030 958 l 1,86,-1
 928 866 l 1,83,-1
1204 415 m 1,87,-1
 1204 413 l 1,88,-1
 1204 415 l 1,87,-1
EndSplineSet
Substitution2: "'fina' Terminal Forms in Arabic lookup 5 subtable" fehfinal
Substitution2: "'medi' Medial Forms in Arabic lookup 4 subtable" fehmedial
Substitution2: "'init' Initial Forms in Arabic lookup 3 subtable" fehinitial
Substitution2: "'isol' Isolated Forms in Arabic lookup 2 subtable" fehisolated
AlternateSubs2: "'aalt' Access All Alternates in Latin lookup 1 subtable" fehisolated fehinitial fehmedial fehfinal
EndChar

StartChar: qaf
Encoding: 1602 1602 32
Width: 1028
Flags: W
AnchorPoint: "ArabicBelow" 514 -652 basechar 0
AnchorPoint: "ArabicAbove" 514 1210 basechar 0
LayerCount: 2
Fore
SplineSet
970 -99 m 2,0,1
 961 -128 961 -128 953 -152.5 c 128,-1,2
 945 -177 945 -177 939 -187 c 1,3,4
 919 -209 919 -209 863.5 -240.5 c 128,-1,5
 808 -272 808 -272 730 -307 c 0,6,7
 683 -327 683 -327 633 -347 c 128,-1,8
 583 -367 583 -367 532 -378 c 2,9,-1
 477 -389 l 1,10,-1
 426 -396 l 2,11,12
 408 -399 408 -399 388 -400.5 c 128,-1,13
 368 -402 368 -402 348 -402 c 0,14,15
 178 -402 178 -402 94 -327 c 0,16,17
 56 -292 56 -292 35.5 -246.5 c 128,-1,18
 15 -201 15 -201 15 -145 c 0,19,20
 15 -87 15 -87 30.5 -14.5 c 128,-1,21
 46 58 46 58 81 143 c 1,22,-1
 81 144 l 1,23,24
 132 281 132 281 166 290 c 1,25,26
 165 288 165 288 164 285.5 c 128,-1,27
 163 283 163 283 162 280 c 1,28,-1
 162 279 l 1,29,30
 148 233 148 233 132 187.5 c 128,-1,31
 116 142 116 142 102 97 c 0,32,33
 96 78 96 78 93.5 58.5 c 128,-1,34
 91 39 91 39 91 19 c 0,35,36
 91 -129 91 -129 204 -200 c 1,37,-1
 204 -201 l 1,38,39
 249 -224 249 -224 295.5 -236.5 c 128,-1,40
 342 -249 342 -249 391 -249 c 0,41,42
 470 -249 470 -249 546.5 -238 c 128,-1,43
 623 -227 623 -227 700 -204 c 0,44,45
 848 -159 848 -159 931 -79 c 1,46,-1
 931 -71 l 1,47,48
 932 -69 932 -69 933 -66 c 128,-1,49
 934 -63 934 -63 935 -61 c 1,50,-1
 935 -52 l 2,51,52
 933 -32 933 -32 929.5 -9.5 c 128,-1,53
 926 13 926 13 923 36 c 1,54,55
 915 59 915 59 911.5 84.5 c 128,-1,56
 908 110 908 110 894 129 c 1,57,58
 886 151 886 151 882 160 c 128,-1,59
 878 169 878 169 875 179 c 1,60,61
 870 179 870 179 865 178.5 c 128,-1,62
 860 178 860 178 855 178 c 1,63,-1
 855 168 l 1,64,65
 850 159 850 159 839.5 148.5 c 128,-1,66
 829 138 829 138 819 130 c 0,67,68
 793 110 793 110 754.5 98.5 c 128,-1,69
 716 87 716 87 668 87 c 0,70,71
 600 87 600 87 544 126 c 0,72,73
 487 166 487 166 487 205 c 0,74,75
 487 243 487 243 507 299.5 c 128,-1,76
 527 356 527 356 571 434 c 0,77,78
 655 586 655 586 753 586 c 0,79,80
 787 586 787 586 807 574 c 1,81,-1
 807 573 l 1,82,83
 821 565 821 565 836 552.5 c 128,-1,84
 851 540 851 540 865 524 c 0,85,86
 929 440 929 440 977 280 c 2,87,-1
 1006 159 l 1,88,-1
 1012 74 l 1,89,-1
 1010 44 l 1,90,-1
 970 -99 l 2,0,1
830 293 m 1,91,92
 824 313 824 313 816 327.5 c 128,-1,93
 808 342 808 342 800 356 c 0,94,95
 788 377 788 377 776.5 392 c 128,-1,96
 765 407 765 407 754 417 c 0,97,98
 709 466 709 466 692 466 c 0,99,100
 678 466 678 466 665.5 458 c 128,-1,101
 653 450 653 450 642 437 c 128,-1,102
 631 424 631 424 620 407.5 c 128,-1,103
 609 391 609 391 598 374 c 1,104,105
 596 369 596 369 590.5 355 c 128,-1,106
 585 341 585 341 589 318 c 1,107,108
 616 286 616 286 638.5 268.5 c 128,-1,109
 661 251 661 251 690 241 c 0,110,111
 693 240 693 240 697 240 c 256,112,113
 701 240 701 240 711 240 c 0,114,115
 722 240 722 240 741 240 c 256,116,117
 760 240 760 240 794 240 c 1,118,119
 796 242 796 242 803 242 c 1,120,121
 802 242 802 242 806 244.5 c 128,-1,122
 810 247 810 247 825 255 c 1,123,124
 826 268 826 268 827.5 273.5 c 128,-1,125
 829 279 829 279 830 282 c 1,126,-1
 830 293 l 1,91,92
629 860 m 1,127,-1
 556 760 l 1,128,-1
 442 840 l 1,129,-1
 514 940 l 1,130,-1
 629 860 l 1,127,-1
888 880 m 1,131,-1
 815 780 l 1,132,-1
 701 860 l 1,133,-1
 773 960 l 1,134,-1
 888 880 l 1,131,-1
170 291 m 1,135,136
 167 291 167 291 166 290 c 1,137,138
 171 303 171 303 171 292 c 1,139,140
 170 293 170 293 170 291 c 1,135,136
EndSplineSet
Substitution2: "'fina' Terminal Forms in Arabic lookup 5 subtable" qaffinal
Substitution2: "'medi' Medial Forms in Arabic lookup 4 subtable" qafmedial
Substitution2: "'init' Initial Forms in Arabic lookup 3 subtable" qafinitial
Substitution2: "'isol' Isolated Forms in Arabic lookup 2 subtable" qafisolated
AlternateSubs2: "'aalt' Access All Alternates in Latin lookup 1 subtable" qafisolated qafinitial qafmedial qaffinal
EndChar

StartChar: arabickaf
Encoding: 1603 1603 33
Width: 1353
Flags: W
AnchorPoint: "ArabicBelow" 676 -250 basechar 0
AnchorPoint: "ArabicAbove" 676 1244 basechar 0
LayerCount: 2
Fore
SplineSet
1230 361 m 1,0,-1
 1230 360 l 2,1,2
 1241 276 1241 276 1244.5 222 c 128,-1,3
 1248 168 1248 168 1248 140 c 2,4,-1
 1248 30 l 2,5,6
 1248 0 1248 0 1209 0 c 2,7,-1
 326 0 l 2,8,9
 227 0 227 0 163 34 c 128,-1,10
 99 68 99 68 73 129 c 0,11,12
 55 172 55 172 55 221 c 0,13,14
 55 257 55 257 61 298 c 0,15,16
 64 315 64 315 71 341.5 c 128,-1,17
 78 368 78 368 87 397 c 0,18,19
 109 477 109 477 145 485 c 1,20,-1
 130 442 l 2,21,22
 128 434 128 434 126 425.5 c 128,-1,23
 124 417 124 417 122 409 c 1,24,25
 121 399 121 399 120.5 390 c 128,-1,26
 120 381 120 381 119 372 c 0,27,28
 119 330 119 330 133.5 291.5 c 128,-1,29
 148 253 148 253 178 220 c 0,30,31
 242 148 242 148 336 148 c 2,32,-1
 1121 148 l 1,33,-1
 1121 151 l 1,34,35
 1143 164 1143 164 1143 230 c 0,36,37
 1143 273 1143 273 1139.5 320 c 128,-1,38
 1136 367 1136 367 1129 420 c 2,39,-1
 1129 421 l 1,40,41
 1128 425 1128 425 1128 427 c 0,42,43
 1128 430 1128 430 1127 434 c 0,44,45
 1119 483 1119 483 1112 526 c 128,-1,46
 1105 569 1105 569 1097 604 c 0,47,48
 1089 667 1089 667 1076 729.5 c 128,-1,49
 1063 792 1063 792 1045 855 c 1,50,51
 1055 872 1055 872 1070.5 906.5 c 128,-1,52
 1086 941 1086 941 1108 994 c 1,53,54
 1200 890 1200 890 1289 817 c 1,55,-1
 1230 690 l 1,56,-1
 1185 697 l 1,57,-1
 1185 673 l 1,58,59
 1194 632 1194 632 1199.5 595.5 c 128,-1,60
 1205 559 1205 559 1209 524 c 2,61,-1
 1209 523 l 1,62,-1
 1230 361 l 1,0,-1
832 493 m 1,63,-1
 675 493 l 1,64,-1
 625 504 l 2,65,66
 591 511 591 511 591 529 c 1,67,-1
 593 538 l 1,68,69
 612 580 612 580 673 580 c 0,70,71
 713 580 713 580 730 548 c 1,72,73
 737 555 737 555 743 568 c 1,74,75
 747 572 747 572 750 582 c 2,76,-1
 755 597 l 1,77,78
 751 613 751 613 740 623.5 c 128,-1,79
 729 634 729 634 712 634 c 0,80,81
 646 634 646 634 594 571 c 0,82,83
 550 512 550 512 550 470 c 0,84,85
 550 453 550 453 582 445 c 2,86,-1
 601 438 l 1,87,-1
 619 435 l 1,88,-1
 655 432 l 1,89,-1
 612 397 l 2,90,91
 577 365 577 365 577 347 c 0,92,93
 577 343 577 343 578 341 c 1,94,-1
 636 379 l 2,95,96
 703 422 703 422 746 426 c 2,97,-1
 800 432 l 1,98,-1
 832 493 l 1,63,-1
EndSplineSet
Substitution2: "'fina' Terminal Forms in Arabic lookup 5 subtable" arabickaffinal
Substitution2: "'medi' Medial Forms in Arabic lookup 4 subtable" kafmedial
Substitution2: "'init' Initial Forms in Arabic lookup 3 subtable" kafinitial
Substitution2: "'isol' Isolated Forms in Arabic lookup 2 subtable" kafisolated
AlternateSubs2: "'aalt' Access All Alternates in Latin lookup 1 subtable" kafisolated kafinitial kafmedial arabickaffinal
EndChar

StartChar: lam
Encoding: 1604 1604 34
Width: 994
Flags: W
AnchorPoint: "ArabicBelow" 497 -578 basechar 0
AnchorPoint: "ArabicAbove" 497 1283 basechar 0
LayerCount: 2
Fore
SplineSet
836 729 m 1,0,-1
 836 701 l 1,1,2
 844 679 844 679 861 533.5 c 128,-1,3
 878 388 878 388 903 116 c 0,4,5
 903 110 903 110 876 29 c 2,6,-1
 839 -58 l 2,7,8
 837 -61 837 -61 833 -68 c 128,-1,9
 829 -75 829 -75 823 -86 c 1,10,-1
 823 -87 l 1,11,12
 821 -92 821 -92 785 -143 c 0,13,14
 772 -162 772 -162 736.5 -189 c 128,-1,15
 701 -216 701 -216 638 -253 c 0,16,17
 628 -258 628 -258 613 -265 c 128,-1,18
 598 -272 598 -272 570 -283 c 2,19,20
 558 -290 558 -290 539.5 -296 c 128,-1,21
 521 -302 521 -302 498 -309 c 0,22,23
 434 -328 434 -328 356 -328 c 0,24,25
 326 -328 326 -328 293.5 -324.5 c 128,-1,26
 261 -321 261 -321 232 -313 c 0,27,28
 171 -294 171 -294 139 -266 c 0,29,30
 63 -199 63 -199 63 -110 c 0,31,32
 63 -53 63 -53 82 16 c 0,33,34
 100 80 100 80 138 168 c 0,35,36
 204 317 204 317 226 317 c 1,37,-1
 224 302 l 1,38,39
 137 122 137 122 137 65 c 0,40,41
 137 -60 137 -60 225 -121 c 0,42,43
 310 -180 310 -180 409 -180 c 2,44,-1
 451 -180 l 2,45,46
 466 -178 466 -178 474.5 -177.5 c 128,-1,47
 483 -177 483 -177 490 -176 c 0,48,49
 503 -175 503 -175 513.5 -174.5 c 128,-1,50
 524 -174 524 -174 532 -172 c 0,51,52
 541 -170 541 -170 557.5 -166.5 c 128,-1,53
 574 -163 574 -163 596 -156 c 0,54,55
 613 -151 613 -151 631.5 -145 c 128,-1,56
 650 -139 650 -139 667 -134 c 0,57,58
 733 -112 733 -112 768 -81.5 c 128,-1,59
 803 -51 803 -51 803 -12 c 2,60,-1
 803 -10 l 2,61,62
 789 161 789 161 776 330 c 128,-1,63
 763 499 763 499 749 671 c 0,64,65
 749 684 749 684 740 717 c 1,66,-1
 740 718 l 1,67,68
 725 765 725 765 711 805.5 c 128,-1,69
 697 846 697 846 678 894 c 1,70,71
 686 910 686 910 699.5 944.5 c 128,-1,72
 713 979 713 979 733 1033 c 1,73,74
 778 983 778 983 825 941.5 c 128,-1,75
 872 900 872 900 922 862 c 1,76,77
 916 848 916 848 911.5 837 c 128,-1,78
 907 826 907 826 901 812.5 c 128,-1,79
 895 799 895 799 887.5 781 c 128,-1,80
 880 763 880 763 870 737 c 1,81,-1
 836 729 l 1,0,-1
EndSplineSet
Substitution2: "'fina' Terminal Forms in Arabic lookup 5 subtable" lamfinal
Substitution2: "'medi' Medial Forms in Arabic lookup 4 subtable" lammedial
Substitution2: "'init' Initial Forms in Arabic lookup 3 subtable" laminitial
Substitution2: "'isol' Isolated Forms in Arabic lookup 2 subtable" lamisolated
AlternateSubs2: "'aalt' Access All Alternates in Latin lookup 1 subtable" lamisolated laminitial lammedial lamfinal
EndChar

StartChar: meem
Encoding: 1605 1605 35
Width: 694
Flags: W
AnchorPoint: "ArabicBelow" 347 -836 basechar 0
AnchorPoint: "ArabicAbove" 347 838 basechar 0
LayerCount: 2
Fore
SplineSet
621 113 m 1,0,1
 562 128 562 128 525 136.5 c 128,-1,2
 488 145 488 145 477 147 c 0,3,4
 464 151 464 151 459 151.5 c 128,-1,5
 454 152 454 152 449 152 c 1,6,7
 444 153 444 153 437.5 153.5 c 128,-1,8
 431 154 431 154 425 155 c 0,9,10
 411 157 411 157 384 157.5 c 128,-1,11
 357 158 357 158 322 158 c 0,12,13
 303 158 303 158 278 154.5 c 128,-1,14
 253 151 253 151 221 146 c 0,15,16
 163 137 163 137 138 117 c 2,17,-1
 114 99 l 1,18,-1
 114 97 l 1,19,20
 112 95 112 95 110 91 c 128,-1,21
 108 87 108 87 106 76 c 1,22,-1
 106 71 l 2,23,24
 106 70 106 70 107 62 c 128,-1,25
 108 54 108 54 110 45 c 0,26,27
 118 9 118 9 130 -79 c 2,28,-1
 149 -215 l 1,29,-1
 156 -322 l 2,30,31
 156 -333 156 -333 154.5 -348 c 128,-1,32
 153 -363 153 -363 149 -383 c 0,33,34
 147 -390 147 -390 146.5 -394.5 c 128,-1,35
 146 -399 146 -399 145 -406 c 0,36,37
 145 -410 145 -410 144.5 -411.5 c 128,-1,38
 144 -413 144 -413 144 -414 c 256,39,40
 144 -415 144 -415 143.5 -416.5 c 128,-1,41
 143 -418 143 -418 142 -422 c 0,42,43
 141 -425 141 -425 139 -431.5 c 128,-1,44
 137 -438 137 -438 134 -452 c 0,45,46
 132 -458 132 -458 130 -466 c 128,-1,47
 128 -474 128 -474 126 -483 c 0,48,49
 121 -501 121 -501 116 -521 c 128,-1,50
 111 -541 111 -541 104 -564 c 0,51,52
 102 -569 102 -569 100.5 -573 c 128,-1,53
 99 -577 99 -577 97 -582 c 1,54,-1
 97 -586 l 1,55,-1
 93 -539 l 1,56,-1
 93 -537 l 2,57,58
 73 -389 73 -389 52 -242.5 c 128,-1,59
 31 -96 31 -96 11 52 c 0,60,61
 11 57 11 57 60 118 c 2,62,-1
 116 190 l 1,63,64
 126 194 126 194 141 200 c 0,65,66
 154 205 154 205 172 212.5 c 128,-1,67
 190 220 190 220 216 231 c 0,68,69
 267 251 267 251 308 264 c 128,-1,70
 349 277 349 277 382 281 c 2,71,-1
 428 286 l 1,72,73
 429 295 429 295 430.5 301.5 c 128,-1,74
 432 308 432 308 433 314.5 c 128,-1,75
 434 321 434 321 435 329 c 128,-1,76
 436 337 436 337 437 348 c 1,77,78
 421 359 421 359 405.5 370 c 128,-1,79
 390 381 390 381 375 392 c 1,80,-1
 375 393 l 1,81,82
 294 444 294 444 239 444 c 0,83,84
 199 444 199 444 167 422 c 0,85,86
 150 411 150 411 137 401 c 128,-1,87
 124 391 124 391 113 382 c 1,88,89
 127 412 127 412 143.5 440 c 128,-1,90
 160 468 160 468 177 491 c 0,91,92
 183 499 183 499 197.5 512.5 c 128,-1,93
 212 526 212 526 242 552 c 0,94,95
 297 588 297 588 340 588 c 0,96,97
 357 588 357 588 361 586 c 0,98,99
 386 569 386 569 401 559 c 128,-1,100
 416 549 416 549 414 551 c 1,101,-1
 460 513 l 2,102,103
 491 488 491 488 503 477.5 c 128,-1,104
 515 467 515 467 518 465 c 0,105,106
 524 459 524 459 535 447 c 128,-1,107
 546 435 546 435 556 425 c 0,108,109
 564 417 564 417 573.5 407 c 128,-1,110
 583 397 583 397 593 386 c 2,111,-1
 678 276 l 1,112,-1
 621 113 l 1,0,1
414 551 m 1,113,114
 413 551 413 551 413 552 c 1,115,-1
 414 551 l 1,113,114
EndSplineSet
Substitution2: "'fina' Terminal Forms in Arabic lookup 5 subtable" meemfinal
Substitution2: "'medi' Medial Forms in Arabic lookup 4 subtable" meemmedial
Substitution2: "'init' Initial Forms in Arabic lookup 3 subtable" meeminitial
Substitution2: "'isol' Isolated Forms in Arabic lookup 2 subtable" meemisolated
AlternateSubs2: "'aalt' Access All Alternates in Latin lookup 1 subtable" meemisolated meeminitial meemmedial meemfinal
EndChar

StartChar: noon
Encoding: 1606 1606 36
Width: 934
Flags: W
AnchorPoint: "ArabicBelow" 467 -521 basechar 0
AnchorPoint: "ArabicAbove" 467 1118 basechar 0
LayerCount: 2
Fore
SplineSet
883 43 m 2,0,1
 850 -69 850 -69 814 -106 c 1,2,-1
 814 -107 l 1,3,4
 796 -129 796 -129 746.5 -155.5 c 128,-1,5
 697 -182 697 -182 625 -210 c 0,6,7
 574 -230 574 -230 518.5 -243.5 c 128,-1,8
 463 -257 463 -257 409 -266 c 2,9,-1
 339 -271 l 2,10,11
 202 -271 202 -271 122 -225 c 0,12,13
 13 -159 13 -159 13 -33 c 0,14,15
 14 -25 14 -25 14 -17 c 0,16,17
 14 -10 14 -10 15 -3 c 1,18,-1
 15 -2 l 2,19,20
 17 18 17 18 17.5 30 c 128,-1,21
 18 42 18 42 21 50 c 1,22,-1
 21 51 l 1,23,24
 22 56 22 56 22.5 59.5 c 128,-1,25
 23 63 23 63 24 68 c 1,26,27
 25 70 25 70 25.5 72.5 c 128,-1,28
 26 75 26 75 28 84 c 0,29,30
 35 116 35 116 46 151.5 c 128,-1,31
 57 187 57 187 74 228 c 0,32,33
 122 352 122 352 157 364 c 1,34,-1
 118 273 l 1,35,-1
 118 272 l 1,36,37
 105 238 105 238 98.5 209.5 c 128,-1,38
 92 181 92 181 92 155 c 0,39,40
 92 8 92 8 188 -58 c 0,41,42
 277 -115 277 -115 362 -115 c 2,43,-1
 435 -115 l 2,44,45
 450 -115 450 -115 460 -115 c 0,46,47
 471 -115 471 -115 478 -114 c 2,48,49
 491 -114 491 -114 515 -110 c 128,-1,50
 539 -106 539 -106 571 -98 c 128,-1,51
 603 -90 603 -90 641.5 -78 c 128,-1,52
 680 -66 680 -66 721 -50 c 0,53,54
 761 -36 761 -36 784.5 -20 c 128,-1,55
 808 -4 808 -4 819 15 c 0,56,57
 825 28 825 28 829 40.5 c 128,-1,58
 833 53 833 53 834 70 c 0,59,60
 834 75 834 75 834.5 81 c 128,-1,61
 835 87 835 87 835 93 c 2,62,-1
 834 127 l 1,63,-1
 813 188 l 2,64,65
 808 200 808 200 803.5 210.5 c 128,-1,66
 799 221 799 221 796 230 c 1,67,-1
 796 231 l 1,68,69
 791 244 791 244 786.5 256.5 c 128,-1,70
 782 269 782 269 779 277 c 0,71,72
 776 287 776 287 771 298 c 128,-1,73
 766 309 766 309 765 318 c 1,74,75
 748 351 748 351 734 379.5 c 128,-1,76
 720 408 720 408 703 441 c 1,77,-1
 792 595 l 1,78,79
 832 515 832 515 852 470.5 c 128,-1,80
 872 426 872 426 877 413 c 0,81,82
 885 393 885 393 891.5 373 c 128,-1,83
 898 353 898 353 903 334 c 2,84,-1
 917 268 l 1,85,-1
 920 209 l 1,86,-1
 917 166 l 1,87,-1
 883 43 l 2,0,1
496 788 m 1,88,-1
 423 688 l 1,89,-1
 309 768 l 1,90,-1
 381 868 l 1,91,-1
 496 788 l 1,88,-1
EndSplineSet
Substitution2: "'fina' Terminal Forms in Arabic lookup 5 subtable" noonfinal
Substitution2: "'medi' Medial Forms in Arabic lookup 4 subtable" noonmedial
Substitution2: "'init' Initial Forms in Arabic lookup 3 subtable" nooninitial
Substitution2: "'isol' Isolated Forms in Arabic lookup 2 subtable" noonisolated
AlternateSubs2: "'aalt' Access All Alternates in Latin lookup 1 subtable" noonisolated nooninitial noonmedial noonfinal
EndChar

StartChar: heh
Encoding: 1607 1607 37
Width: 582
Flags: W
AnchorPoint: "ArabicBelow" 291 -269 basechar 0
AnchorPoint: "ArabicAbove" 291 858 basechar 0
LayerCount: 2
Fore
SplineSet
515 132 m 2,0,1
 501 90 501 90 460 56 c 1,2,-1
 460 55 l 1,3,4
 462 57 462 57 436.5 46 c 128,-1,5
 411 35 411 35 359 13 c 1,6,-1
 231 -19 l 1,7,8
 174 -19 174 -19 141.5 -16 c 128,-1,9
 109 -13 109 -13 92 -8 c 0,10,11
 54 2 54 2 33 19.5 c 128,-1,12
 12 37 12 37 12 60 c 0,13,14
 12 99 12 99 29 152 c 128,-1,15
 46 205 46 205 87 271 c 2,16,-1
 178 415 l 1,17,-1
 178 416 l 1,18,19
 213 475 213 475 247.5 522 c 128,-1,20
 282 569 282 569 318 608 c 1,21,-1
 518 443 l 1,22,-1
 557 378 l 1,23,24
 570 346 570 346 570 310 c 2,25,-1
 568 285 l 1,26,-1
 557 252 l 1,27,-1
 515 132 l 2,0,1
491 177 m 1,28,29
 491 208 491 208 466 251 c 128,-1,30
 441 294 441 294 393 347 c 0,31,32
 342 404 342 404 310.5 433 c 128,-1,33
 279 462 279 462 268 462 c 1,34,35
 249 433 249 433 229.5 407.5 c 128,-1,36
 210 382 210 382 190 358 c 1,37,-1
 190 356 l 1,38,39
 167 322 167 322 154 294.5 c 128,-1,40
 141 267 141 267 137 247 c 1,41,-1
 137 243 l 2,42,43
 137 170 137 170 176 143 c 0,44,45
 191 134 191 134 212.5 128 c 128,-1,46
 234 122 234 122 261 122 c 0,47,48
 305 122 305 122 340 125 c 128,-1,49
 375 128 375 128 405 133 c 2,50,-1
 480 144 l 1,51,-1
 491 177 l 1,28,29
EndSplineSet
Substitution2: "'fina' Terminal Forms in Arabic lookup 5 subtable" hehfinal
Substitution2: "'medi' Medial Forms in Arabic lookup 4 subtable" hehmedial
Substitution2: "'init' Initial Forms in Arabic lookup 3 subtable" hehinitial
Substitution2: "'isol' Isolated Forms in Arabic lookup 2 subtable" hehisolated
AlternateSubs2: "'aalt' Access All Alternates in Latin lookup 1 subtable" hehisolated hehinitial hehmedial hehfinal
EndChar

StartChar: waw
Encoding: 1608 1608 38
Width: 853
Flags: W
AnchorPoint: "ArabicBelow" 426 -690 basechar 0
AnchorPoint: "ArabicAbove" 426 811 basechar 0
LayerCount: 2
Fore
SplineSet
849 203 m 0,0,1
 849 -5 849 -5 743 -213 c 0,2,3
 627 -440 627 -440 447 -440 c 0,4,5
 415 -440 415 -440 330 -425 c 0,6,7
 288 -417 288 -417 256.5 -411 c 128,-1,8
 225 -405 225 -405 210 -401 c 0,9,10
 204 -399 204 -399 197 -397 c 128,-1,11
 190 -395 190 -395 182 -393 c 1,12,13
 195 -394 195 -394 207.5 -395 c 128,-1,14
 220 -396 220 -396 233 -397 c 0,15,16
 261 -397 261 -397 283 -392 c 2,17,-1
 311 -385 l 1,18,-1
 311 -383 l 1,19,-1
 332 -373 l 2,20,21
 413 -340 413 -340 486 -290.5 c 128,-1,22
 559 -241 559 -241 633 -170 c 0,23,24
 783 -28 783 -28 783 102 c 0,25,26
 783 128 783 128 774 166 c 0,27,28
 771 182 771 182 767.5 195 c 128,-1,29
 764 208 764 208 761 222 c 1,30,31
 756 208 756 208 745 185.5 c 128,-1,32
 734 163 734 163 720.5 140 c 128,-1,33
 707 117 707 117 694 98.5 c 128,-1,34
 681 80 681 80 673 75 c 1,35,36
 626 28 626 28 525 28 c 0,37,38
 478 28 478 28 448 44 c 128,-1,39
 418 60 418 60 404 95 c 2,40,41
 402 97 402 97 401 102 c 128,-1,42
 400 107 400 107 398.5 120.5 c 128,-1,43
 397 134 397 134 395 158 c 128,-1,44
 393 182 393 182 390 223 c 0,45,46
 390 286 390 286 479 423 c 0,47,48
 572 561 572 561 656 561 c 0,49,50
 684 561 684 561 716.5 529.5 c 128,-1,51
 749 498 749 498 778 451 c 0,52,53
 812 391 812 391 830.5 327.5 c 128,-1,54
 849 264 849 264 849 203 c 0,0,1
664 355 m 0,55,56
 617 401 617 401 579 401 c 0,57,58
 563 401 563 401 539 390.5 c 128,-1,59
 515 380 515 380 488 357 c 0,60,61
 441 318 441 318 441 270 c 0,62,63
 441 225 441 225 469 208 c 0,64,65
 485 200 485 200 498.5 193.5 c 128,-1,66
 512 187 512 187 523 184 c 0,67,68
 543 178 543 178 561.5 175.5 c 128,-1,69
 580 173 580 173 594 173 c 0,70,71
 603 173 603 173 606 174 c 2,72,73
 616 175 616 175 630 179 c 128,-1,74
 644 183 644 183 661 190 c 0,75,76
 673 195 673 195 683 202.5 c 128,-1,77
 693 210 693 210 699 215 c 0,78,79
 701 217 701 217 702 230.5 c 128,-1,80
 703 244 703 244 703 267 c 0,81,82
 703 311 703 311 664 355 c 0,55,56
93 -368 m 0,83,84
 121 -376 121 -376 143 -382 c 128,-1,85
 165 -388 165 -388 182 -393 c 1,86,87
 171 -391 171 -391 158 -389 c 128,-1,88
 145 -387 145 -387 134 -385 c 2,89,-1
 51 -365 l 1,90,-1
 18 -360 l 1,91,92
 10 -362 10 -362 7 -355.5 c 128,-1,93
 4 -349 4 -349 4 -339 c 1,94,95
 5 -344 5 -344 93 -368 c 0,83,84
EndSplineSet
Substitution2: "'fina' Terminal Forms in Arabic lookup 5 subtable" wawfinal
Substitution2: "'isol' Isolated Forms in Arabic lookup 2 subtable" wawisolated
AlternateSubs2: "'aalt' Access All Alternates in Latin lookup 1 subtable" wawisolated wawfinal
EndChar

StartChar: alefmaksura
Encoding: 1609 1609 39
Width: 1144
Flags: W
AnchorPoint: "ArabicBelow" 572 -586 basechar 0
AnchorPoint: "ArabicAbove" 572 962 basechar 0
LayerCount: 2
Fore
SplineSet
1079 457 m 1,0,-1
 1073 478 l 1,1,-1
 1073 479 l 1,2,3
 1050 569 1050 569 969 569 c 0,4,5
 883 569 883 569 761 478 c 0,6,7
 643 393 643 393 643 314 c 0,8,9
 643 271 643 271 696.5 242.5 c 128,-1,10
 750 214 750 214 854 200 c 0,11,12
 945 187 945 187 994.5 168 c 128,-1,13
 1044 149 1044 149 1044 126 c 1,14,15
 1039 94 1039 94 1032 67 c 128,-1,16
 1025 40 1025 40 1014 14 c 2,17,-1
 972 -92 l 1,18,19
 954 -108 954 -108 929 -126 c 128,-1,20
 904 -144 904 -144 875 -166 c 0,21,22
 870 -169 870 -169 865.5 -172.5 c 128,-1,23
 861 -176 861 -176 856 -180 c 0,24,25
 824 -200 824 -200 793 -216.5 c 128,-1,26
 762 -233 762 -233 727 -251 c 0,27,28
 642 -295 642 -295 559.5 -315.5 c 128,-1,29
 477 -336 477 -336 395 -336 c 0,30,31
 10 -336 10 -336 10 -79 c 0,32,33
 10 1 10 1 24.5 82 c 128,-1,34
 39 163 39 163 69 247 c 0,35,36
 128 377 128 377 147 380 c 1,37,-1
 147 378 l 2,38,39
 147 367 147 367 137.5 333 c 128,-1,40
 128 299 128 299 110 240 c 0,41,42
 90 177 90 177 80.5 133.5 c 128,-1,43
 71 90 71 90 71 58 c 0,44,45
 71 -6 71 -6 103 -55.5 c 128,-1,46
 135 -105 135 -105 197 -138 c 0,47,48
 248 -159 248 -159 312 -171 c 128,-1,49
 376 -183 376 -183 435 -185 c 1,50,51
 508 -172 508 -172 582.5 -158.5 c 128,-1,52
 657 -145 657 -145 729 -132 c 1,53,-1
 729 -131 l 1,54,55
 798 -111 798 -111 847.5 -91.5 c 128,-1,56
 897 -72 897 -72 932 -46 c 1,57,-1
 932 -36 l 1,58,59
 933 -34 933 -34 934.5 -31 c 128,-1,60
 936 -28 936 -28 937 -26 c 1,61,-1
 937 -20 l 2,62,63
 937 34 937 34 727 58 c 0,64,65
 541 79 541 79 541 148 c 0,66,67
 541 282 541 282 684 486 c 0,68,69
 843 712 843 712 1026 712 c 0,70,71
 1046 712 1046 712 1059 711 c 128,-1,72
 1072 710 1072 710 1081 708 c 128,-1,73
 1090 706 1090 706 1096 703 c 128,-1,74
 1102 700 1102 700 1108 696 c 0,75,76
 1119 689 1119 689 1126 681.5 c 128,-1,77
 1133 674 1133 674 1133 667 c 1,78,-1
 1086 478 l 1,79,-1
 1079 457 l 1,0,-1
EndSplineSet
Substitution2: "'fina' Terminal Forms in Arabic lookup 5 subtable" alefmaksurafinal
Substitution2: "'isol' Isolated Forms in Arabic lookup 2 subtable" alefmaksuraisolated
AlternateSubs2: "'aalt' Access All Alternates in Latin lookup 1 subtable" alefmaksuraisolated alefmaksurafinal
EndChar

StartChar: yeh
Encoding: 1610 1610 40
Width: 1212
Flags: W
AnchorPoint: "ArabicBelow" 606 -872 basechar 0
AnchorPoint: "ArabicAbove" 606 972 basechar 0
LayerCount: 2
Fore
SplineSet
1178 658 m 1,0,1
 1177 651 1177 651 1175.5 643 c 128,-1,2
 1174 635 1174 635 1171 626 c 1,3,4
 1172 629 1172 629 1170.5 622 c 128,-1,5
 1169 615 1169 615 1167 610 c 1,6,-1
 1167 609 l 1,7,8
 1165 601 1165 601 1161.5 590.5 c 128,-1,9
 1158 580 1158 580 1154 568 c 2,10,-1
 1124 497 l 1,11,-1
 1124 496 l 1,12,13
 1122 488 1122 488 1120 481.5 c 128,-1,14
 1118 475 1118 475 1118 472 c 1,15,-1
 1113 491 l 1,16,-1
 1113 493 l 1,17,18
 1093 579 1093 579 1010 579 c 0,19,20
 963 579 963 579 911 556.5 c 128,-1,21
 859 534 859 534 796 488 c 0,22,23
 736 444 736 444 706.5 401.5 c 128,-1,24
 677 359 677 359 677 324 c 0,25,26
 677 237 677 237 882 204 c 0,27,28
 1067 172 1067 172 1067 122 c 1,29,-1
 1042 1 l 2,30,31
 1038 -12 1038 -12 1037 -23 c 1,32,33
 1032 -41 1032 -41 1025 -62.5 c 128,-1,34
 1018 -84 1018 -84 999 -108 c 1,35,36
 950 -153 950 -153 890.5 -188.5 c 128,-1,37
 831 -224 831 -224 762 -256 c 0,38,39
 727 -273 727 -273 685 -286 c 128,-1,40
 643 -299 643 -299 595 -310 c 1,41,-1
 595 -311 l 1,42,43
 553 -320 553 -320 516.5 -325 c 128,-1,44
 480 -330 480 -330 438 -330 c 0,45,46
 363 -330 363 -330 310 -320 c 0,47,48
 280 -314 280 -314 252 -306 c 128,-1,49
 224 -298 224 -298 198 -285 c 0,50,51
 122 -247 122 -247 78 -186 c 128,-1,52
 34 -125 34 -125 34 -46 c 0,53,54
 34 63 34 63 47 108 c 1,55,-1
 47 111 l 1,56,57
 49 122 49 122 50.5 131 c 128,-1,58
 52 140 52 140 54 151 c 2,59,-1
 64 187 l 2,60,61
 66 191 66 191 67 197.5 c 128,-1,62
 68 204 68 204 70 209 c 0,63,64
 75 224 75 224 80 241.5 c 128,-1,65
 85 259 85 259 93 279 c 1,66,-1
 93 280 l 1,67,68
 134 409 134 409 161 415 c 1,69,70
 166 415 166 415 168 418 c 1,71,72
 167 383 167 383 133 279 c 1,73,-1
 133 278 l 1,74,75
 127 252 127 252 120 224.5 c 128,-1,76
 113 197 113 197 107 171 c 1,77,-1
 107 170 l 1,78,79
 98 123 98 123 98 88 c 2,80,-1
 98 70 l 2,81,82
 98 1 98 1 131 -46.5 c 128,-1,83
 164 -94 164 -94 239 -131 c 0,84,85
 270 -145 270 -145 298.5 -155 c 128,-1,86
 327 -165 327 -165 353 -170 c 0,87,88
 382 -175 382 -175 405 -178 c 128,-1,89
 428 -181 428 -181 446 -181 c 2,90,-1
 458 -181 l 2,91,92
 489 -181 489 -181 537 -175 c 0,93,94
 552 -174 552 -174 564 -172 c 0,95,96
 578 -170 578 -170 588.5 -168.5 c 128,-1,97
 599 -167 599 -167 604 -165 c 1,98,99
 611 -164 611 -164 626 -161.5 c 128,-1,100
 641 -159 641 -159 662 -155 c 0,101,102
 677 -152 677 -152 698.5 -145.5 c 128,-1,103
 720 -139 720 -139 749 -130 c 0,104,105
 821 -111 821 -111 872.5 -91 c 128,-1,106
 924 -71 924 -71 956 -47 c 1,107,-1
 956 -37 l 1,108,109
 957 -35 957 -35 958.5 -32 c 128,-1,110
 960 -29 960 -29 961 -27 c 1,111,-1
 961 -21 l 2,112,113
 961 33 961 33 752 65 c 0,114,115
 565 92 565 92 565 160 c 0,116,117
 565 280 565 280 733 496 c 0,118,119
 910 722 910 722 1073 722 c 0,120,121
 1115 722 1115 722 1119 720 c 1,122,-1
 1119 717 l 1,123,124
 1131 715 1131 715 1139 712.5 c 128,-1,125
 1147 710 1147 710 1151 708 c 1,126,-1
 1151 707 l 1,127,128
 1161 703 1161 703 1166 699 c 128,-1,129
 1171 695 1171 695 1173 691 c 2,130,-1
 1176 683 l 1,131,-1
 1178 668 l 1,132,-1
 1178 658 l 1,0,1
554 -538 m 1,133,-1
 491 -622 l 1,134,-1
 392 -553 l 1,135,-1
 454 -468 l 1,136,-1
 554 -538 l 1,133,-1
716 -538 m 1,137,-1
 654 -622 l 1,138,-1
 556 -552 l 1,139,-1
 616 -468 l 1,140,-1
 716 -538 l 1,137,-1
EndSplineSet
Substitution2: "'fina' Terminal Forms in Arabic lookup 5 subtable" yehfinal
Substitution2: "'medi' Medial Forms in Arabic lookup 4 subtable" yehmedial
Substitution2: "'init' Initial Forms in Arabic lookup 3 subtable" yehinitial
Substitution2: "'isol' Isolated Forms in Arabic lookup 2 subtable" yehisolated
AlternateSubs2: "'aalt' Access All Alternates in Latin lookup 1 subtable" yehisolated yehinitial yehmedial yehfinal
EndChar

StartChar: fathatan
Encoding: 1611 1611 41
Width: 0
Flags: W
AnchorPoint: "ArabicAboveLigature" 230 1275 mark 0
AnchorPoint: "ArabicAbove" 230 1275 mark 0
LayerCount: 2
Fore
SplineSet
398 2164 m 1,0,1
 398 2098 398 2098 363 2078 c 2,2,-1
 60 1906 l 1,3,4
 63 1944 63 1944 74 1965 c 0,5,6
 86 1985 86 1985 126 2007 c 2,7,-1
 398 2164 l 1,0,1
398 2018 m 1,8,9
 398 1952 398 1952 363 1932 c 2,10,-1
 60 1760 l 1,11,12
 63 1798 63 1798 74 1819 c 0,13,14
 86 1839 86 1839 126 1861 c 2,15,-1
 398 2018 l 1,8,9
EndSplineSet
AlternateSubs2: "'aalt' Access All Alternates in Latin lookup 1 subtable" fathatanisolated fathatanlow
EndChar

StartChar: dammatan
Encoding: 1612 1612 42
Width: 0
Flags: W
AnchorPoint: "ArabicAboveLigature" 230 1275 mark 0
AnchorPoint: "ArabicAbove" 230 1275 mark 0
LayerCount: 2
Fore
SplineSet
396 1582 m 0,0,1
 396 1565 396 1565 395.5 1550 c 128,-1,2
 395 1535 395 1535 394 1523 c 1,3,4
 374 1534 374 1534 351 1548.5 c 128,-1,5
 328 1563 328 1563 302 1582 c 1,6,7
 176 1453 176 1453 62 1437 c 1,8,9
 105 1526 105 1526 105 1566 c 0,10,11
 105 1621 105 1621 56 1621 c 0,12,13
 14 1621 14 1621 7 1545 c 1,14,15
 -3 1574 -3 1574 -3 1597 c 256,16,17
 -3 1620 -3 1620 3.5 1640 c 128,-1,18
 10 1660 10 1660 21.5 1675 c 128,-1,19
 33 1690 33 1690 48 1698.5 c 128,-1,20
 63 1707 63 1707 81 1707 c 0,21,22
 148 1707 148 1707 148 1607 c 2,23,-1
 142 1515 l 1,24,25
 207 1540 207 1540 266 1605 c 1,26,27
 200 1648 200 1648 200 1699 c 0,28,29
 200 1752 200 1752 240 1798 c 0,30,31
 280 1846 280 1846 322 1846 c 0,32,33
 344 1846 344 1846 367 1819 c 0,34,35
 390 1793 390 1793 390 1766 c 0,36,37
 390 1736 390 1736 379 1708 c 0,38,-1
 357 1652 l 1,39,40
 396 1622 396 1622 396 1582 c 0,0,1
320 1726 m 0,41,42
 320 1779 320 1779 279 1779 c 0,43,44
 253 1779 253 1779 253 1756 c 0,45,46
 253 1730 253 1730 316 1687 c 1,47,48
 320 1696 320 1696 320 1726 c 0,41,42
EndSplineSet
AlternateSubs2: "'aalt' Access All Alternates in Latin lookup 1 subtable" dammatanisolated dammatanlow
EndChar

StartChar: kasratan
Encoding: 1613 1613 43
Width: 0
Flags: W
AnchorPoint: "ArabicBelowLigature" 165 -500 mark 0
AnchorPoint: "ArabicBelow" 165 -500 mark 0
LayerCount: 2
Fore
SplineSet
339 -620 m 1,0,1
 339 -686 339 -686 304 -706 c 2,2,-1
 1 -878 l 1,3,4
 4 -840 4 -840 15 -818 c 1,5,6
 28 -800 28 -800 67 -777 c 2,7,-1
 339 -620 l 1,0,1
339 -767 m 1,8,9
 339 -833 339 -833 304 -853 c 2,10,-1
 1 -1025 l 1,11,12
 4 -987 4 -987 15 -965 c 1,13,14
 28 -947 28 -947 67 -924 c 2,15,-1
 339 -767 l 1,8,9
EndSplineSet
AlternateSubs2: "'aalt' Access All Alternates in Latin lookup 1 subtable" kasratanisolated kasratanlow
EndChar

StartChar: fatha
Encoding: 1614 1614 44
Width: 0
Flags: W
AnchorPoint: "ArabicAboveLigature" 230 1275 mark 0
AnchorPoint: "ArabicAbove" 230 1275 mark 0
LayerCount: 2
Fore
SplineSet
283 1910 m 1,0,1
 283 1856 283 1856 254 1839 c 2,2,-1
 5 1698 l 1,3,4
 7 1732 7 1732 16 1747 c 0,5,6
 26 1762 26 1762 59 1781 c 2,7,-1
 283 1910 l 1,0,1
EndSplineSet
AlternateSubs2: "'aalt' Access All Alternates in Latin lookup 1 subtable" fathaisolated fathalow
EndChar

StartChar: damma
Encoding: 1615 1615 45
Width: 0
Flags: W
AnchorPoint: "ArabicAboveLigature" 230 1275 mark 0
AnchorPoint: "ArabicAbove" 230 1275 mark 0
LayerCount: 2
Fore
SplineSet
280 1883 m 1,0,-1
 273 1802 l 1,1,-1
 208 1845 l 1,2,3
 109 1727 109 1727 46 1727 c 0,4,5
 28 1727 28 1727 -2 1737 c 1,6,7
 40 1760 40 1760 83.5 1791.5 c 128,-1,8
 127 1823 127 1823 173 1865 c 1,9,10
 123 1903 123 1903 123 1938 c 0,11,12
 123 1988 123 1988 159 2041 c 0,13,14
 185 2076 185 2076 218 2076 c 0,15,16
 273 2076 273 2076 273 2004 c 0,17,18
 273 1962 273 1962 248 1908 c 1,19,20
 254 1904 254 1904 262 1897.5 c 128,-1,21
 270 1891 270 1891 280 1883 c 1,0,-1
223 1956 m 0,22,23
 223 1974 223 1974 209.5 1990 c 128,-1,24
 196 2006 196 2006 179 2006 c 0,25,26
 164 2006 164 2006 164 1989 c 0,27,28
 164 1964 164 1964 218 1928 c 1,29,30
 223 1948 223 1948 223 1956 c 0,22,23
EndSplineSet
AlternateSubs2: "'aalt' Access All Alternates in Latin lookup 1 subtable" dammaisolated dammalow
EndChar

StartChar: kasra
Encoding: 1616 1616 46
Width: 0
Flags: W
AnchorPoint: "ArabicBelowLigature" 165 -500 mark 0
AnchorPoint: "ArabicBelow" 165 -500 mark 0
LayerCount: 2
Fore
SplineSet
351 -620 m 1,0,1
 351 -686 351 -686 316 -706 c 2,2,-1
 13 -878 l 1,3,4
 16 -840 16 -840 27 -818 c 1,5,6
 40 -800 40 -800 79 -777 c 2,7,-1
 351 -620 l 1,0,1
EndSplineSet
AlternateSubs2: "'aalt' Access All Alternates in Latin lookup 1 subtable" kasraisolated kasralow
EndChar

StartChar: shadda
Encoding: 1617 1617 47
Width: 0
Flags: W
AnchorPoint: "ArabicAboveLigature" 300 1650 mark 0
AnchorPoint: "ArabicAbove" 300 1650 mark 0
LayerCount: 2
Fore
SplineSet
355 1683 m 0,0,1
 355 1515 355 1515 251 1515 c 0,2,3
 215 1515 215 1515 187 1536 c 1,4,5
 179 1501 179 1501 148 1476 c 0,6,7
 116 1450 116 1450 83 1450 c 0,8,9
 1 1450 1 1450 1 1558 c 0,10,11
 1 1583 1 1583 23 1659 c 1,12,-1
 46 1663 l 1,13,14
 46 1552 46 1552 85 1552 c 0,15,16
 149 1552 149 1552 175 1714 c 1,17,-1
 193 1720 l 1,18,19
 216 1622 216 1622 251 1622 c 0,20,21
 309 1622 309 1622 318 1769 c 1,22,-1
 341 1779 l 1,23,24
 355 1718 355 1718 355 1683 c 0,0,1
EndSplineSet
AlternateSubs2: "'aalt' Access All Alternates in Latin lookup 1 subtable" shaddaisolated shaddalow
EndChar

StartChar: sukun
Encoding: 1618 1618 48
Width: 0
Flags: W
AnchorPoint: "ArabicAboveLigature" 230 1275 mark 0
AnchorPoint: "ArabicAbove" 230 1275 mark 0
LayerCount: 2
Fore
SplineSet
260 1614 m 0,0,1
 260 1549 260 1549 214 1500 c 0,2,3
 167 1450 167 1450 109 1450 c 0,4,5
 2 1450 2 1450 2 1571 c 0,6,7
 2 1655 2 1655 40 1708 c 0,8,9
 77 1762 77 1762 139 1762 c 0,10,11
 186 1762 186 1762 223 1716 c 0,12,13
 260 1673 260 1673 260 1614 c 0,0,1
205 1590 m 0,14,15
 205 1616 205 1616 162 1647 c 0,16,17
 121 1676 121 1676 94 1676 c 0,18,19
 35 1676 35 1676 35 1608 c 0,20,21
 35 1549 35 1549 127 1549 c 0,22,23
 205 1549 205 1549 205 1590 c 0,14,15
EndSplineSet
AlternateSubs2: "'aalt' Access All Alternates in Latin lookup 1 subtable" sukunisolated sukunlow
EndChar

StartChar: arabicindicdigitzero
Encoding: 1632 1632 49
Width: 466
Flags: W
LayerCount: 2
Fore
SplineSet
362 449 m 1,0,-1
 292 205 l 1,1,-1
 98 325 l 1,2,-1
 168 569 l 1,3,-1
 362 449 l 1,0,-1
EndSplineSet
EndChar

StartChar: arabicindicdigitone
Encoding: 1633 1633 50
Width: 502
Flags: W
LayerCount: 2
Fore
SplineSet
404 134 m 2,0,1
 404 83 404 83 401 46.5 c 128,-1,2
 398 10 398 10 393 -15 c 1,3,-1
 393 -16 l 1,4,5
 385 -66 385 -66 367 -66 c 0,6,7
 355 -66 355 -66 342 0 c 0,8,9
 319 147 319 147 302.5 235 c 128,-1,10
 286 323 286 323 272 359 c 0,11,12
 258 394 258 394 246 425 c 128,-1,13
 234 456 234 456 222 484 c 0,14,15
 211 510 211 510 199 533.5 c 128,-1,16
 187 557 187 557 174 581 c 2,17,-1
 104 701 l 1,18,19
 105 714 105 714 106 723 c 128,-1,20
 107 732 107 732 109 738 c 0,21,22
 113 750 113 750 119.5 770.5 c 128,-1,23
 126 791 126 791 138 827 c 0,24,25
 171 917 171 917 177 919 c 1,26,27
 191 914 191 914 236 847 c 0,28,29
 265 805 265 805 291.5 749 c 128,-1,30
 318 693 318 693 344 618 c 0,31,32
 357 573 357 573 367.5 526 c 128,-1,33
 378 479 378 479 387 428 c 0,34,35
 395 377 395 377 399 329 c 128,-1,36
 403 281 403 281 403 235 c 2,37,-1
 403 199 l 1,38,-1
 404 134 l 2,0,1
EndSplineSet
EndChar

StartChar: arabicindicdigittwo
Encoding: 1634 1634 51
Width: 724
Flags: W
LayerCount: 2
Fore
SplineSet
183 720 m 1,0,-1
 183 792 l 2,1,2
 185 812 185 812 189 834.5 c 128,-1,3
 193 857 193 857 204 875 c 0,4,5
 228 915 228 915 281.5 931 c 128,-1,6
 335 947 335 947 400 950 c 128,-1,7
 465 953 465 953 531 948 c 128,-1,8
 597 943 597 943 673 930 c 1,9,10
 654 809 654 809 648 782 c 1,11,12
 632 788 632 788 569 795.5 c 128,-1,13
 506 803 506 803 484 802 c 128,-1,14
 462 801 462 801 454 800 c 0,15,16
 401 795 401 795 373 777.5 c 128,-1,17
 345 760 345 760 335.5 734.5 c 128,-1,18
 326 709 326 709 330.5 676.5 c 128,-1,19
 335 644 335 644 347.5 609 c 128,-1,20
 360 574 360 574 375.5 538 c 128,-1,21
 391 502 391 502 404 470 c 0,22,23
 405 467 405 467 407 462.5 c 128,-1,24
 409 458 409 458 413 444.5 c 128,-1,25
 417 431 417 431 424.5 404.5 c 128,-1,26
 432 378 432 378 444 331 c 2,27,-1
 460 233 l 1,28,-1
 467 155 l 1,29,-1
 470 73 l 2,30,31
 470 -78 470 -78 440 -78 c 0,32,33
 420 -78 420 -78 402 19 c 0,34,35
 388 95 388 95 369 178 c 0,36,37
 362 211 362 211 348 248 c 2,38,-1
 329 311 l 2,39,40
 297 402 297 402 265.5 475 c 128,-1,41
 234 548 234 548 209 631 c 2,42,-1
 183 720 l 1,0,-1
EndSplineSet
EndChar

StartChar: arabicindicdigitthree
Encoding: 1635 1635 52
Width: 939
Flags: W
LayerCount: 2
Fore
SplineSet
765 964 m 1,0,1
 766 964 766 964 766.5 964.5 c 128,-1,2
 767 965 767 965 768 965 c 1,3,-1
 765 964 l 1,0,1
768 944 m 1,4,5
 771 944 771 944 776 940 c 1,6,-1
 779 927 l 1,7,-1
 781 898 l 2,8,9
 781 856 781 856 773 813 c 128,-1,10
 765 770 765 770 748 720 c 0,11,12
 714 618 714 618 669 602 c 1,13,-1
 668 601 l 1,14,15
 659 599 659 599 650 597.5 c 128,-1,16
 641 596 641 596 637 596 c 0,17,18
 601 596 601 596 568 613 c 1,19,-1
 567 613 l 1,20,-1
 530 630 l 1,21,-1
 510 640 l 1,22,-1
 496 651 l 1,23,-1
 483 649 l 1,24,25
 459 619 459 619 436 599.5 c 128,-1,26
 413 580 413 580 392 569 c 2,27,-1
 353 555 l 1,28,-1
 346 538 l 1,29,-1
 361 472 l 1,30,-1
 376 395 l 1,31,-1
 383 330 l 1,32,-1
 390 273 l 1,33,-1
 390 117 l 2,34,35
 390 61 390 61 389 22.5 c 128,-1,36
 388 -16 388 -16 384 -40.5 c 128,-1,37
 380 -65 380 -65 374 -75.5 c 128,-1,38
 368 -86 368 -86 358 -86 c 0,39,40
 340 -86 340 -86 325 66 c 0,41,42
 309 230 309 230 272 348 c 0,43,44
 259 394 259 394 246.5 434 c 128,-1,45
 234 474 234 474 221 508 c 0,46,47
 208 545 208 545 197.5 573.5 c 128,-1,48
 187 602 187 602 178 623 c 1,49,-1
 177 624 l 1,50,-1
 123 732 l 1,51,-1
 100 778 l 1,52,-1
 122 831 l 2,53,54
 137 862 137 862 152.5 887 c 128,-1,55
 168 912 168 912 184 933 c 1,56,-1
 242 858 l 2,57,58
 319 762 319 762 369 762 c 0,59,60
 384 762 384 762 401 772 c 0,61,62
 455 815 455 815 487 872 c 2,63,-1
 553 981 l 1,64,65
 563 981 563 981 563 950 c 2,66,-1
 563 923 l 1,67,-1
 565 896 l 1,68,-1
 565 894 l 1,69,70
 570 875 570 875 600 846 c 1,71,-1
 600 845 l 1,72,73
 616 833 616 833 633 826 c 128,-1,74
 650 819 650 819 669 819 c 0,75,76
 695 819 695 819 718 848 c 2,77,-1
 721 852 l 1,78,-1
 746 918 l 2,79,80
 754 936 754 936 768 944 c 1,4,5
EndSplineSet
EndChar

StartChar: arabicindicdigitfour
Encoding: 1636 1636 53
Width: 630
Flags: W
LayerCount: 2
Fore
SplineSet
462 -64 m 1,0,-1
 457 -64 l 2,1,2
 402 -64 402 -64 289 -24 c 0,3,4
 116 28 116 28 116 107 c 0,5,6
 116 125 116 125 128.5 154 c 128,-1,7
 141 183 141 183 164 218 c 2,8,-1
 286 386 l 1,9,-1
 288 396 l 1,10,11
 288 416 288 416 188 484 c 0,12,13
 165 498 165 498 145.5 515 c 128,-1,14
 126 532 126 532 112 547 c 1,15,16
 111 555 111 555 110.5 561 c 128,-1,17
 110 567 110 567 109 575 c 0,18,19
 109 598 109 598 115.5 622.5 c 128,-1,20
 122 647 122 647 134 675 c 1,21,-1
 134 674 l 1,22,23
 158 720 158 720 193.5 764.5 c 128,-1,24
 229 809 229 809 274 850 c 0,25,26
 312 882 312 882 344 904 c 128,-1,27
 376 926 376 926 396 933 c 1,28,29
 390 896 390 896 385.5 864 c 128,-1,30
 381 832 381 832 376 795 c 1,31,-1
 311 775 l 1,32,33
 237 740 237 740 226 703 c 1,34,35
 226 670 226 670 309 621 c 0,36,37
 343 605 343 605 374.5 589.5 c 128,-1,38
 406 574 406 574 439 559 c 1,39,-1
 440 551 l 2,40,41
 440 533 440 533 423 501.5 c 128,-1,42
 406 470 406 470 377 433 c 2,43,-1
 295 346 l 2,44,45
 273 324 273 324 251 286 c 0,46,47
 239 266 239 266 237 247.5 c 128,-1,48
 235 229 235 229 240 215 c 1,49,-1
 244 209 l 1,50,51
 251 204 251 204 267 195.5 c 128,-1,52
 283 187 283 187 311 176 c 2,53,-1
 426 134 l 2,54,55
 444 129 444 129 462 124.5 c 128,-1,56
 480 120 480 120 499 115 c 0,57,58
 505 113 505 113 510 111 c 128,-1,59
 515 109 515 109 521 107 c 1,60,-1
 462 -64 l 1,0,-1
EndSplineSet
EndChar

StartChar: arabicindicdigitfive
Encoding: 1637 1637 54
Width: 740
Flags: W
LayerCount: 2
Fore
SplineSet
555 359 m 1,0,1
 560 364 560 364 560.5 367 c 128,-1,2
 561 370 561 370 561 374 c 0,3,4
 561 390 561 390 542.5 420.5 c 128,-1,5
 524 451 524 451 487 502 c 1,6,-1
 486 502 l 1,7,8
 388 624 388 624 313 624 c 0,9,10
 288 624 288 624 244 547 c 0,11,12
 202 472 202 472 202 411 c 2,13,-1
 202 410 l 1,14,-1
 206 368 l 1,15,16
 213 346 213 346 261 319 c 1,17,-1
 263 319 l 1,18,-1
 282 312 l 1,19,-1
 283 311 l 1,20,-1
 314 304 l 1,21,-1
 316 304 l 1,22,-1
 374 300 l 1,23,-1
 396 300 l 1,24,-1
 421 301 l 1,25,-1
 422 301 l 2,26,27
 442 303 442 303 448 306 c 1,28,-1
 473 313 l 2,29,30
 500 320 500 320 520.5 332 c 128,-1,31
 541 344 541 344 556 359 c 1,32,-1
 555 359 l 1,0,1
640 494 m 2,33,34
 640 423 640 423 616 321 c 0,35,36
 593 225 593 225 563 198 c 0,37,38
 513 159 513 159 442 130 c 0,39,40
 425 124 425 124 408 119.5 c 128,-1,41
 391 115 391 115 372 110 c 2,42,-1
 338 105 l 1,43,-1
 305 103 l 2,44,45
 262 103 262 103 221 116.5 c 128,-1,46
 180 130 180 130 143 172 c 0,47,48
 103 215 103 215 103 305 c 0,49,50
 103 454 103 454 206 641 c 0,51,52
 307 823 307 823 390 823 c 0,53,54
 447 823 447 823 522 737 c 0,55,56
 596 651 596 651 635 542 c 1,57,-1
 639 516 l 1,58,-1
 640 494 l 2,33,34
EndSplineSet
EndChar

StartChar: arabicindicdigitsix
Encoding: 1638 1638 55
Width: 770
Flags: W
LayerCount: 2
Fore
SplineSet
634 -57 m 2,0,1
 632 -57 632 -57 632 -55 c 1,2,3
 635 -57 635 -57 636 -57 c 1,4,-1
 634 -57 l 2,0,1
675 150 m 2,5,6
 674 138 674 138 668 107 c 128,-1,7
 662 76 662 76 652 31 c 0,8,9
 630 -43 630 -43 632 -55 c 1,10,11
 621 -48 621 -48 602 -19.5 c 128,-1,12
 583 9 583 9 560 54 c 0,13,14
 522 129 522 129 502 210 c 128,-1,15
 482 291 482 291 482 375 c 2,16,-1
 482 474 l 2,17,18
 485 519 485 519 485.5 549 c 128,-1,19
 486 579 486 579 486 591 c 0,20,21
 487 603 487 603 489.5 625 c 128,-1,22
 492 647 492 647 495 673 c 1,23,-1
 471 698 l 1,24,25
 460 696 460 696 445.5 693 c 128,-1,26
 431 690 431 690 419 688 c 0,27,28
 415 687 415 687 410 687 c 0,29,30
 406 687 406 687 403 686 c 0,31,32
 371 681 371 681 351 678 c 128,-1,33
 331 675 331 675 312 675 c 0,34,35
 230 675 230 675 201 691 c 0,36,37
 145 714 145 714 115 766 c 1,38,-1
 117 763 l 1,39,40
 115 768 115 768 113 775.5 c 128,-1,41
 111 783 111 783 109 789 c 1,42,-1
 107 819 l 2,43,44
 107 859 107 859 133 965 c 1,45,-1
 191 928 l 2,46,47
 236 907 236 907 280.5 896 c 128,-1,48
 325 885 325 885 375 885 c 0,49,50
 406 885 406 885 450 893 c 128,-1,51
 494 901 494 901 546 915 c 1,52,-1
 548 915 l 1,53,-1
 542 885 l 1,54,-1
 542 886 l 1,55,-1
 528 808 l 2,56,57
 527 794 527 794 526 779 c 128,-1,58
 525 764 525 764 524 750 c 2,59,-1
 513 643 l 1,60,-1
 518 643 l 1,61,-1
 518 599 l 1,62,-1
 523 552 l 1,63,-1
 527 516 l 1,64,-1
 545 435 l 2,65,66
 557 388 557 388 574.5 341.5 c 128,-1,67
 592 295 592 295 615 251 c 0,68,69
 630 223 630 223 643 201.5 c 128,-1,70
 656 180 656 180 675 155 c 1,71,-1
 675 150 l 2,5,6
EndSplineSet
EndChar

StartChar: arabicindicdigitseven
Encoding: 1639 1639 56
Width: 919
Flags: W
LayerCount: 2
Fore
SplineSet
814 763 m 1,0,1
 800 749 800 749 776 715.5 c 128,-1,2
 752 682 752 682 720 628 c 0,3,4
 691 579 691 579 661.5 514.5 c 128,-1,5
 632 450 632 450 601 369 c 2,6,-1
 568 271 l 1,7,-1
 510 87 l 2,8,9
 478 -11 478 -11 466 -15 c 1,10,11
 453 -15 453 -15 428 73 c 0,12,13
 416 119 416 119 404 158.5 c 128,-1,14
 392 198 392 198 379 234 c 0,15,16
 368 267 368 267 355.5 297 c 128,-1,17
 343 327 343 327 329 355 c 2,18,-1
 289 442 l 2,19,20
 278 463 278 463 269 480.5 c 128,-1,21
 260 498 260 498 250 514 c 0,22,23
 232 546 232 546 212 576 c 128,-1,24
 192 606 192 606 170 634 c 1,25,-1
 170 635 l 1,26,-1
 119 692 l 1,27,-1
 100 710 l 1,28,-1
 126 784 l 2,29,30
 140 823 140 823 152 849.5 c 128,-1,31
 164 876 164 876 174 889 c 1,32,-1
 217 844 l 1,33,-1
 243 809 l 1,34,-1
 275 759 l 2,35,36
 286 742 286 742 296.5 721 c 128,-1,37
 307 700 307 700 320 674 c 2,38,-1
 418 438 l 1,39,-1
 479 279 l 1,40,-1
 501 279 l 1,41,-1
 544 409 l 1,42,-1
 569 484 l 1,43,-1
 598 562 l 1,44,-1
 626 633 l 1,45,-1
 655 698 l 2,46,47
 670 736 670 736 694.5 776 c 128,-1,48
 719 816 719 816 751 861 c 0,49,50
 770 887 770 887 780.5 901.5 c 128,-1,51
 791 916 791 916 796 921 c 1,52,53
 796 916 796 916 799 895 c 0,54,55
 802 875 802 875 814 763 c 1,0,1
EndSplineSet
EndChar

StartChar: arabicindicdigiteight
Encoding: 1640 1640 57
Width: 903
Flags: W
LayerCount: 2
Fore
SplineSet
793 104 m 2,0,1
 777 47 777 47 764 13.5 c 128,-1,2
 751 -20 751 -20 740 -34 c 1,3,-1
 697 13 l 2,4,5
 681 33 681 33 668 53.5 c 128,-1,6
 655 74 655 74 644 94 c 0,7,8
 637 105 637 105 625.5 127.5 c 128,-1,9
 614 150 614 150 597 186 c 2,10,-1
 558 273 l 1,11,-1
 501 417 l 1,12,-1
 441 573 l 1,13,-1
 419 573 l 1,14,-1
 394 500 l 1,15,-1
 350 382 l 1,16,-1
 315 293 l 1,17,-1
 263 171 l 2,18,19
 246 128 246 128 221.5 84 c 128,-1,20
 197 40 197 40 166 -5 c 0,21,22
 121 -70 121 -70 117 -71 c 1,23,24
 105 -62 105 -62 105 58 c 2,25,-1
 103 115 l 1,26,-1
 195 232 l 1,27,-1
 196 233 l 1,28,29
 223 281 223 281 252 343 c 128,-1,30
 281 405 281 405 313 486 c 2,31,-1
 386 703 l 2,32,33
 439 867 439 867 452 867 c 0,34,35
 469 867 469 867 495 780 c 0,36,37
 514 697 514 697 536 634 c 128,-1,38
 558 571 558 571 590 509 c 0,39,40
 625 431 625 431 655.5 372.5 c 128,-1,41
 686 314 686 314 712 276 c 2,42,-1
 806 152 l 1,43,-1
 793 104 l 2,0,1
EndSplineSet
EndChar

StartChar: arabicindicdigitnine
Encoding: 1641 1641 58
Width: 757
Flags: W
LayerCount: 2
Fore
SplineSet
420 579 m 1,0,1
 412 641 412 641 400 663 c 1,2,3
 374 739 374 739 321 752 c 1,4,-1
 317 752 l 2,5,6
 294 752 294 752 257 709 c 2,7,-1
 256 708 l 1,8,9
 225 665 225 665 225 642 c 1,10,11
 231 628 231 628 251.5 616.5 c 128,-1,12
 272 605 272 605 309 586 c 1,13,-1
 311 586 l 1,14,15
 380 562 380 562 398 562 c 2,16,-1
 400 562 l 1,17,-1
 410 564 l 1,18,-1
 420 579 l 1,0,1
660 111 m 2,19,20
 660 82 660 82 636 -5 c 0,21,22
 610 -95 610 -95 608 -97 c 1,23,24
 584 -92 584 -92 522 52 c 2,25,-1
 499 115 l 1,26,-1
 477 185 l 2,27,28
 469 217 469 217 461 258 c 128,-1,29
 453 299 453 299 445 350 c 1,30,-1
 434 360 l 1,31,-1
 419 363 l 1,32,-1
 370 369 l 2,33,34
 315 369 315 369 258 378 c 0,35,36
 201 388 201 388 154 434 c 1,37,-1
 153 434 l 1,38,39
 107 478 107 478 103 539 c 0,40,41
 103 593 103 593 126.5 657 c 128,-1,42
 150 721 150 721 198 794 c 0,43,44
 294 939 294 939 360 939 c 0,45,46
 427 939 427 939 476 842 c 0,47,48
 529 738 529 738 529 544 c 0,49,50
 529 450 529 450 544.5 368.5 c 128,-1,51
 560 287 560 287 595 217 c 0,52,53
 603 200 603 200 615 180.5 c 128,-1,54
 627 161 627 161 642 138 c 1,55,-1
 643 137 l 1,56,-1
 659 119 l 1,57,-1
 660 111 l 2,19,20
EndSplineSet
EndChar

StartChar: arabicpercentsign
Encoding: 1642 1642 59
Width: 567
Flags: W
LayerCount: 2
Fore
SplineSet
197 869 m 1,0,-1
 31 869 l 1,1,-1
 31 1049 l 1,2,-1
 197 1049 l 1,3,-1
 197 869 l 1,0,-1
520 1049 m 1,4,-1
 109 8 l 1,5,-1
 16 8 l 1,6,-1
 427 1049 l 1,7,-1
 520 1049 l 1,4,-1
508 -7 m 1,8,-1
 341 -7 l 1,9,-1
 341 172 l 1,10,-1
 508 172 l 1,11,-1
 508 -7 l 1,8,-1
EndSplineSet
EndChar

StartChar: arabicfivepointedstar
Encoding: 1645 1645 60
Width: 815
Flags: W
LayerCount: 2
Fore
SplineSet
765 1190 m 1,0,-1
 547 1029 l 1,1,-1
 629 770 l 1,2,-1
 408 928 l 1,3,-1
 187 770 l 1,4,-1
 269 1029 l 1,5,-1
 51 1190 l 1,6,-1
 322 1190 l 1,7,-1
 408 1450 l 1,8,-1
 494 1190 l 1,9,-1
 765 1190 l 1,0,-1
EndSplineSet
EndChar

StartChar: shaddawithdammatanisolated
Encoding: 64606 64606 62
Width: 482
Flags: W
LayerCount: 2
Fore
SplineSet
482 1788 m 0,0,1
 482 1779 482 1779 475 1769 c 1,2,3
 451 1775 451 1775 381 1800 c 1,4,5
 248 1730 248 1730 174 1730 c 0,6,7
 132 1730 132 1730 92 1743 c 1,8,9
 156 1777 156 1777 156 1818 c 0,10,11
 156 1872 156 1872 106 1872 c 1,12,13
 113 1872 113 1872 104 1870.5 c 128,-1,14
 95 1869 95 1869 70 1865 c 1,15,16
 94 1941 94 1941 141 1941 c 0,17,18
 166 1941 166 1941 184.5 1919 c 128,-1,19
 203 1897 203 1897 203 1865 c 0,20,21
 203 1841 203 1841 186 1792 c 1,22,23
 258 1800 258 1800 319 1837 c 1,24,25
 266 1873 266 1873 266 1915 c 0,26,27
 266 1951 266 1951 309 1988 c 0,28,29
 352 2027 352 2027 393 2027 c 0,30,31
 415 2027 415 2027 438 2003 c 0,32,33
 461 1977 461 1977 461 1953 c 0,34,35
 461 1925 461 1925 436 1874 c 1,36,37
 482 1846 482 1846 482 1788 c 0,0,1
455 1677 m 0,38,39
 455 1640 455 1640 447 1609 c 128,-1,40
 439 1578 439 1578 425 1556 c 128,-1,41
 411 1534 411 1534 391.5 1521.5 c 128,-1,42
 372 1509 372 1509 350 1509 c 0,43,44
 330 1509 330 1509 282 1532 c 2,45,-1
 278 1534 l 1,46,47
 233 1450 233 1450 174 1450 c 0,48,49
 94 1450 94 1450 94 1554 c 0,50,51
 94 1583 94 1583 117 1650 c 1,52,-1
 137 1652 l 1,53,54
 141 1552 141 1552 186 1552 c 0,55,56
 233 1552 233 1552 272 1687 c 1,57,-1
 291 1689 l 1,58,59
 307 1616 307 1616 356 1616 c 0,60,61
 407 1616 407 1616 430 1726 c 1,62,-1
 450 1726 l 1,63,64
 452 1715 452 1715 453.5 1703 c 128,-1,65
 455 1691 455 1691 455 1677 c 0,38,39
395 1941 m 0,66,67
 395 1982 395 1982 364 1982 c 0,68,69
 334 1982 334 1982 334 1958 c 256,70,71
 334 1934 334 1934 381 1902 c 1,72,73
 395 1928 395 1928 395 1941 c 0,66,67
EndSplineSet
Ligature2: "'liga' Standard Ligatures in Arabic lookup 7 subtable" shadda dammatan
AlternateSubs2: "'aalt' Access All Alternates in Latin lookup 1 subtable" shaddawithdammatanisolated shaddawithdammatanisolatedlow
EndChar

StartChar: shaddawithkasratanisolated
Encoding: 64607 64607 63
Width: 420
Flags: W
LayerCount: 2
Fore
SplineSet
420 1940 m 0,0,1
 420 1772 420 1772 316 1772 c 0,2,3
 280 1772 280 1772 252 1793 c 1,4,5
 244 1758 244 1758 213 1733 c 0,6,7
 181 1707 181 1707 148 1707 c 0,8,9
 66 1707 66 1707 66 1815 c 0,10,11
 66 1840 66 1840 88 1916 c 1,12,-1
 111 1920 l 1,13,14
 111 1809 111 1809 150 1809 c 0,15,16
 214 1809 214 1809 240 1971 c 1,17,-1
 258 1977 l 1,18,19
 281 1879 281 1879 316 1879 c 0,20,21
 374 1879 374 1879 383 2026 c 1,22,-1
 406 2036 l 1,23,24
 420 1975 420 1975 420 1940 c 0,0,1
412 1773 m 1,25,26
 397 1707 397 1707 353 1687 c 2,27,-1
 70 1560 l 1,28,29
 98 1633 98 1633 156 1659 c 2,30,-1
 412 1773 l 1,25,26
412 1656 m 1,31,32
 397 1594 397 1594 346 1572 c 2,33,-1
 70 1450 l 1,34,35
 90 1520 90 1520 142 1542 c 2,36,-1
 412 1656 l 1,31,32
EndSplineSet
Ligature2: "'liga' Standard Ligatures in Arabic lookup 7 subtable" shadda kasratan
AlternateSubs2: "'aalt' Access All Alternates in Latin lookup 1 subtable" shaddawithkasratanisolated shaddawithkasratanisolatedlow
EndChar

StartChar: shaddawithfathaisolated
Encoding: 64608 64608 64
Width: 414
Flags: W
LayerCount: 2
Fore
SplineSet
408 1845 m 1,0,1
 398 1784 398 1784 359 1769 c 2,2,-1
 64 1653 l 1,3,4
 91 1722 91 1722 150 1745 c 2,5,-1
 408 1845 l 1,0,1
414 1673 m 0,6,7
 414 1638 414 1638 406 1608.5 c 128,-1,8
 398 1579 398 1579 384 1557 c 128,-1,9
 370 1535 370 1535 350.5 1523 c 128,-1,10
 331 1511 331 1511 308 1511 c 0,11,12
 290 1511 290 1511 246 1534 c 2,13,-1
 242 1536 l 1,14,15
 204 1450 204 1450 138 1450 c 0,16,17
 60 1450 60 1450 60 1548 c 1,18,19
 60 1543 60 1543 66 1609 c 1,20,-1
 95 1628 l 1,21,22
 105 1550 105 1550 148 1550 c 0,23,24
 203 1550 203 1550 236 1683 c 1,25,-1
 258 1689 l 1,26,27
 283 1616 283 1616 316 1616 c 0,28,29
 373 1616 373 1616 381 1738 c 1,30,-1
 408 1747 l 1,31,32
 414 1714 414 1714 414 1673 c 0,6,7
EndSplineSet
Ligature2: "'liga' Standard Ligatures in Arabic lookup 7 subtable" shadda fatha
AlternateSubs2: "'aalt' Access All Alternates in Latin lookup 1 subtable" shaddawithfathaisolated shaddawithfathaisolatedlow
EndChar

StartChar: shaddawithdammaisolated
Encoding: 64609 64609 65
Width: 424
Flags: W
LayerCount: 2
Fore
SplineSet
424 1763 m 1,0,1
 381 1769 381 1769 314 1792 c 1,2,3
 192 1694 192 1694 129 1694 c 0,4,5
 107 1694 107 1694 64 1714 c 1,6,7
 130 1736 130 1736 182.5 1760 c 128,-1,8
 235 1784 235 1784 273 1812 c 1,9,10
 224 1849 224 1849 224 1896 c 0,11,12
 224 1938 224 1938 262 1979 c 0,13,14
 301 2019 301 2019 344 2019 c 0,15,16
 366 2019 366 2019 392 1995 c 0,17,18
 418 1972 418 1972 418 1952 c 0,19,20
 418 1907 418 1907 382 1864 c 1,21,22
 390 1860 390 1860 399 1854.5 c 128,-1,23
 408 1849 408 1849 417 1842 c 0,24,25
 424 1835 424 1835 424 1800 c 2,26,-1
 424 1763 l 1,0,1
418 1720 m 1,27,28
 418 1505 418 1505 310 1505 c 0,29,30
 268 1505 268 1505 240 1530 c 1,31,32
 208 1450 208 1450 136 1450 c 0,33,34
 58 1450 58 1450 58 1548 c 0,35,36
 58 1592 58 1592 80 1632 c 1,37,-1
 101 1634 l 1,38,39
 107 1552 107 1552 148 1552 c 0,40,41
 194 1552 194 1552 236 1671 c 1,42,-1
 260 1677 l 1,43,44
 272 1610 272 1610 314 1610 c 0,45,46
 370 1610 370 1610 394 1714 c 1,47,-1
 418 1720 l 1,27,28
353 1927 m 0,48,49
 353 1976 353 1976 310 1976 c 0,50,51
 285 1976 285 1976 285 1946 c 0,52,53
 285 1922 285 1922 344 1884 c 1,54,55
 353 1908 353 1908 353 1927 c 0,48,49
EndSplineSet
Ligature2: "'liga' Standard Ligatures in Arabic lookup 7 subtable" shadda damma
AlternateSubs2: "'aalt' Access All Alternates in Latin lookup 1 subtable" shaddawithdammaisolated shaddawithdammaisolatedlow
EndChar

StartChar: shaddawithkasraisolated
Encoding: 64610 64610 66
Width: 420
Flags: W
LayerCount: 2
Fore
SplineSet
420 1830 m 0,0,1
 420 1662 420 1662 316 1662 c 0,2,3
 280 1662 280 1662 252 1683 c 1,4,5
 244 1648 244 1648 213 1623 c 0,6,7
 181 1597 181 1597 148 1597 c 0,8,9
 66 1597 66 1597 66 1705 c 0,10,11
 66 1730 66 1730 88 1806 c 1,12,-1
 111 1810 l 1,13,14
 111 1699 111 1699 150 1699 c 0,15,16
 214 1699 214 1699 240 1861 c 1,17,-1
 258 1867 l 1,18,19
 281 1769 281 1769 316 1769 c 0,20,21
 374 1769 374 1769 383 1916 c 1,22,-1
 406 1926 l 1,23,24
 420 1865 420 1865 420 1830 c 0,0,1
412 1663 m 1,25,26
 397 1597 397 1597 353 1577 c 2,27,-1
 70 1450 l 1,28,29
 98 1523 98 1523 156 1549 c 2,30,-1
 412 1663 l 1,25,26
EndSplineSet
Ligature2: "'liga' Standard Ligatures in Arabic lookup 7 subtable" shadda kasra
AlternateSubs2: "'aalt' Access All Alternates in Latin lookup 1 subtable" shaddawithkasraisolated shaddawithkasraisolatedlow
EndChar

StartChar: shaddawithfathamedial
Encoding: 64754 64754 67
Width: 1284
Flags: W
LayerCount: 2
Fore
SplineSet
807 1552 m 1,0,1
 807 1486 807 1486 772 1466 c 2,2,-1
 469 1294 l 1,3,4
 472 1332 472 1332 483 1353 c 0,5,6
 495 1373 495 1373 535 1395 c 2,7,-1
 807 1552 l 1,0,1
819 1263 m 0,8,9
 819 1095 819 1095 715 1095 c 0,10,11
 679 1095 679 1095 651 1116 c 1,12,13
 643 1081 643 1081 612 1056 c 0,14,15
 580 1030 580 1030 547 1030 c 0,16,17
 465 1030 465 1030 465 1138 c 0,18,19
 465 1163 465 1163 487 1239 c 1,20,-1
 510 1243 l 1,21,22
 510 1132 510 1132 549 1132 c 0,23,24
 613 1132 613 1132 639 1294 c 1,25,-1
 657 1300 l 1,26,27
 680 1202 680 1202 715 1202 c 0,28,29
 773 1202 773 1202 782 1349 c 1,30,-1
 805 1359 l 1,31,32
 819 1298 819 1298 819 1263 c 0,8,9
1354 129 m 1,33,-1
 0 129 l 1,34,-1
 0 250 l 1,35,-1
 1354 250 l 1,36,-1
 1354 129 l 1,33,-1
EndSplineSet
Ligature2: "'liga' Standard Ligatures in Arabic lookup 6 subtable" tatweel shadda fatha
EndChar

StartChar: shaddawithdammamedial
Encoding: 64755 64755 68
Width: 1284
Flags: W
LayerCount: 2
Fore
SplineSet
813 1503 m 1,0,-1
 805 1404 l 1,1,-1
 725 1456 l 1,2,3
 605 1312 605 1312 528 1312 c 0,4,5
 509 1312 509 1312 469 1324 c 1,6,7
 571 1381 571 1381 682 1480 c 1,8,9
 621 1525 621 1525 621 1570 c 0,10,11
 621 1630 621 1630 666 1695 c 0,12,13
 696 1738 696 1738 737 1738 c 0,14,15
 805 1738 805 1738 805 1650 c 0,16,17
 805 1599 805 1599 774 1533 c 1,18,19
 787 1522 787 1522 813 1503 c 1,0,-1
819 1263 m 0,20,21
 819 1095 819 1095 715 1095 c 0,22,23
 679 1095 679 1095 651 1116 c 1,24,25
 643 1081 643 1081 612 1056 c 0,26,27
 580 1030 580 1030 547 1030 c 0,28,29
 465 1030 465 1030 465 1138 c 0,30,31
 465 1163 465 1163 487 1239 c 1,32,-1
 510 1243 l 1,33,34
 510 1132 510 1132 549 1132 c 0,35,36
 613 1132 613 1132 639 1294 c 1,37,-1
 657 1300 l 1,38,39
 680 1202 680 1202 715 1202 c 0,40,41
 773 1202 773 1202 782 1349 c 1,42,-1
 805 1359 l 1,43,44
 819 1298 819 1298 819 1263 c 0,20,21
743 1591 m 0,45,46
 743 1614 743 1614 727 1633 c 128,-1,47
 711 1652 711 1652 690 1652 c 0,48,49
 672 1652 672 1652 672 1632 c 0,50,51
 672 1601 672 1601 737 1557 c 1,52,53
 743 1576 743 1576 743 1591 c 0,45,46
1354 129 m 1,54,-1
 0 129 l 1,55,-1
 0 250 l 1,56,-1
 1354 250 l 1,57,-1
 1354 129 l 1,54,-1
EndSplineSet
Ligature2: "'liga' Standard Ligatures in Arabic lookup 6 subtable" tatweel shadda damma
EndChar

StartChar: shaddawithkasramedial
Encoding: 64756 64756 69
Width: 1284
Flags: W
LayerCount: 2
Fore
SplineSet
819 1491 m 0,0,1
 819 1323 819 1323 715 1323 c 0,2,3
 679 1323 679 1323 651 1344 c 1,4,5
 643 1309 643 1309 612 1284 c 0,6,7
 580 1258 580 1258 547 1258 c 0,8,9
 465 1258 465 1258 465 1366 c 0,10,11
 465 1391 465 1391 487 1467 c 1,12,-1
 510 1471 l 1,13,14
 510 1360 510 1360 549 1360 c 0,15,16
 613 1360 613 1360 639 1522 c 1,17,-1
 657 1528 l 1,18,19
 680 1430 680 1430 715 1430 c 0,20,21
 773 1430 773 1430 782 1577 c 1,22,-1
 805 1587 l 1,23,24
 819 1526 819 1526 819 1491 c 0,0,1
807 1288 m 1,25,26
 807 1222 807 1222 772 1202 c 2,27,-1
 469 1030 l 1,28,29
 472 1068 472 1068 483 1089 c 0,30,31
 495 1109 495 1109 535 1131 c 2,32,-1
 807 1288 l 1,25,26
1354 129 m 1,33,-1
 0 129 l 1,34,-1
 0 250 l 1,35,-1
 1354 250 l 1,36,-1
 1354 129 l 1,33,-1
EndSplineSet
Ligature2: "'liga' Standard Ligatures in Arabic lookup 6 subtable" tatweel shadda kasra
EndChar

StartChar: ornateleftparenthesis
Encoding: 64830 64830 70
Width: 750
Flags: W
LayerCount: 2
Fore
SplineSet
550 -200 m 1,0,-1
 200 -200 l 1,1,-1
 200 1750 l 1,2,-1
 550 1750 l 1,3,-1
 550 1600 l 1,4,-1
 350 1600 l 1,5,-1
 350 -50 l 1,6,-1
 550 -50 l 1,7,-1
 550 -200 l 1,0,-1
EndSplineSet
EndChar

StartChar: ornaterightparenthesis
Encoding: 64831 64831 71
Width: 750
Flags: W
LayerCount: 2
Fore
SplineSet
544 -200 m 1,0,-1
 194 -200 l 1,1,-1
 194 -50 l 1,2,-1
 394 -50 l 1,3,-1
 394 1600 l 1,4,-1
 194 1600 l 1,5,-1
 194 1750 l 1,6,-1
 544 1750 l 1,7,-1
 544 -200 l 1,0,-1
EndSplineSet
EndChar

StartChar: allahisolated
Encoding: 65010 65010 72
Width: 1557
Flags: W
LayerCount: 2
Fore
SplineSet
440 673 m 1,0,-1
 441 673 l 1,1,-1
 440 672 l 1,2,-1
 440 673 l 1,0,-1
439 672 m 1,3,-1
 440 672 l 1,4,-1
 439 672 l 1,3,-1
1030 1437 m 1,5,-1
 1029 1414 l 1,6,-1
 1029 1413 l 2,7,8
 1029 1400 1029 1400 1026 1390 c 2,9,-1
 1025 1387 l 1,10,11
 1022 1363 1022 1363 1017 1351 c 1,12,13
 1017 1366 1017 1366 1020 1374 c 1,14,-1
 1021 1379 l 1,15,16
 1021 1410 1021 1410 1012 1442 c 2,17,-1
 997 1502 l 1,18,-1
 1019 1535 l 1,19,-1
 1020 1536 l 1,20,21
 1020 1523 1020 1523 1025 1515 c 1,22,-1
 1028 1502 l 1,23,-1
 1032 1477 l 1,24,-1
 1030 1437 l 1,5,-1
1026 1128 m 1,25,-1
 1011 1123 l 1,26,-1
 1001 1107 l 2,27,28
 997 1100 997 1100 987 1091 c 1,29,30
 964 1076 964 1076 936 1076 c 0,31,32
 914 1076 914 1076 901 1092 c 1,33,34
 891 1111 891 1111 891 1143 c 2,35,-1
 891 1151 l 1,36,-1
 891 1163 l 2,37,38
 891 1167 891 1167 891.5 1170 c 128,-1,39
 892 1173 892 1173 893 1177 c 2,40,-1
 901 1210 l 2,41,42
 905 1222 905 1222 908.5 1229.5 c 128,-1,43
 912 1237 912 1237 914 1241 c 1,44,-1
 913 1219 l 1,45,-1
 906 1170 l 1,46,-1
 906 1168 l 2,47,48
 906 1141 906 1141 914 1133 c 1,49,50
 925 1116 925 1116 959 1116 c 2,51,-1
 961 1116 l 1,52,53
 985 1120 985 1120 992.5 1125.5 c 128,-1,54
 1000 1131 1000 1131 1010 1145 c 1,55,-1
 1012 1154 l 1,56,-1
 1006 1192 l 1,57,-1
 1002 1227 l 1,58,-1
 1005 1240 l 1,59,-1
 1014 1252 l 1,60,-1
 1014 1251 l 2,61,62
 1014 1220 1014 1220 1017 1208 c 1,63,-1
 1018 1206 l 1,64,-1
 1028 1185 l 1,65,-1
 1029 1183 l 1,66,67
 1051 1155 1051 1155 1097 1155 c 1,68,-1
 1110 1169 l 1,69,-1
 1107 1199 l 1,70,-1
 1092 1242 l 1,71,-1
 1111 1266 l 1,72,73
 1111 1261 1111 1261 1112 1260 c 1,74,-1
 1112 1259 l 1,75,-1
 1117 1235 l 1,76,-1
 1118 1214 l 1,77,-1
 1118 1205 l 1,78,-1
 1116 1190 l 1,79,-1
 1116 1189 l 1,80,-1
 1115 1169 l 1,81,-1
 1115 1168 l 2,82,83
 1115 1152 1115 1152 1100 1134 c 0,84,85
 1089 1117 1089 1117 1076 1117 c 2,86,-1
 1047 1120 l 1,87,-1
 1026 1128 l 1,25,-1
490 268 m 1,88,-1
 488 291 l 1,89,-1
 458 540 l 1,90,-1
 439 549 l 1,91,-1
 429 543 l 2,92,93
 418 536 418 536 404.5 516 c 128,-1,94
 391 496 391 496 372 464 c 2,95,-1
 361 444 l 1,96,-1
 355 436 l 1,97,98
 294 418 294 418 252 389 c 128,-1,99
 210 360 210 360 172 315 c 1,100,-1
 178 296 l 1,101,-1
 219 284 l 1,102,-1
 220 283 l 1,103,-1
 312 264 l 1,104,-1
 351 259 l 1,105,-1
 352 259 l 1,106,-1
 392 257 l 1,107,-1
 427 257 l 2,108,109
 439 257 439 257 446 256.5 c 128,-1,110
 453 256 453 256 455 256 c 1,111,-1
 459 255 l 1,112,-1
 478 255 l 1,113,-1
 490 268 l 1,88,-1
1488 327 m 1,114,115
 1488 268 1488 268 1455 163 c 0,116,117
 1438 109 1438 109 1420 74 c 128,-1,118
 1402 39 1402 39 1380 20 c 1,119,120
 1320 -8 1320 -8 1229 -8 c 0,121,122
 1177 -8 1177 -8 1128 6 c 128,-1,123
 1079 20 1079 20 1047 56 c 2,124,-1
 1029 78 l 1,125,-1
 1007 114 l 1,126,-1
 984 111 l 1,127,128
 974 67 974 67 917 33 c 0,129,130
 887 16 887 16 863.5 8 c 128,-1,131
 840 0 840 0 825 0 c 2,132,-1
 624 0 l 2,133,134
 570 0 570 0 533 75 c 0,135,136
 518 112 518 112 500 203 c 2,137,-1
 498 217 l 1,138,-1
 481 226 l 1,139,-1
 469 221 l 1,140,-1
 468 220 l 1,141,142
 444 207 444 207 395 117 c 0,143,144
 366 64 366 64 348 64 c 1,145,-1
 338 66 l 1,146,-1
 280 80 l 1,147,-1
 279 80 l 1,148,149
 191 100 191 100 192 100 c 1,150,-1
 189 101 l 1,151,-1
 92 119 l 1,152,-1
 23 131 l 1,153,154
 30 156 30 156 42.5 189 c 128,-1,155
 55 222 55 222 72 264 c 1,156,-1
 72 265 l 1,157,158
 94 322 94 322 113 357 c 128,-1,159
 132 392 132 392 148 407 c 1,160,161
 153 410 153 410 189.5 431 c 128,-1,162
 226 452 226 452 298 494 c 0,163,164
 418 560 418 560 434 573 c 1,165,-1
 438 582 l 1,166,-1
 437 614 l 2,167,168
 437 625 437 625 435 633 c 2,169,170
 435 644 435 644 430 654 c 1,171,-1
 430 655 l 1,172,-1
 433 661 l 1,173,-1
 441 673 l 1,174,-1
 459 697 l 1,175,-1
 485 727 l 1,176,-1
 486 728 l 1,177,-1
 525 784 l 1,178,-1
 549 594 l 2,179,180
 586 239 586 239 593 227 c 1,181,-1
 594 226 l 1,182,183
 610 198 610 198 631 190 c 1,184,-1
 632 189 l 1,185,186
 652 184 652 184 677 184 c 2,187,-1
 707 183 l 1,188,-1
 752 180 l 1,189,-1
 753 180 l 1,190,-1
 811 179 l 2,191,192
 843 179 843 179 875 186 c 128,-1,193
 907 193 907 193 936 207 c 2,194,-1
 938 208 l 1,195,-1
 976 237 l 2,196,197
 987 245 987 245 987 270 c 0,198,199
 987 303 987 303 980.5 357 c 128,-1,200
 974 411 974 411 961 486 c 2,201,-1
 931 658 l 1,202,-1
 916 740 l 1,203,-1
 907 794 l 2,204,205
 906 804 906 804 904 812 c 128,-1,206
 902 820 902 820 897 840 c 1,207,-1
 921 882 l 1,208,-1
 959 940 l 2,209,210
 1022 1037 1022 1037 1028 1039 c 1,211,-1
 1097 266 l 1,212,-1
 1100 259 l 1,213,214
 1133 225 1133 225 1183 198 c 1,215,-1
 1184 198 l 1,216,217
 1207 188 1207 188 1232 183.5 c 128,-1,218
 1257 179 1257 179 1281 179 c 2,219,-1
 1316 180 l 2,220,221
 1325 180 1325 180 1336.5 183 c 128,-1,222
 1348 186 1348 186 1359.5 193 c 128,-1,223
 1371 200 1371 200 1382 211.5 c 128,-1,224
 1393 223 1393 223 1400 239 c 1,225,-1
 1401 247 l 1,226,-1
 1274 686 l 1,227,-1
 1324 797 l 1,228,-1
 1357 860 l 2,229,230
 1377 894 1377 894 1381 898 c 1,231,-1
 1425 695 l 1,232,-1
 1465 492 l 1,233,-1
 1478 408 l 1,234,-1
 1488 327 l 1,235,-1
 1488 327 l 1,114,115
EndSplineSet
LCarets2: 2 0 0 
Ligature2: "'liga' Standard Ligatures in Arabic lookup 6 subtable" laminitial lammedial hehfinal
EndChar

StartChar: fathatanisolated
Encoding: 65136 65136 73
Width: 408
Flags: W
LayerCount: 2
Fore
SplineSet
408 2054 m 1,0,1
 408 1988 408 1988 373 1968 c 2,2,-1
 70 1796 l 1,3,4
 73 1834 73 1834 84 1855 c 0,5,6
 96 1875 96 1875 136 1897 c 2,7,-1
 408 2054 l 1,0,1
408 1908 m 1,8,9
 408 1842 408 1842 373 1822 c 2,10,-1
 70 1650 l 1,11,12
 73 1688 73 1688 84 1709 c 0,13,14
 96 1729 96 1729 136 1751 c 2,15,-1
 408 1908 l 1,8,9
EndSplineSet
EndChar

StartChar: tatweelwithfathatanabove
Encoding: 65137 65137 74
Width: 1284
Flags: W
LayerCount: 2
Fore
SplineSet
811 1434 m 1,0,1
 811 1368 811 1368 776 1348 c 2,2,-1
 473 1176 l 1,3,4
 476 1214 476 1214 487 1235 c 0,5,6
 499 1255 499 1255 539 1277 c 2,7,-1
 811 1434 l 1,0,1
811 1288 m 1,8,9
 811 1222 811 1222 776 1202 c 2,10,-1
 473 1030 l 1,11,12
 476 1068 476 1068 487 1089 c 0,13,14
 499 1109 499 1109 539 1131 c 2,15,-1
 811 1288 l 1,8,9
1354 129 m 1,16,-1
 0 129 l 1,17,-1
 0 250 l 1,18,-1
 1354 250 l 1,19,-1
 1354 129 l 1,16,-1
EndSplineSet
Ligature2: "'liga' Standard Ligatures in Arabic lookup 6 subtable" tatweel fathatan
EndChar

StartChar: dammatanisolated
Encoding: 65138 65138 75
Width: 463
Flags: W
LayerCount: 2
Fore
SplineSet
463 1582 m 0,0,1
 463 1565 463 1565 462.5 1550 c 128,-1,2
 462 1535 462 1535 461 1523 c 1,3,4
 441 1534 441 1534 418 1548.5 c 128,-1,5
 395 1563 395 1563 369 1582 c 1,6,7
 243 1453 243 1453 129 1437 c 1,8,9
 172 1526 172 1526 172 1566 c 0,10,11
 172 1621 172 1621 123 1621 c 0,12,13
 81 1621 81 1621 74 1545 c 1,14,15
 64 1574 64 1574 64 1597 c 256,16,17
 64 1620 64 1620 70.5 1640 c 128,-1,18
 77 1660 77 1660 88.5 1675 c 128,-1,19
 100 1690 100 1690 115 1698.5 c 128,-1,20
 130 1707 130 1707 148 1707 c 0,21,22
 215 1707 215 1707 215 1607 c 2,23,-1
 209 1515 l 1,24,25
 274 1540 274 1540 333 1605 c 1,26,27
 267 1648 267 1648 267 1699 c 0,28,29
 267 1752 267 1752 307 1798 c 0,30,31
 347 1846 347 1846 389 1846 c 0,32,33
 411 1846 411 1846 434 1819 c 0,34,35
 457 1793 457 1793 457 1766 c 0,36,37
 457 1736 457 1736 446 1708 c 128,-1,38
 424 1652 l 1,39,40
 463 1622 463 1622 463 1582 c 0,0,1
387 1726 m 0,41,42
 387 1779 387 1779 346 1779 c 0,43,44
 320 1779 320 1779 320 1756 c 0,45,46
 320 1730 320 1730 383 1687 c 1,47,48
 387 1696 387 1696 387 1726 c 0,41,42
EndSplineSet
EndChar

StartChar: kasratanisolated
Encoding: 65140 65140 76
Width: 408
Flags: W
LayerCount: 2
Fore
SplineSet
408 -620 m 1,0,1
 408 -686 408 -686 373 -706 c 2,2,-1
 70 -878 l 1,3,4
 73 -840 73 -840 84 -818 c 1,5,6
 97 -800 97 -800 136 -777 c 2,7,-1
 408 -620 l 1,0,1
408 -767 m 1,8,9
 408 -833 408 -833 373 -853 c 2,10,-1
 70 -1025 l 1,11,12
 73 -987 73 -987 84 -965 c 1,13,14
 97 -947 97 -947 136 -924 c 2,15,-1
 408 -767 l 1,8,9
EndSplineSet
EndChar

StartChar: fathaisolated
Encoding: 65142 65142 77
Width: 408
Flags: W
LayerCount: 2
Fore
SplineSet
408 1708 m 1,0,1
 408 1642 408 1642 373 1622 c 2,2,-1
 70 1450 l 1,3,4
 73 1488 73 1488 84 1509 c 0,5,6
 96 1529 96 1529 136 1551 c 2,7,-1
 408 1708 l 1,0,1
EndSplineSet
EndChar

StartChar: fathamedial
Encoding: 65143 65143 78
Width: 1284
Flags: W
LayerCount: 2
Fore
SplineSet
811 1288 m 1,0,1
 811 1222 811 1222 776 1202 c 2,2,-1
 473 1030 l 1,3,4
 476 1068 476 1068 487 1089 c 0,5,6
 499 1109 499 1109 539 1131 c 2,7,-1
 811 1288 l 1,0,1
1354 129 m 1,8,-1
 0 129 l 1,9,-1
 0 250 l 1,10,-1
 1354 250 l 1,11,-1
 1354 129 l 1,8,-1
EndSplineSet
Ligature2: "'liga' Standard Ligatures in Arabic lookup 6 subtable" tatweel fatha
EndChar

StartChar: dammaisolated
Encoding: 65144 65144 79
Width: 414
Flags: W
LayerCount: 2
Fore
SplineSet
414 1641 m 1,0,-1
 406 1542 l 1,1,-1
 326 1594 l 1,2,3
 206 1450 206 1450 129 1450 c 0,4,5
 110 1450 110 1450 70 1462 c 1,6,7
 172 1519 172 1519 283 1618 c 1,8,9
 222 1663 222 1663 222 1708 c 0,10,11
 222 1768 222 1768 267 1833 c 0,12,13
 297 1876 297 1876 338 1876 c 0,14,15
 406 1876 406 1876 406 1788 c 0,16,17
 406 1737 406 1737 375 1671 c 1,18,19
 388 1660 388 1660 414 1641 c 1,0,-1
344 1729 m 0,20,21
 344 1752 344 1752 328 1771 c 128,-1,22
 312 1790 312 1790 291 1790 c 0,23,24
 273 1790 273 1790 273 1770 c 0,25,26
 273 1739 273 1739 338 1695 c 1,27,28
 344 1714 344 1714 344 1729 c 0,20,21
EndSplineSet
EndChar

StartChar: dammamedial
Encoding: 65145 65145 80
Width: 1284
Flags: W
LayerCount: 2
Fore
SplineSet
814 1221 m 1,0,-1
 806 1122 l 1,1,-1
 726 1174 l 1,2,3
 606 1030 606 1030 529 1030 c 0,4,5
 510 1030 510 1030 470 1042 c 1,6,7
 572 1099 572 1099 683 1198 c 1,8,9
 622 1243 622 1243 622 1288 c 0,10,11
 622 1348 622 1348 667 1413 c 0,12,13
 697 1456 697 1456 738 1456 c 0,14,15
 806 1456 806 1456 806 1368 c 0,16,17
 806 1317 806 1317 775 1251 c 1,18,19
 788 1240 788 1240 814 1221 c 1,0,-1
744 1309 m 0,20,21
 744 1332 744 1332 728 1351 c 128,-1,22
 712 1370 712 1370 691 1370 c 0,23,24
 673 1370 673 1370 673 1350 c 0,25,26
 673 1319 673 1319 738 1275 c 1,27,28
 744 1294 744 1294 744 1309 c 0,20,21
1354 129 m 1,29,-1
 0 129 l 1,30,-1
 0 250 l 1,31,-1
 1354 250 l 1,32,-1
 1354 129 l 1,29,-1
EndSplineSet
Ligature2: "'liga' Standard Ligatures in Arabic lookup 6 subtable" tatweel damma
EndChar

StartChar: kasraisolated
Encoding: 65146 65146 81
Width: 408
Flags: W
LayerCount: 2
Fore
SplineSet
408 -620 m 1,0,1
 408 -686 408 -686 373 -706 c 2,2,-1
 70 -878 l 1,3,4
 73 -840 73 -840 84 -818 c 1,5,6
 97 -800 97 -800 136 -777 c 2,7,-1
 408 -620 l 1,0,1
EndSplineSet
EndChar

StartChar: kasramedial
Encoding: 65147 65147 82
Width: 1284
Flags: W
LayerCount: 2
Fore
SplineSet
811 -71 m 1,0,1
 811 -137 811 -137 776 -157 c 2,2,-1
 473 -329 l 1,3,4
 476 -291 476 -291 487 -269 c 1,5,6
 500 -251 500 -251 539 -228 c 2,7,-1
 811 -71 l 1,0,1
1354 129 m 1,8,-1
 0 129 l 1,9,-1
 0 250 l 1,10,-1
 1354 250 l 1,11,-1
 1354 129 l 1,8,-1
EndSplineSet
Ligature2: "'liga' Standard Ligatures in Arabic lookup 6 subtable" tatweel kasra
EndChar

StartChar: shaddaisolated
Encoding: 65148 65148 83
Width: 420
Flags: W
LayerCount: 2
Fore
SplineSet
420 1683 m 0,0,1
 420 1515 420 1515 316 1515 c 0,2,3
 280 1515 280 1515 252 1536 c 1,4,5
 244 1501 244 1501 213 1476 c 0,6,7
 181 1450 181 1450 148 1450 c 0,8,9
 66 1450 66 1450 66 1558 c 0,10,11
 66 1583 66 1583 88 1659 c 1,12,-1
 111 1663 l 1,13,14
 111 1552 111 1552 150 1552 c 0,15,16
 214 1552 214 1552 240 1714 c 1,17,-1
 258 1720 l 1,18,19
 281 1622 281 1622 316 1622 c 0,20,21
 374 1622 374 1622 383 1769 c 1,22,-1
 406 1779 l 1,23,24
 420 1718 420 1718 420 1683 c 0,0,1
EndSplineSet
EndChar

StartChar: shaddamedial
Encoding: 65149 65149 84
Width: 1284
Flags: W
LayerCount: 2
Fore
SplineSet
819 1263 m 0,0,1
 819 1095 819 1095 715 1095 c 0,2,3
 679 1095 679 1095 651 1116 c 1,4,5
 643 1081 643 1081 612 1056 c 0,6,7
 580 1030 580 1030 547 1030 c 0,8,9
 465 1030 465 1030 465 1138 c 0,10,11
 465 1163 465 1163 487 1239 c 1,12,-1
 510 1243 l 1,13,14
 510 1132 510 1132 549 1132 c 0,15,16
 613 1132 613 1132 639 1294 c 1,17,-1
 657 1300 l 1,18,19
 680 1202 680 1202 715 1202 c 0,20,21
 773 1202 773 1202 782 1349 c 1,22,-1
 805 1359 l 1,23,24
 819 1298 819 1298 819 1263 c 0,0,1
1354 129 m 1,25,-1
 0 129 l 1,26,-1
 0 250 l 1,27,-1
 1354 250 l 1,28,-1
 1354 129 l 1,25,-1
EndSplineSet
Ligature2: "'liga' Standard Ligatures in Arabic lookup 6 subtable" tatweel shadda
EndChar

StartChar: sukunisolated
Encoding: 65150 65150 85
Width: 332
Flags: W
LayerCount: 2
Fore
SplineSet
332 1614 m 0,0,1
 332 1549 332 1549 286 1500 c 0,2,3
 239 1450 239 1450 181 1450 c 0,4,5
 74 1450 74 1450 74 1571 c 0,6,7
 74 1655 74 1655 112 1708 c 0,8,9
 149 1762 149 1762 211 1762 c 0,10,11
 258 1762 258 1762 295 1716 c 0,12,13
 332 1673 332 1673 332 1614 c 0,0,1
277 1590 m 0,14,15
 277 1616 277 1616 234 1647 c 0,16,17
 193 1676 193 1676 166 1676 c 0,18,19
 107 1676 107 1676 107 1608 c 0,20,21
 107 1549 107 1549 199 1549 c 0,22,23
 277 1549 277 1549 277 1590 c 0,14,15
EndSplineSet
EndChar

StartChar: sukunmedial
Encoding: 65151 65151 86
Width: 1284
Flags: W
LayerCount: 2
Fore
SplineSet
771 1194 m 0,0,1
 771 1129 771 1129 725 1080 c 0,2,3
 678 1030 678 1030 620 1030 c 0,4,5
 513 1030 513 1030 513 1151 c 0,6,7
 513 1235 513 1235 551 1288 c 0,8,9
 588 1342 588 1342 650 1342 c 0,10,11
 697 1342 697 1342 734 1296 c 0,12,13
 771 1253 771 1253 771 1194 c 0,0,1
716 1170 m 0,14,15
 716 1196 716 1196 673 1227 c 0,16,17
 632 1256 632 1256 605 1256 c 0,18,19
 546 1256 546 1256 546 1188 c 0,20,21
 546 1129 546 1129 638 1129 c 0,22,23
 716 1129 716 1129 716 1170 c 0,14,15
1354 129 m 1,24,-1
 0 129 l 1,25,-1
 0 250 l 1,26,-1
 1354 250 l 1,27,-1
 1354 129 l 1,24,-1
EndSplineSet
Ligature2: "'liga' Standard Ligatures in Arabic lookup 6 subtable" tatweel sukun
EndChar

StartChar: hamzaisolated
Encoding: 65152 65152 87
Width: 767
Flags: W
AnchorPoint: "ArabicBelow" 383 -385 basechar 0
AnchorPoint: "ArabicAbove" 383 746 basechar 0
LayerCount: 2
Fore
SplineSet
574 40 m 1,0,1
 541 40 541 40 510.5 36.5 c 128,-1,2
 480 33 480 33 454 25 c 2,3,-1
 337 -4 l 2,4,5
 327 -6 327 -6 282.5 -32 c 128,-1,6
 238 -58 238 -58 157 -109 c 2,7,-1
 117 -127 l 1,8,-1
 104 -135 l 1,9,10
 104 -126 104 -126 148 -70 c 0,11,12
 169 -47 169 -47 197 -24.5 c 128,-1,13
 225 -2 225 -2 262 17 c 2,14,-1
 286 29 l 1,15,-1
 281 53 l 1,16,17
 170 67 170 67 158 72 c 1,18,-1
 157 73 l 1,19,20
 83 93 83 93 83 136 c 0,21,22
 83 249 83 249 173 362 c 0,23,24
 280 496 280 496 443 496 c 0,25,26
 478 496 478 496 513 469 c 0,27,28
 549 434 549 434 549 402 c 1,29,-1
 473 295 l 1,30,-1
 441 319 l 2,31,32
 412 338 412 338 380.5 348.5 c 128,-1,33
 349 359 349 359 333 359 c 0,34,35
 309 359 309 359 294 354.5 c 128,-1,36
 279 350 279 350 252 335 c 0,37,38
 196 309 196 309 196 267 c 0,39,40
 196 220 196 220 336 194 c 2,41,-1
 487 178 l 1,42,-1
 582 173 l 1,43,-1
 662 173 l 1,44,-1
 574 40 l 1,0,1
EndSplineSet
EndChar

StartChar: alefwithmaddaaboveisolated
Encoding: 65153 65153 88
Width: 430
Flags: W
AnchorPoint: "ArabicBelow" 215 -283 basechar 0
AnchorPoint: "ArabicAbove" 215 1281 basechar 0
LayerCount: 2
Fore
SplineSet
501 1028 m 1,0,1
 502 1029 502 1029 509 1031 c 1,2,-1
 473 989 l 1,3,4
 390 929 390 929 341 929 c 0,5,6
 291 929 291 929 254 939 c 2,7,-1
 229 949 l 1,8,-1
 192 971 l 1,9,-1
 175 966 l 1,10,11
 170 956 170 956 164 945 c 128,-1,12
 158 934 158 934 148 920 c 1,13,-1
 148 919 l 1,14,15
 135 901 135 901 130 896 c 1,16,-1
 174 989 l 1,17,-1
 195 1026 l 1,18,19
 203 1021 203 1021 217.5 1014.5 c 128,-1,20
 232 1008 232 1008 249 1000 c 2,21,-1
 301 982 l 2,22,23
 325 976 325 976 348 976 c 0,24,25
 395 976 395 976 500 1028 c 1,26,-1
 501 1028 l 1,27,-1
 501 1028 l 1,0,1
353 297 m 1,28,29
 353 169 353 169 318 67 c 0,30,31
 307 34 307 34 295.5 9 c 128,-1,32
 284 -16 284 -16 271 -33 c 1,33,-1
 199 620 l 2,34,35
 199 631 199 631 218 665 c 128,-1,36
 237 699 237 699 272 760 c 2,37,-1
 313 832 l 1,38,39
 315 820 315 820 317 804.5 c 128,-1,40
 319 789 319 789 322 766 c 128,-1,41
 325 743 325 743 328.5 710.5 c 128,-1,42
 332 678 332 678 337 631 c 2,43,-1
 353 465 l 1,44,-1
 353 297 l 1,45,-1
 353 297 l 1,28,29
EndSplineSet
EndChar

StartChar: alefwithmaddaabovefinal
Encoding: 65154 65154 89
Width: 496
Flags: W
AnchorPoint: "ArabicBelow" 248 -250 basechar 0
AnchorPoint: "ArabicAbove" 248 1448 basechar 0
LayerCount: 2
Fore
SplineSet
473 1194 m 0,0,1
 476 1195 476 1195 478.5 1196 c 128,-1,2
 481 1197 481 1197 483 1198 c 1,3,-1
 440 1149 l 1,4,5
 352 1082 352 1082 297 1082 c 2,6,-1
 238 1082 l 1,7,-1
 197 1092 l 2,8,9
 186 1095 186 1095 170 1104.5 c 128,-1,10
 154 1114 154 1114 131 1130 c 1,11,-1
 114 1126 l 1,12,-1
 86 1079 l 2,13,14
 71 1057 71 1057 56 1042 c 1,15,16
 61 1053 61 1053 69 1070.5 c 128,-1,17
 77 1088 77 1088 89 1114 c 2,18,-1
 133 1193 l 1,19,-1
 220 1156 l 2,20,21
 265 1140 265 1140 305 1140 c 0,22,23
 330 1140 330 1140 371.5 1153 c 128,-1,24
 413 1166 413 1166 473 1194 c 0,0,1
235 0 m 1,25,-1
 161 867 l 1,26,-1
 265 995 l 1,27,28
 265 950 265 950 274.5 848 c 128,-1,29
 284 746 284 746 301 583 c 0,30,31
 318 417 318 417 330 332.5 c 128,-1,32
 342 248 342 248 344 240 c 1,33,34
 345 229 345 229 359 206 c 0,35,36
 366 194 366 194 392 187 c 1,37,-1
 427 184 l 1,38,-1
 504 184 l 1,39,-1
 504 0 l 1,40,-1
 235 0 l 1,25,-1
EndSplineSet
EndChar

StartChar: alefwithhamzaaboveisolated
Encoding: 65155 65155 90
Width: 428
Flags: W
AnchorPoint: "ArabicBelow" 214 -283 basechar 0
AnchorPoint: "ArabicAbove" 214 1364 basechar 0
LayerCount: 2
Fore
SplineSet
365 929 m 1,0,-1
 315 924 l 2,1,2
 277 920 277 920 215 881 c 2,3,-1
 162 846 l 1,4,5
 161 848 161 848 161 852 c 0,6,7
 161 871 161 871 193 897 c 2,8,-1
 232 929 l 1,9,-1
 199 932 l 1,10,-1
 183 935 l 1,11,-1
 165 941 l 2,12,13
 136 949 136 949 136 964 c 0,14,15
 136 1005 136 1005 177 1056 c 0,16,17
 223 1114 223 1114 284 1114 c 0,18,19
 300 1114 300 1114 310 1104.5 c 128,-1,20
 320 1095 320 1095 324 1080 c 1,21,-1
 319 1066 l 2,22,23
 316 1057 316 1057 313 1054 c 1,24,25
 308 1043 308 1043 301 1035 c 1,26,27
 286 1065 286 1065 249 1065 c 0,28,29
 222 1065 222 1065 203 1055.5 c 128,-1,30
 184 1046 184 1046 175 1026 c 1,31,-1
 174 1018 l 2,32,33
 174 1002 174 1002 205 995 c 2,34,-1
 250 985 l 1,35,-1
 394 985 l 1,36,-1
 365 929 l 1,0,-1
356 297 m 0,37,38
 356 231 356 231 347.5 174.5 c 128,-1,39
 339 118 339 118 322 67 c 0,40,41
 301 5 301 5 272 -33 c 1,42,-1
 184 685 l 2,43,44
 184 691 184 691 196.5 716.5 c 128,-1,45
 209 742 209 742 237 787 c 2,46,-1
 305 896 l 1,47,-1
 325 734 l 2,48,49
 333 658 333 658 338.5 597 c 128,-1,50
 344 536 344 536 348 488 c 0,51,52
 352 441 352 441 354 393.5 c 128,-1,53
 356 346 356 346 356 297 c 0,37,38
EndSplineSet
EndChar

StartChar: alefwithhamzaabovefinal
Encoding: 65156 65156 91
Width: 498
Flags: W
AnchorPoint: "ArabicBelow" 249 -250 basechar 0
AnchorPoint: "ArabicAbove" 249 1502 basechar 0
LayerCount: 2
Fore
SplineSet
255 0 m 1,0,-1
 186 832 l 1,1,-1
 292 960 l 1,2,3
 292 866 292 866 325 565 c 0,4,5
 341 415 341 415 351 335 c 128,-1,6
 361 255 361 255 365 243 c 1,7,-1
 367 227 l 1,8,-1
 379 203 l 1,9,10
 387 195 387 195 412 187 c 1,11,-1
 446 184 l 1,12,-1
 506 184 l 1,13,-1
 506 0 l 1,14,-1
 255 0 l 1,0,-1
381 1050 m 1,15,-1
 327 1044 l 2,16,17
 284 1040 284 1040 217 997 c 2,18,-1
 159 959 l 1,19,20
 158 961 158 961 158 965 c 0,21,22
 158 983 158 983 193 1015 c 2,23,-1
 236 1050 l 1,24,-1
 200 1053 l 1,25,-1
 182 1056 l 1,26,-1
 163 1063 l 2,27,28
 131 1071 131 1071 131 1088 c 0,29,30
 131 1130 131 1130 175 1189 c 0,31,32
 227 1252 227 1252 293 1252 c 0,33,34
 310 1252 310 1252 321 1241.5 c 128,-1,35
 332 1231 332 1231 336 1215 c 1,36,-1
 331 1200 l 2,37,38
 328 1190 328 1190 324 1186 c 1,39,40
 318 1173 318 1173 311 1166 c 1,41,42
 294 1198 294 1198 254 1198 c 0,43,44
 193 1198 193 1198 174 1156 c 1,45,-1
 172 1147 l 1,46,47
 172 1129 172 1129 206 1122 c 2,48,-1
 256 1111 l 1,49,-1
 413 1111 l 1,50,-1
 381 1050 l 1,15,-1
EndSplineSet
EndChar

StartChar: wawwithhamzaaboveisolated
Encoding: 65157 65157 92
Width: 842
Flags: W
AnchorPoint: "ArabicBelow" 421 -678 basechar 0
AnchorPoint: "ArabicAbove" 421 1163 basechar 0
LayerCount: 2
Fore
SplineSet
673 256 m 1,0,1
 673 309 673 309 635 347 c 0,2,3
 595 385 595 385 553 385 c 0,4,5
 514 385 514 385 471 357 c 0,6,7
 451 343 451 343 439 325.5 c 128,-1,8
 427 308 427 308 423 298 c 0,9,10
 421 290 421 290 421 285 c 2,11,-1
 422 275 l 1,12,13
 425 264 425 264 457 238 c 1,14,15
 480 225 480 225 497.5 218.5 c 128,-1,16
 515 212 515 212 527.5 210 c 128,-1,17
 540 208 540 208 548 207.5 c 128,-1,18
 556 207 556 207 559 206 c 1,19,-1
 562 206 l 2,20,21
 569 206 569 206 581 206.5 c 128,-1,22
 593 207 593 207 609 212 c 0,23,24
 625 219 625 219 636.5 222.5 c 128,-1,25
 648 226 648 226 655.5 230 c 128,-1,26
 663 234 663 234 667 239.5 c 128,-1,27
 671 245 671 245 673 256 c 1,0,1
818 217 m 0,28,29
 818 114 818 114 795 9 c 128,-1,30
 772 -96 772 -96 724 -197 c 0,31,32
 616 -428 616 -428 468 -428 c 0,33,34
 438 -428 438 -428 407 -425 c 128,-1,35
 376 -422 376 -422 344 -417 c 0,36,37
 314 -412 314 -412 276.5 -402.5 c 128,-1,38
 239 -393 239 -393 191 -379 c 0,39,40
 11 -336 11 -336 11 -309 c 1,41,-1
 27 -309 l 1,42,-1
 54 -312 l 1,43,-1
 206 -342 l 1,44,-1
 256 -346 l 2,45,46
 284 -346 284 -346 309 -341 c 128,-1,47
 334 -336 334 -336 357 -325 c 0,48,49
 429 -295 429 -295 497.5 -244.5 c 128,-1,50
 566 -194 566 -194 626 -128 c 256,51,52
 686 -62 686 -62 720 1.5 c 128,-1,53
 754 65 754 65 754 119 c 0,54,55
 754 143 754 143 747 177 c 1,56,57
 745 182 745 182 741.5 192 c 128,-1,58
 738 202 738 202 733 216 c 1,59,-1
 711 216 l 1,60,-1
 702 188 l 2,61,62
 682 146 682 146 668 120.5 c 128,-1,63
 654 95 654 95 646 81 c 0,64,65
 607 27 607 27 502 27 c 0,66,67
 437 27 437 27 396 83 c 0,68,69
 391 91 391 91 386.5 102.5 c 128,-1,70
 382 114 382 114 380 122 c 0,71,72
 378 131 378 131 374.5 163 c 128,-1,73
 371 195 371 195 371 237 c 0,74,75
 371 299 371 299 468 440 c 0,76,77
 516 509 516 509 556 544 c 128,-1,78
 596 579 596 579 631 579 c 0,79,80
 680 579 680 579 748 459 c 0,81,82
 781 399 781 399 799.5 339.5 c 128,-1,83
 818 280 818 280 818 217 c 0,28,29
604 711 m 1,84,-1
 550 705 l 2,85,86
 507 701 507 701 440 658 c 2,87,-1
 382 620 l 1,88,89
 381 622 381 622 381 626 c 0,90,91
 381 644 381 644 416 676 c 2,92,-1
 459 711 l 1,93,-1
 423 714 l 1,94,-1
 405 717 l 1,95,-1
 386 724 l 2,96,97
 354 732 354 732 354 749 c 0,98,99
 354 791 354 791 398 850 c 0,100,101
 450 913 450 913 516 913 c 0,102,103
 533 913 533 913 544 902.5 c 128,-1,104
 555 892 555 892 559 876 c 1,105,-1
 554 861 l 2,106,107
 551 851 551 851 547 847 c 1,108,109
 541 834 541 834 534 827 c 1,110,111
 517 859 517 859 477 859 c 0,112,113
 416 859 416 859 397 817 c 1,114,-1
 395 808 l 1,115,116
 395 790 395 790 429 783 c 2,117,-1
 479 772 l 1,118,-1
 636 772 l 1,119,-1
 604 711 l 1,84,-1
EndSplineSet
EndChar

StartChar: wawwithhamzaabovefinal
Encoding: 65158 65158 93
Width: 842
Flags: W
AnchorPoint: "ArabicBelow" 421 -660 basechar 0
AnchorPoint: "ArabicAbove" 421 1192 basechar 0
LayerCount: 2
Fore
SplineSet
622 318 m 1,0,-1
 606 342 l 2,1,2
 571 396 571 396 523 396 c 0,3,4
 503 396 503 396 488 389 c 128,-1,5
 473 382 473 382 461.5 370.5 c 128,-1,6
 450 359 450 359 440 343.5 c 128,-1,7
 430 328 430 328 421 310 c 1,8,-1
 419 304 l 1,9,10
 419 259 419 259 470 222 c 1,11,-1
 471 222 l 1,12,13
 497 206 497 206 522 199 c 128,-1,14
 547 192 547 192 576 192 c 0,15,16
 632 192 632 192 651 226 c 1,17,-1
 652 236 l 1,18,-1
 634 294 l 1,19,-1
 622 318 l 1,0,-1
774 0 m 1,20,-1
 762 -1 l 1,21,22
 745 -73 745 -73 711.5 -136.5 c 128,-1,23
 678 -200 678 -200 627 -265 c 0,24,25
 512 -410 512 -410 404 -410 c 0,26,27
 372 -410 372 -410 316.5 -391.5 c 128,-1,28
 261 -373 261 -373 176 -337 c 0,29,30
 14 -266 14 -266 9 -240 c 1,31,32
 9 -242 9 -242 155 -283 c 0,33,34
 167 -285 167 -285 178 -286.5 c 128,-1,35
 189 -288 189 -288 200 -288 c 0,36,37
 274 -288 274 -288 339 -270 c 0,38,39
 371 -261 371 -261 407 -242 c 128,-1,40
 443 -223 443 -223 483 -193 c 0,41,42
 521 -165 521 -165 552.5 -139.5 c 128,-1,43
 584 -114 584 -114 608 -92 c 2,44,-1
 646 -53 l 1,45,-1
 647 -53 l 1,46,-1
 662 -37 l 1,47,-1
 678 0 l 1,48,-1
 639 0 l 2,49,50
 524 0 524 0 444 23 c 1,51,-1
 444 24 l 1,52,53
 331 56 331 56 331 143 c 0,54,55
 331 209 331 209 409 374 c 0,56,57
 503 575 503 575 595 575 c 0,58,59
 666 575 666 575 734 405 c 0,60,61
 786 273 786 273 786 210 c 2,62,-1
 786 184 l 1,63,-1
 844 184 l 1,64,-1
 844 0 l 1,65,-1
 774 0 l 1,20,-1
607 740 m 1,66,-1
 553 734 l 2,67,68
 510 730 510 730 443 687 c 2,69,-1
 385 649 l 1,70,71
 384 651 384 651 384 655 c 0,72,73
 384 673 384 673 419 705 c 2,74,-1
 462 740 l 1,75,-1
 426 743 l 1,76,-1
 408 746 l 1,77,-1
 389 753 l 2,78,79
 357 761 357 761 357 778 c 0,80,81
 357 820 357 820 401 879 c 0,82,83
 453 942 453 942 519 942 c 0,84,85
 536 942 536 942 547 931.5 c 128,-1,86
 558 921 558 921 562 905 c 1,87,-1
 557 890 l 2,88,89
 554 880 554 880 550 876 c 1,90,91
 544 863 544 863 537 856 c 1,92,93
 520 888 520 888 480 888 c 0,94,95
 419 888 419 888 400 846 c 1,96,-1
 398 837 l 1,97,98
 398 819 398 819 432 812 c 2,99,-1
 482 801 l 1,100,-1
 639 801 l 1,101,-1
 607 740 l 1,66,-1
EndSplineSet
EndChar

StartChar: alefwithhamzabelowisolated
Encoding: 65159 65159 94
Width: 428
Flags: W
AnchorPoint: "ArabicBelow" 214 -543 basechar 0
AnchorPoint: "ArabicAbove" 214 1146 basechar 0
LayerCount: 2
Fore
SplineSet
340 297 m 0,0,1
 340 231 340 231 331.5 174.5 c 128,-1,2
 323 118 323 118 306 67 c 0,3,4
 285 5 285 5 256 -33 c 1,5,-1
 168 685 l 2,6,7
 168 691 168 691 180.5 716.5 c 128,-1,8
 193 742 193 742 221 787 c 2,9,-1
 289 896 l 1,10,-1
 309 734 l 2,11,12
 317 658 317 658 322.5 597 c 128,-1,13
 328 536 328 536 332 488 c 0,14,15
 336 441 336 441 338 393.5 c 128,-1,16
 340 346 340 346 340 297 c 0,0,1
339 -219 m 1,17,-1
 295 -224 l 2,18,19
 257 -229 257 -229 206 -262 c 2,20,-1
 159 -293 l 1,21,22
 158 -291 158 -291 158 -287 c 0,23,24
 158 -272 158 -272 186 -248 c 2,25,-1
 221 -219 l 1,26,-1
 192 -217 l 1,27,-1
 177 -214 l 1,28,-1
 162 -209 l 2,29,30
 136 -203 136 -203 136 -188 c 0,31,32
 136 -153 136 -153 172 -106 c 0,33,34
 214 -55 214 -55 268 -55 c 0,35,36
 281 -55 281 -55 290 -63.5 c 128,-1,37
 299 -72 299 -72 302 -85 c 1,38,-1
 298 -97 l 1,39,40
 297 -103 297 -103 293 -109 c 2,41,42
 289 -118 289 -118 282 -125 c 1,43,44
 268 -99 268 -99 236 -99 c 0,45,46
 187 -99 187 -99 171 -133 c 1,47,-1
 169 -140 l 1,48,49
 169 -154 169 -154 197 -161 c 2,50,-1
 238 -170 l 1,51,-1
 365 -170 l 1,52,-1
 339 -219 l 1,17,-1
EndSplineSet
EndChar

StartChar: alefwithhamzabelowfinal
Encoding: 65160 65160 95
Width: 403
Flags: W
AnchorPoint: "ArabicBelow" 201 -513 basechar 0
AnchorPoint: "ArabicAbove" 201 1210 basechar 0
LayerCount: 2
Fore
SplineSet
324 -189 m 1,0,-1
 280 -194 l 2,1,2
 242 -199 242 -199 191 -232 c 2,3,-1
 144 -263 l 1,4,5
 143 -261 143 -261 143 -257 c 0,6,7
 143 -242 143 -242 171 -218 c 2,8,-1
 206 -189 l 1,9,-1
 177 -187 l 1,10,-1
 162 -184 l 1,11,-1
 147 -179 l 2,12,13
 121 -173 121 -173 121 -158 c 0,14,15
 121 -123 121 -123 157 -76 c 0,16,17
 199 -25 199 -25 253 -25 c 0,18,19
 266 -25 266 -25 275 -33.5 c 128,-1,20
 284 -42 284 -42 287 -55 c 1,21,-1
 283 -67 l 1,22,23
 282 -73 282 -73 278 -79 c 2,24,25
 274 -88 274 -88 267 -95 c 1,26,27
 253 -69 253 -69 221 -69 c 0,28,29
 172 -69 172 -69 156 -103 c 1,30,-1
 154 -110 l 1,31,32
 154 -124 154 -124 182 -131 c 2,33,-1
 223 -140 l 1,34,-1
 350 -140 l 1,35,-1
 324 -189 l 1,0,-1
164 0 m 1,36,-1
 95 832 l 1,37,-1
 201 960 l 1,38,39
 201 866 201 866 234 565 c 0,40,41
 250 415 250 415 260 335 c 128,-1,42
 270 255 270 255 274 243 c 1,43,-1
 276 227 l 1,44,-1
 288 203 l 1,45,46
 296 195 296 195 321 187 c 1,47,-1
 355 184 l 1,48,-1
 415 184 l 1,49,-1
 415 0 l 1,50,-1
 164 0 l 1,36,-1
EndSplineSet
EndChar

StartChar: yehwithhamzaaboveisolated
Encoding: 65161 65161 96
Width: 1085
Flags: W
AnchorPoint: "ArabicBelow" 542 -705 basechar 0
AnchorPoint: "ArabicAbove" 542 1002 basechar 0
LayerCount: 2
Fore
SplineSet
1117 588 m 2,0,1
 1117 528 1117 528 1101.5 494.5 c 128,-1,2
 1086 461 1086 461 1069 461 c 0,3,4
 1066 461 1066 461 1060.5 467.5 c 128,-1,5
 1055 474 1055 474 1047 482 c 128,-1,6
 1039 490 1039 490 1029.5 498 c 128,-1,7
 1020 506 1020 506 1011 509 c 1,8,-1
 961 516 l 2,9,10
 949 516 949 516 924 499.5 c 128,-1,11
 899 483 899 483 867.5 456 c 128,-1,12
 836 429 836 429 803 395.5 c 128,-1,13
 770 362 770 362 743 327.5 c 128,-1,14
 716 293 716 293 698.5 261.5 c 128,-1,15
 681 230 681 230 681 207 c 0,16,17
 681 183 681 183 697 170 c 1,18,-1
 736 167 l 1,19,-1
 928 137 l 1,20,-1
 984 124 l 1,21,-1
 1007 114 l 2,22,23
 1055 87 1055 87 1055 24 c 2,24,-1
 1055 12 l 2,25,26
 1055 -2 1055 -2 1053 -20 c 128,-1,27
 1051 -38 1051 -38 1041 -54 c 0,28,29
 979 -180 979 -180 944 -214.5 c 128,-1,30
 909 -249 909 -249 863 -282.5 c 128,-1,31
 817 -316 817 -316 761.5 -347.5 c 128,-1,32
 706 -379 706 -379 643.5 -402.5 c 128,-1,33
 581 -426 581 -426 513 -440.5 c 128,-1,34
 445 -455 445 -455 375 -455 c 0,35,36
 330 -455 330 -455 285.5 -446.5 c 128,-1,37
 241 -438 241 -438 202 -422 c 128,-1,38
 163 -406 163 -406 130 -382.5 c 128,-1,39
 97 -359 97 -359 74 -329 c 0,40,41
 -21 -204 -21 -204 -21 -53 c 0,42,43
 -21 -1 -21 -1 30 157 c 0,44,45
 81 316 81 316 108 328 c 1,46,-1
 112 328 l 2,47,48
 120 328 120 328 120 314 c 128,-1,49
 120 300 120 300 108 276 c 0,50,51
 82 237 82 237 72.5 174 c 128,-1,52
 63 111 63 111 63 39 c 0,53,54
 63 -19 63 -19 83.5 -74.5 c 128,-1,55
 104 -130 104 -130 148.5 -173 c 128,-1,56
 193 -216 193 -216 263 -242.5 c 128,-1,57
 333 -269 333 -269 432 -269 c 0,58,59
 481 -269 481 -269 524.5 -262 c 128,-1,60
 568 -255 568 -255 609 -242.5 c 128,-1,61
 650 -230 650 -230 691 -212 c 128,-1,62
 732 -194 732 -194 776 -173 c 0,63,64
 817 -153 817 -153 850 -132.5 c 128,-1,65
 883 -112 883 -112 906.5 -93 c 128,-1,66
 930 -74 930 -74 943 -58.5 c 128,-1,67
 956 -43 956 -43 956 -33 c 0,68,69
 956 -30 956 -30 955 -29 c 2,70,71
 955 -17 955 -17 932 -14 c 0,72,73
 841 -8 841 -8 829.5 -7 c 128,-1,74
 818 -6 818 -6 795 0 c 2,75,-1
 758 6 l 2,76,77
 715 14 715 14 687.5 22 c 128,-1,78
 660 30 660 30 643 40 c 128,-1,79
 626 50 626 50 617 62.5 c 128,-1,80
 608 75 608 75 602 92 c 1,81,-1
 600 133 l 2,82,83
 600 185 600 185 617.5 246.5 c 128,-1,84
 635 308 635 308 665.5 370.5 c 128,-1,85
 696 433 696 433 737 493 c 128,-1,86
 778 553 778 553 825.5 601.5 c 128,-1,87
 873 650 873 650 924.5 684 c 128,-1,88
 976 718 976 718 1028 729 c 1,89,90
 1073 708 1073 708 1095 680 c 128,-1,91
 1117 652 1117 652 1117 614 c 2,92,-1
 1117 588 l 2,0,1
278 550 m 1,93,-1
 224 544 l 2,94,95
 181 540 181 540 114 497 c 2,96,-1
 56 459 l 1,97,98
 55 461 55 461 55 465 c 0,99,100
 55 483 55 483 90 515 c 2,101,-1
 133 550 l 1,102,-1
 97 553 l 1,103,-1
 79 556 l 1,104,-1
 60 563 l 2,105,106
 28 571 28 571 28 588 c 0,107,108
 28 630 28 630 72 689 c 0,109,110
 124 752 124 752 190 752 c 0,111,112
 207 752 207 752 218 741.5 c 128,-1,113
 229 731 229 731 233 715 c 1,114,-1
 228 700 l 2,115,116
 225 690 225 690 221 686 c 1,117,118
 215 673 215 673 208 666 c 1,119,120
 191 698 191 698 151 698 c 0,121,122
 90 698 90 698 71 656 c 1,123,-1
 69 647 l 1,124,125
 69 629 69 629 103 622 c 2,126,-1
 153 611 l 1,127,-1
 310 611 l 1,128,-1
 278 550 l 1,93,-1
EndSplineSet
EndChar

StartChar: yehwithhamzaabovefinal
Encoding: 65162 65162 97
Width: 1046
Flags: W
AnchorPoint: "ArabicBelow" 523 -871 basechar 0
AnchorPoint: "ArabicAbove" 523 822 basechar 0
LayerCount: 2
Fore
SplineSet
1038 -234 m 1,0,-1
 1022 -274 l 2,1,2
 1010 -301 1010 -301 979 -337.5 c 128,-1,3
 948 -374 948 -374 906.5 -411.5 c 128,-1,4
 865 -449 865 -449 817 -483.5 c 128,-1,5
 769 -518 769 -518 724 -540 c 0,6,7
 687 -558 687 -558 636 -573 c 128,-1,8
 585 -588 585 -588 530.5 -598.5 c 128,-1,9
 476 -609 476 -609 422 -615 c 128,-1,10
 368 -621 368 -621 326 -621 c 0,11,12
 279 -621 279 -621 231 -606.5 c 128,-1,13
 183 -592 183 -592 141.5 -565 c 128,-1,14
 100 -538 100 -538 67.5 -499.5 c 128,-1,15
 35 -461 35 -461 19 -413 c 0,16,17
 -1 -351 -1 -351 -1 -262 c 0,18,19
 -1 -246 -1 -246 0 -229 c 128,-1,20
 1 -212 1 -212 4 -194 c 2,21,-1
 12 -148 l 1,22,-1
 25 -102 l 2,23,24
 43 -41 43 -41 69.5 11.5 c 128,-1,25
 96 64 96 64 134 92 c 2,26,-1
 156 104 l 1,27,-1
 160 101 l 1,28,-1
 159 91 l 2,29,30
 159 81 159 81 151 66.5 c 128,-1,31
 143 52 143 52 132.5 32 c 128,-1,32
 122 12 122 12 111.5 -13.5 c 128,-1,33
 101 -39 101 -39 95 -71 c 2,34,-1
 81 -143 l 1,35,-1
 76 -201 l 2,36,37
 76 -286 76 -286 119 -340 c 128,-1,38
 162 -394 162 -394 244 -429 c 0,39,40
 299 -453 299 -453 346 -453 c 2,41,-1
 497 -453 l 2,42,43
 554 -453 554 -453 614 -438.5 c 128,-1,44
 674 -424 674 -424 734 -394.5 c 128,-1,45
 794 -365 794 -365 853 -320.5 c 128,-1,46
 912 -276 912 -276 966 -216 c 1,47,-1
 935 -191 l 1,48,49
 929 -190 929 -190 915.5 -187 c 128,-1,50
 902 -184 902 -184 885 -179.5 c 128,-1,51
 868 -175 868 -175 849 -169.5 c 128,-1,52
 830 -164 830 -164 813 -159 c 2,53,-1
 737 -146 l 2,54,55
 710 -141 710 -141 687.5 -137.5 c 128,-1,56
 665 -134 665 -134 648.5 -130 c 128,-1,57
 632 -126 632 -126 622 -120.5 c 128,-1,58
 612 -115 612 -115 611 -105 c 0,59,60
 611 -77 611 -77 639 -22 c 2,61,-1
 662 20 l 1,62,63
 679 34 679 34 722 58.5 c 128,-1,64
 765 83 765 83 819.5 107 c 128,-1,65
 874 131 874 131 934.5 148.5 c 128,-1,66
 995 166 995 166 1047 166 c 1,67,-1
 1047 0 l 1,68,69
 1012 0 1012 0 984 -1.5 c 128,-1,70
 956 -3 956 -3 936 -8 c 2,71,-1
 858 -25 l 1,72,-1
 941 -47 l 1,73,-1
 1012 -82 l 1,74,75
 1025 -92 1025 -92 1036 -124 c 128,-1,76
 1047 -156 1047 -156 1047 -195 c 1,77,-1
 1038 -234 l 1,0,-1
313 370 m 1,78,-1
 259 364 l 2,79,80
 216 360 216 360 149 317 c 2,81,-1
 91 279 l 1,82,83
 90 281 90 281 90 285 c 0,84,85
 90 303 90 303 125 335 c 2,86,-1
 168 370 l 1,87,-1
 132 373 l 1,88,-1
 114 376 l 1,89,-1
 95 383 l 2,90,91
 63 391 63 391 63 408 c 0,92,93
 63 450 63 450 107 509 c 0,94,95
 159 572 159 572 225 572 c 0,96,97
 242 572 242 572 253 561.5 c 128,-1,98
 264 551 264 551 268 535 c 1,99,-1
 263 520 l 2,100,101
 260 510 260 510 256 506 c 1,102,103
 250 493 250 493 243 486 c 1,104,105
 226 518 226 518 186 518 c 0,106,107
 125 518 125 518 106 476 c 1,108,-1
 104 467 l 1,109,110
 104 449 104 449 138 442 c 2,111,-1
 188 431 l 1,112,-1
 345 431 l 1,113,-1
 313 370 l 1,78,-1
EndSplineSet
EndChar

StartChar: yehwithhamzaaboveinitial
Encoding: 65163 65163 98
Width: 646
Flags: W
AnchorPoint: "ArabicBelow" 323 -250 basechar 0
AnchorPoint: "ArabicAbove" 323 1232 basechar 0
LayerCount: 2
Fore
SplineSet
539 148 m 1,0,-1
 539 156 l 1,1,-1
 551 172 l 1,2,-1
 551 189 l 1,3,4
 545 212 545 212 539.5 230.5 c 128,-1,5
 534 249 534 249 527.5 265 c 128,-1,6
 521 281 521 281 513 296 c 128,-1,7
 505 311 505 311 495 328 c 0,8,9
 481 352 481 352 469.5 372.5 c 128,-1,10
 458 393 458 393 450 406 c 0,11,12
 438 422 l 128,-1,13
 432 430 432 430 427 438 c 1,14,-1
 427 440 l 1,15,16
 422 445 422 445 421.5 446 c 128,-1,17
 421 447 421 447 416 453 c 1,18,-1
 510 606 l 1,19,20
 529 579 529 579 544 555.5 c 128,-1,21
 559 532 559 532 572 511 c 0,22,23
 618 428 618 428 638 357 c 0,24,25
 644 328 644 328 644 298 c 2,26,-1
 644 253 l 1,27,-1
 606 0 l 1,28,-1
 2 0 l 1,29,-1
 2 148 l 1,30,-1
 539 148 l 1,0,-1
513 780 m 1,31,-1
 459 774 l 2,32,33
 416 770 416 770 349 727 c 2,34,-1
 291 689 l 1,35,36
 290 691 290 691 290 695 c 0,37,38
 290 713 290 713 325 745 c 2,39,-1
 368 780 l 1,40,-1
 332 783 l 1,41,-1
 314 786 l 1,42,-1
 295 793 l 2,43,44
 263 801 263 801 263 818 c 0,45,46
 263 860 263 860 307 919 c 0,47,48
 359 982 359 982 425 982 c 0,49,50
 442 982 442 982 453 971.5 c 128,-1,51
 464 961 464 961 468 945 c 1,52,-1
 463 930 l 2,53,54
 460 920 460 920 456 916 c 1,55,56
 450 903 450 903 443 896 c 1,57,58
 426 928 426 928 386 928 c 0,59,60
 325 928 325 928 306 886 c 1,61,-1
 304 877 l 1,62,63
 304 859 304 859 338 852 c 2,64,-1
 388 841 l 1,65,-1
 545 841 l 1,66,-1
 513 780 l 1,31,-1
EndSplineSet
EndChar

StartChar: yehwithhamzaabovemedial
Encoding: 65164 65164 99
Width: 642
Flags: W
AnchorPoint: "ArabicBelow" 321 -250 basechar 0
AnchorPoint: "ArabicAbove" 321 1070 basechar 0
LayerCount: 2
Fore
SplineSet
387 148 m 1,0,-1
 387 151 l 1,1,2
 397 157 397 157 403.5 179.5 c 128,-1,3
 410 202 410 202 417 237 c 1,4,-1
 417 240 l 2,5,6
 419 275 419 275 419.5 303.5 c 128,-1,7
 420 332 420 332 422 367 c 1,8,-1
 525 490 l 1,9,-1
 508 292 l 1,10,-1
 508 291 l 2,11,12
 508 260 508 260 517.5 236 c 128,-1,13
 527 212 527 212 544 192 c 1,14,-1
 544 191 l 1,15,16
 596 148 596 148 643 148 c 2,17,-1
 658 148 l 1,18,-1
 658 0 l 1,19,-1
 505 0 l 1,20,21
 418 117 418 117 410 117 c 0,22,23
 406 117 406 117 330 0 c 1,24,-1
 -15 0 l 1,25,-1
 -15 148 l 1,26,-1
 387 148 l 1,0,-1
432 618 m 1,27,-1
 378 612 l 2,28,29
 335 608 335 608 268 565 c 2,30,-1
 210 527 l 1,31,32
 209 529 209 529 209 533 c 0,33,34
 209 551 209 551 244 583 c 2,35,-1
 287 618 l 1,36,-1
 251 621 l 1,37,-1
 233 624 l 1,38,-1
 214 631 l 2,39,40
 182 639 182 639 182 656 c 0,41,42
 182 698 182 698 226 757 c 0,43,44
 278 820 278 820 344 820 c 0,45,46
 361 820 361 820 372 809.5 c 128,-1,47
 383 799 383 799 387 783 c 1,48,-1
 382 768 l 2,49,50
 379 758 379 758 375 754 c 1,51,52
 369 741 369 741 362 734 c 1,53,54
 345 766 345 766 305 766 c 0,55,56
 244 766 244 766 225 724 c 1,57,-1
 223 715 l 1,58,59
 223 697 223 697 257 690 c 2,60,-1
 307 679 l 1,61,-1
 464 679 l 1,62,-1
 432 618 l 1,27,-1
EndSplineSet
EndChar

StartChar: alefisolated
Encoding: 65165 65165 100
Width: 424
Flags: W
AnchorPoint: "ArabicBelow" 212 -293 basechar 0
AnchorPoint: "ArabicAbove" 212 1142 basechar 0
LayerCount: 2
Fore
SplineSet
300 285 m 0,0,1
 300 156 300 156 265 55 c 0,2,3
 249 4 249 4 213 -43 c 1,4,-1
 124 686 l 2,5,6
 124 691 124 691 178 779 c 0,7,8
 195 806 195 806 213.5 835.5 c 128,-1,9
 232 865 232 865 249 892 c 1,10,-1
 269 732 l 2,11,12
 277 654 277 654 282.5 591.5 c 128,-1,13
 288 529 288 529 292 479 c 0,14,15
 296 430 296 430 298 383 c 128,-1,16
 300 336 300 336 300 285 c 0,0,1
EndSplineSet
EndChar

StartChar: aleffinal
Encoding: 65166 65166 101
Width: 399
Flags: W
AnchorPoint: "ArabicBelow" 199 -250 basechar 0
AnchorPoint: "ArabicAbove" 199 1204 basechar 0
LayerCount: 2
Fore
SplineSet
104 0 m 1,0,-1
 35 823 l 1,1,-1
 143 954 l 1,2,3
 143 910 143 910 151.5 812 c 128,-1,4
 160 714 160 714 177 559 c 0,5,6
 194 401 194 401 204 318 c 128,-1,7
 214 235 214 235 219 223 c 1,8,-1
 221 213 l 1,9,-1
 221 204 l 1,10,-1
 233 179 l 1,11,-1
 233 174 l 1,12,13
 240 167 240 167 249 161 c 128,-1,14
 258 155 258 155 267 152 c 1,15,-1
 267 151 l 1,16,17
 275 150 275 150 284.5 149.5 c 128,-1,18
 294 149 294 149 302 148 c 2,19,-1
 364 148 l 1,20,-1
 364 0 l 1,21,-1
 104 0 l 1,0,-1
EndSplineSet
EndChar

StartChar: behisolated
Encoding: 65167 65167 102
Width: 1159
Flags: W
AnchorPoint: "ArabicBelow" 579 -717 basechar 0
AnchorPoint: "ArabicAbove" 579 814 basechar 0
LayerCount: 2
Fore
SplineSet
1143 315 m 2,0,1
 1142 297 1142 297 1140 279 c 128,-1,2
 1138 261 1138 261 1135 242 c 0,3,4
 1132 228 1132 228 1121.5 197.5 c 128,-1,5
 1111 167 1111 167 1094 119 c 0,6,7
 1075 65 1075 65 1062 35 c 128,-1,8
 1049 5 1049 5 1044 0 c 1,9,-1
 256 0 l 1,10,-1
 208 3 l 2,11,12
 205 3 205 3 199.5 3.5 c 128,-1,13
 194 4 194 4 192 5 c 0,14,15
 187 7 187 7 180.5 8.5 c 128,-1,16
 174 10 174 10 169 12 c 0,17,18
 146 19 146 19 126 29.5 c 128,-1,19
 106 40 106 40 89 55 c 1,20,-1
 89 56 l 1,21,22
 16 114 16 114 16 181 c 0,23,24
 16 204 16 204 18.5 230 c 128,-1,25
 21 256 21 256 27 286 c 1,26,-1
 27 287 l 1,27,28
 32 314 32 314 42.5 359.5 c 128,-1,29
 53 405 53 405 67 453 c 0,30,31
 93 544 93 544 117 544 c 1,32,-1
 118 549 l 1,33,34
 118 535 118 535 115 514 c 128,-1,35
 112 493 112 493 109 471 c 0,36,37
 107 458 107 458 105.5 445 c 128,-1,38
 104 432 104 432 102 421 c 0,39,40
 100 404 100 404 99 383 c 128,-1,41
 98 362 98 362 98 337 c 0,42,43
 98 275 98 275 135 239 c 0,44,45
 207 148 207 148 335 148 c 2,46,-1
 1013 148 l 2,47,48
 1022 149 1022 149 1027.5 151.5 c 128,-1,49
 1033 154 1033 154 1035.5 161 c 128,-1,50
 1038 168 1038 168 1039 180.5 c 128,-1,51
 1040 193 1040 193 1040 216 c 0,52,53
 1040 237 1040 237 1036 263.5 c 128,-1,54
 1032 290 1032 290 1020 315 c 0,55,56
 1013 331 1013 331 998 355 c 128,-1,57
 983 379 983 379 961 410 c 1,58,-1
 1049 564 l 1,59,60
 1077 519 1077 519 1093.5 492.5 c 128,-1,61
 1110 466 1110 466 1112 464 c 1,62,63
 1119 449 1119 449 1123.5 437 c 128,-1,64
 1128 425 1128 425 1132 413 c 1,65,-1
 1132 411 l 1,66,67
 1138 396 1138 396 1140.5 382 c 128,-1,68
 1143 368 1143 368 1143 357 c 2,69,-1
 1143 315 l 2,0,1
737 -358 m 1,70,-1
 656 -467 l 1,71,-1
 532 -378 l 1,72,-1
 611 -268 l 1,73,-1
 737 -358 l 1,70,-1
EndSplineSet
EndChar

StartChar: behfinal
Encoding: 65168 65168 103
Width: 1212
Flags: W
AnchorPoint: "ArabicBelow" 606 -738 basechar 0
AnchorPoint: "ArabicAbove" 606 776 basechar 0
LayerCount: 2
Fore
SplineSet
1119 0 m 1,0,1
 1002 117 1002 117 986 117 c 256,2,3
 970 117 970 117 880 0 c 1,4,-1
 168 0 l 2,5,6
 120 0 120 0 85.5 13 c 128,-1,7
 51 26 51 26 30 49 c 0,8,9
 7 78 7 78 -6 112 c 128,-1,10
 -19 146 -19 146 -19 181 c 0,11,12
 -19 277 -19 277 21 409 c 0,13,14
 55 526 55 526 73 526 c 1,15,-1
 71 502 l 2,16,17
 65 473 65 473 60 450.5 c 128,-1,18
 55 428 55 428 52 409 c 128,-1,19
 49 390 49 390 47.5 374 c 128,-1,20
 46 358 46 358 46 342 c 0,21,22
 46 306 46 306 53 275 c 1,23,-1
 53 274 l 1,24,25
 58 253 58 253 67 235.5 c 128,-1,26
 76 218 76 218 90 207 c 0,27,28
 109 190 109 190 123 179.5 c 128,-1,29
 137 169 137 169 142 165 c 0,30,31
 169 148 169 148 232 148 c 2,32,-1
 943 148 l 2,33,34
 954 148 954 148 966 225 c 1,35,-1
 966 226 l 2,36,37
 969 264 969 264 971.5 296.5 c 128,-1,38
 974 329 974 329 977 367 c 1,39,-1
 1080 493 l 1,40,41
 1077 440 1077 440 1074.5 404.5 c 128,-1,42
 1072 369 1072 369 1069 330 c 1,43,44
 1068 328 1068 328 1068 322 c 0,45,46
 1068 312 l 2,47,-1
 1068 301 l 2,48,49
 1068 225 1068 225 1101 192 c 0,50,51
 1123 170 1123 170 1138.5 159 c 128,-1,52
 1154 148 1154 148 1180 148 c 2,53,-1
 1231 148 l 1,54,-1
 1231 0 l 1,55,-1
 1119 0 l 1,0,1
691 -379 m 1,56,-1
 610 -488 l 1,57,-1
 486 -398 l 1,58,-1
 565 -289 l 1,59,-1
 691 -379 l 1,56,-1
EndSplineSet
EndChar

StartChar: behinitial
Encoding: 65169 65169 104
Width: 613
Flags: W
AnchorPoint: "ArabicBelow" 306 -738 basechar 0
AnchorPoint: "ArabicAbove" 306 835 basechar 0
LayerCount: 2
Fore
SplineSet
507 148 m 1,0,-1
 507 156 l 1,1,2
 516 169 516 169 516 191 c 0,3,4
 516 200 516 200 515.5 206 c 128,-1,5
 515 212 515 212 511 216 c 1,6,7
 509 220 509 220 504 232 c 128,-1,8
 499 244 499 244 491 264 c 0,9,10
 469 315 469 315 445.5 360.5 c 128,-1,11
 422 406 422 406 392 440 c 1,12,-1
 480 585 l 1,13,14
 518 527 518 527 541.5 486.5 c 128,-1,15
 565 446 565 446 579 414 c 0,16,17
 602 363 602 363 602 278 c 0,18,19
 602 255 602 255 600.5 231 c 128,-1,20
 599 207 599 207 595 177 c 2,21,-1
 595 176 l 1,22,-1
 583 77 l 2,23,24
 578 39 578 39 575 20 c 128,-1,25
 572 1 572 1 572 0 c 1,26,-1
 11 0 l 1,27,-1
 11 148 l 1,28,-1
 507 148 l 1,0,-1
428 -379 m 1,29,-1
 347 -488 l 1,30,-1
 223 -398 l 1,31,-1
 302 -289 l 1,32,-1
 428 -379 l 1,29,-1
EndSplineSet
EndChar

StartChar: behmedial
Encoding: 65170 65170 105
Width: 631
Flags: W
AnchorPoint: "ArabicBelow" 315 -707 basechar 0
AnchorPoint: "ArabicAbove" 315 738 basechar 0
LayerCount: 2
Fore
SplineSet
388 148 m 1,0,-1
 388 151 l 1,1,2
 395 154 395 154 406 188 c 0,3,4
 408 192 408 192 410 219 c 128,-1,5
 412 246 412 246 417 291 c 0,6,7
 419 308 419 308 420.5 323.5 c 128,-1,8
 422 339 422 339 424 363 c 1,9,10
 467 411 467 411 493 438.5 c 128,-1,11
 519 466 519 466 527 475 c 2,12,-1
 530 478 l 1,13,-1
 514 266 l 1,14,-1
 514 265 l 2,15,16
 514 223 514 223 543 187 c 1,17,-1
 543 185 l 1,18,19
 583 148 583 148 626 148 c 2,20,-1
 647 148 l 1,21,-1
 647 0 l 1,22,-1
 551 0 l 1,23,24
 437 117 437 117 422 117 c 0,25,26
 406 117 406 117 339 0 c 1,27,-1
 -16 0 l 1,28,-1
 -16 148 l 1,29,-1
 388 148 l 1,0,-1
484 -348 m 1,30,-1
 402 -457 l 1,31,-1
 278 -367 l 1,32,-1
 357 -258 l 1,33,-1
 484 -348 l 1,30,-1
530 478 m 1,34,-1
 531 488 l 1,35,-1
 531 478 l 1,36,-1
 530 478 l 1,34,-1
EndSplineSet
EndChar

StartChar: tehmarbutaisolated
Encoding: 65171 65171 106
Width: 582
Flags: W
AnchorPoint: "ArabicBelow" 291 -269 basechar 0
AnchorPoint: "ArabicAbove" 291 1213 basechar 0
LayerCount: 2
Fore
SplineSet
174 963 m 1,0,-1
 289 883 l 1,1,-1
 216 783 l 1,2,-1
 102 863 l 1,3,-1
 174 963 l 1,0,-1
359 963 m 1,4,-1
 474 883 l 1,5,-1
 401 783 l 1,6,-1
 287 863 l 1,7,-1
 359 963 l 1,4,-1
480 144 m 1,8,-1
 480 152 l 1,9,10
 482 155 482 155 485 158 c 128,-1,11
 488 161 488 161 491 165 c 1,12,-1
 491 177 l 2,13,14
 491 208 491 208 466 251 c 128,-1,15
 441 294 441 294 393 347 c 0,16,17
 342 404 342 404 310.5 433 c 128,-1,18
 279 462 279 462 268 462 c 1,19,-1
 268 455 l 1,20,21
 249 431 249 431 229.5 406.5 c 128,-1,22
 210 382 210 382 190 358 c 1,23,-1
 190 356 l 1,24,25
 167 323 167 323 154 295.5 c 128,-1,26
 141 268 141 268 137 247 c 1,27,-1
 137 243 l 2,28,29
 137 170 137 170 176 143 c 0,30,31
 191 134 191 134 213 128 c 128,-1,32
 235 122 235 122 261 122 c 0,33,34
 305 122 305 122 340.5 125 c 128,-1,35
 376 128 376 128 405 133 c 2,36,-1
 480 144 l 1,8,-1
557 252 m 1,37,-1
 515 132 l 2,38,39
 500 87 500 87 468 63 c 1,40,-1
 357 12 l 1,41,-1
 286 -9 l 1,42,-1
 231 -19 l 1,43,44
 174 -19 174 -19 141.5 -16 c 128,-1,45
 109 -13 109 -13 92 -8 c 0,46,47
 54 2 54 2 33 19.5 c 128,-1,48
 12 37 12 37 12 60 c 0,49,50
 12 99 12 99 29 152 c 128,-1,51
 46 205 46 205 87 271 c 2,52,-1
 178 415 l 1,53,-1
 178 416 l 1,54,55
 213 475 213 475 247.5 522 c 128,-1,56
 282 569 282 569 318 608 c 1,57,-1
 518 443 l 1,58,-1
 539 414 l 1,59,-1
 557 379 l 2,60,61
 570 347 570 347 570 310 c 2,62,-1
 568 285 l 1,63,-1
 557 252 l 1,37,-1
EndSplineSet
EndChar

StartChar: tehmarbutafinal
Encoding: 65172 65172 107
Width: 707
Flags: W
AnchorPoint: "ArabicBelow" 353 -250 basechar 0
AnchorPoint: "ArabicAbove" 353 1295 basechar 0
LayerCount: 2
Fore
SplineSet
468 236 m 1,0,-1
 469 237 l 1,1,-1
 468 236 l 1,0,-1
8 128 m 1,2,3
 7 127 7 127 7 129 c 1,4,5
 6 129 6 129 6.5 128.5 c 128,-1,6
 7 128 7 128 8 128 c 1,2,3
468 236 m 1,7,8
 462 229 462 229 449 226 c 1,9,10
 455 230 455 230 458 232 c 1,11,-1
 458 234 l 1,12,13
 464 234 464 234 468 236 c 1,7,8
77 1026 m 1,14,-1
 192 945 l 1,15,-1
 119 846 l 1,16,-1
 5 926 l 1,17,-1
 77 1026 l 1,14,-1
336 1045 m 1,18,-1
 452 965 l 1,19,-1
 379 865 l 1,20,-1
 264 945 l 1,21,-1
 336 1045 l 1,18,-1
348 436 m 1,22,23
 340 425 340 425 322 412 c 128,-1,24
 304 399 304 399 275 385 c 2,25,-1
 166 330 l 1,26,-1
 166 270 l 1,27,28
 186 264 186 264 216.5 256.5 c 128,-1,29
 247 249 247 249 290 241 c 0,30,31
 334 233 334 233 369.5 229 c 128,-1,32
 405 225 405 225 432 225 c 0,33,34
 444 225 444 225 449 226 c 1,35,36
 438 216 438 216 424 190.5 c 128,-1,37
 410 165 410 165 390 124 c 0,38,39
 360 65 360 65 326 65 c 0,40,41
 319 65 319 65 175 95 c 0,42,43
 149 100 149 100 127.5 104.5 c 128,-1,44
 106 109 106 109 89 113 c 0,45,46
 61 119 61 119 45.5 122.5 c 128,-1,47
 30 126 30 126 25 127 c 1,48,49
 19 127 19 127 14.5 127.5 c 128,-1,50
 10 128 10 128 8 128 c 1,51,52
 13 134 13 134 27 176 c 0,53,54
 35 202 35 202 47 233 c 128,-1,55
 59 264 59 264 76 301 c 0,56,57
 101 355 101 355 126 381 c 0,58,59
 134 389 134 389 159.5 406 c 128,-1,60
 185 423 185 423 226 446 c 0,61,62
 270 473 270 473 315.5 501 c 128,-1,63
 361 529 361 529 404 556 c 1,64,-1
 404 562 l 1,65,66
 406 564 406 564 407 567 c 128,-1,67
 408 570 408 570 410 572 c 1,68,-1
 410 583 l 2,69,70
 410 607 410 607 396 647 c 1,71,-1
 482 790 l 1,72,73
 526 508 526 508 550 362 c 128,-1,74
 574 216 574 216 579 205 c 1,75,-1
 579 202 l 1,76,77
 584 194 584 194 588.5 187 c 128,-1,78
 593 180 593 180 598 173 c 1,79,-1
 598 169 l 1,80,81
 619 148 619 148 647 148 c 2,82,-1
 715 148 l 1,83,-1
 715 0 l 1,84,-1
 596 0 l 2,85,86
 533 0 533 0 508 100 c 0,87,88
 502 143 502 143 498.5 168.5 c 128,-1,89
 495 194 495 194 493 199 c 0,90,91
 483 228 483 228 480 230 c 0,92,93
 473 236 473 236 469 237 c 1,94,95
 474 242 474 242 475 251 c 128,-1,96
 476 260 476 260 477 274 c 2,97,-1
 477 275 l 2,98,99
 477 286 477 286 474 311.5 c 128,-1,100
 471 337 471 337 466 377 c 0,101,102
 458 423 458 423 452.5 454.5 c 128,-1,103
 447 486 447 486 442 500 c 0,104,105
 433 527 433 527 428.5 536.5 c 128,-1,106
 424 546 424 546 421 546 c 1,107,-1
 417 542 l 1,108,109
 409 538 409 538 395 520.5 c 128,-1,110
 381 503 381 503 369 482 c 1,111,-1
 369 481 l 1,112,-1
 348 436 l 1,22,23
EndSplineSet
EndChar

StartChar: tehisolated
Encoding: 65173 65173 108
Width: 1132
Flags: W
AnchorPoint: "ArabicBelow" 566 -251 basechar 0
AnchorPoint: "ArabicAbove" 566 1150 basechar 0
LayerCount: 2
Fore
SplineSet
1080 120 m 0,0,1
 1061 64 1061 64 1048.5 34.5 c 128,-1,2
 1036 5 1036 5 1031 0 c 1,3,4
 931 -1 931 -1 842 -1 c 256,5,6
 753 -1 753 -1 678 -1 c 2,7,-1
 259 -1 l 2,8,9
 233 -1 233 -1 215 -1 c 256,10,11
 197 -1 197 -1 188 0 c 0,12,13
 159 2 159 2 135 8.5 c 128,-1,14
 111 15 111 15 95 27 c 0,15,16
 70 44 70 44 54 57 c 128,-1,17
 38 70 38 70 29 81 c 0,18,19
 3 112 3 112 3 181 c 0,20,21
 3 204 3 204 5.5 230 c 128,-1,22
 8 256 8 256 14 286 c 1,23,-1
 14 287 l 1,24,25
 19 314 19 314 29.5 359.5 c 128,-1,26
 40 405 40 405 54 453 c 0,27,28
 65 493 65 493 77.5 516 c 128,-1,29
 90 539 90 539 104 543 c 1,30,31
 103 532 103 532 101 514 c 128,-1,32
 99 496 99 496 96 471 c 2,33,-1
 96 470 l 2,34,35
 91 427 91 427 88 400 c 128,-1,36
 85 373 85 373 85 358 c 0,37,38
 85 327 85 327 91 302 c 0,39,40
 100 270 100 270 105 258 c 0,41,42
 110 245 110 245 121.5 230.5 c 128,-1,43
 133 216 133 216 150 196 c 0,44,45
 193 148 193 148 322 148 c 2,46,-1
 1000 148 l 1,47,-1
 1000 150 l 1,48,49
 1003 151 1003 151 1008 154 c 128,-1,50
 1013 157 1013 157 1017 162.5 c 128,-1,51
 1021 168 1021 168 1024 177.5 c 128,-1,52
 1027 187 1027 187 1027 201 c 0,53,54
 1027 217 1027 217 1021 259 c 0,55,56
 1015 309 1015 309 966 382 c 2,57,-1
 947 409 l 1,58,-1
 1036 565 l 1,59,-1
 1088 485 l 2,60,61
 1113 435 1113 435 1119 414 c 1,62,-1
 1119 413 l 1,63,64
 1129 386 1129 386 1129 345 c 2,65,-1
 1129 331 l 2,66,67
 1128 306 1128 306 1125.5 282 c 128,-1,68
 1123 258 1123 258 1117 235 c 0,69,70
 1113 215 1113 215 1104 186 c 128,-1,71
 1095 157 1095 157 1080 120 c 0,0,1
552 820 m 1,72,-1
 479 720 l 1,73,-1
 364 800 l 1,74,-1
 436 900 l 1,75,-1
 552 820 l 1,72,-1
737 820 m 1,76,-1
 664 720 l 1,77,-1
 550 800 l 1,78,-1
 622 900 l 1,79,-1
 737 820 l 1,76,-1
110 544 m 1,80,81
 108 544 108 544 107 543.5 c 128,-1,82
 106 543 106 543 104 543 c 1,83,84
 104 545 104 545 104.5 547 c 128,-1,85
 105 549 105 549 105 551 c 1,86,87
 105 548 105 548 110 544 c 1,80,81
EndSplineSet
EndChar

StartChar: tehfinal
Encoding: 65174 65174 109
Width: 1217
Flags: W
AnchorPoint: "ArabicBelow" 608 -250 basechar 0
AnchorPoint: "ArabicAbove" 608 1078 basechar 0
LayerCount: 2
Fore
SplineSet
1121 0 m 1,0,-1
 1017 110 l 1,1,-1
 1017 116 l 1,2,-1
 966 116 l 1,3,-1
 966 108 l 1,4,5
 943 79 943 79 923.5 54 c 128,-1,6
 904 29 904 29 882 0 c 1,7,-1
 170 0 l 2,8,9
 122 0 122 0 87.5 13 c 128,-1,10
 53 26 53 26 32 49 c 0,11,12
 9 78 9 78 -4 112 c 128,-1,13
 -17 146 -17 146 -17 181 c 0,14,15
 -17 277 -17 277 23 409 c 0,16,17
 57 526 57 526 75 526 c 1,18,-1
 73 502 l 2,19,20
 60 444 60 444 53 404 c 128,-1,21
 46 364 46 364 46 332 c 0,22,23
 46 314 46 314 47.5 298.5 c 128,-1,24
 49 283 49 283 54 270 c 0,25,26
 60 251 60 251 69.5 234.5 c 128,-1,27
 79 218 79 218 92 207 c 0,28,29
 111 190 111 190 125 179.5 c 128,-1,30
 139 169 139 169 144 165 c 0,31,32
 172 148 172 148 182 148 c 2,33,-1
 943 148 l 1,34,-1
 943 155 l 1,35,36
 956 169 956 169 968 224 c 1,37,-1
 968 225 l 1,38,39
 973 260 973 260 975.5 295.5 c 128,-1,40
 978 331 978 331 980 367 c 1,41,-1
 1082 493 l 1,42,43
 1080 447 1080 447 1076.5 402 c 128,-1,44
 1073 357 1073 357 1066 309 c 1,45,-1
 1066 306 l 2,46,47
 1066 301 1066 301 1065.5 296.5 c 128,-1,48
 1065 292 1065 292 1065 287 c 0,49,50
 1065 230 1065 230 1103 192 c 0,51,52
 1129 166 1129 166 1152 158 c 128,-1,53
 1175 150 1175 150 1196 148 c 2,54,-1
 1233 148 l 1,55,-1
 1233 0 l 1,56,-1
 1121 0 l 1,0,-1
531 748 m 1,57,-1
 458 648 l 1,58,-1
 344 728 l 1,59,-1
 416 828 l 1,60,-1
 531 748 l 1,57,-1
716 748 m 1,61,-1
 643 648 l 1,62,-1
 529 728 l 1,63,-1
 601 828 l 1,64,-1
 716 748 l 1,61,-1
EndSplineSet
EndChar

StartChar: tehinitial
Encoding: 65175 65175 110
Width: 604
Flags: W
AnchorPoint: "ArabicBelow" 302 -250 basechar 0
AnchorPoint: "ArabicAbove" 302 1246 basechar 0
LayerCount: 2
Fore
SplineSet
489 148 m 1,0,-1
 489 172 l 2,1,2
 487 189 487 189 483.5 207.5 c 128,-1,3
 480 226 480 226 478 244 c 2,4,-1
 478 246 l 1,5,6
 458 315 458 315 429.5 369.5 c 128,-1,7
 401 424 401 424 364 464 c 1,8,-1
 458 626 l 1,9,10
 479 603 479 603 495 576 c 1,11,-1
 495 575 l 1,12,13
 508 555 508 555 518.5 537.5 c 128,-1,14
 529 520 529 520 539 502 c 0,15,16
 558 467 558 467 572.5 431.5 c 128,-1,17
 587 396 587 396 590 378 c 0,18,19
 592 363 592 363 593.5 346.5 c 128,-1,20
 595 330 595 330 595 308 c 2,21,-1
 595 282 l 2,22,23
 595 276 595 276 595 269 c 256,24,25
 595 262 595 262 594 254 c 2,26,-1
 594 253 l 2,27,28
 593 230 593 230 580 167.5 c 128,-1,29
 567 105 567 105 538 0 c 1,30,-1
 8 0 l 1,31,-1
 8 148 l 1,32,-1
 489 148 l 1,0,-1
343 909 m 1,33,-1
 265 802 l 1,34,-1
 143 889 l 1,35,-1
 220 996 l 1,36,-1
 343 909 l 1,33,-1
541 909 m 1,37,-1
 461 802 l 1,38,-1
 340 889 l 1,39,-1
 417 996 l 1,40,-1
 541 909 l 1,37,-1
EndSplineSet
EndChar

StartChar: tehmedial
Encoding: 65176 65176 111
Width: 658
Flags: W
AnchorPoint: "ArabicBelow" 329 -250 basechar 0
AnchorPoint: "ArabicAbove" 329 1171 basechar 0
LayerCount: 2
Fore
SplineSet
405 148 m 1,0,-1
 405 151 l 1,1,2
 415 157 415 157 422 179.5 c 128,-1,3
 429 202 429 202 435 237 c 1,4,-1
 435 240 l 2,5,6
 437 275 437 275 437.5 303.5 c 128,-1,7
 438 332 438 332 440 367 c 1,8,-1
 543 490 l 1,9,-1
 527 292 l 1,10,-1
 527 291 l 2,11,12
 527 231 527 231 563 192 c 1,13,-1
 563 191 l 1,14,15
 614 148 614 148 661 148 c 2,16,-1
 677 148 l 1,17,-1
 677 0 l 1,18,-1
 523 0 l 1,19,20
 436 117 436 117 429 117 c 0,21,22
 424 117 424 117 349 0 c 1,23,-1
 -18 0 l 1,24,-1
 -18 148 l 1,25,-1
 405 148 l 1,0,-1
268 840 m 1,26,-1
 195 741 l 1,27,-1
 81 821 l 1,28,-1
 153 921 l 1,29,-1
 268 840 l 1,26,-1
453 840 m 1,30,-1
 380 741 l 1,31,-1
 266 821 l 1,32,-1
 338 921 l 1,33,-1
 453 840 l 1,30,-1
EndSplineSet
EndChar

StartChar: thehisolated
Encoding: 65177 65177 112
Width: 1132
Flags: W
AnchorPoint: "ArabicBelow" 566 -251 basechar 0
AnchorPoint: "ArabicAbove" 566 1158 basechar 0
LayerCount: 2
Fore
SplineSet
1080 120 m 0,0,1
 1061 64 1061 64 1048.5 34.5 c 128,-1,2
 1036 5 1036 5 1031 0 c 1,3,4
 931 -1 931 -1 842 -1 c 256,5,6
 753 -1 753 -1 678 -1 c 2,7,-1
 259 -1 l 2,8,9
 233 -1 233 -1 215 -1 c 256,10,11
 197 -1 197 -1 188 0 c 0,12,13
 159 2 159 2 135 8.5 c 128,-1,14
 111 15 111 15 95 27 c 0,15,16
 70 44 70 44 54 57 c 128,-1,17
 38 70 38 70 29 81 c 0,18,19
 3 112 3 112 3 181 c 0,20,21
 3 204 3 204 5.5 230 c 128,-1,22
 8 256 8 256 14 286 c 1,23,-1
 14 287 l 1,24,25
 19 314 19 314 29.5 359.5 c 128,-1,26
 40 405 40 405 54 453 c 0,27,28
 65 493 65 493 77.5 516 c 128,-1,29
 90 539 90 539 104 543 c 1,30,31
 103 532 103 532 101 514 c 128,-1,32
 99 496 99 496 96 471 c 2,33,-1
 96 470 l 2,34,35
 91 427 91 427 88 400 c 128,-1,36
 85 373 85 373 85 358 c 0,37,38
 85 327 85 327 91 302 c 0,39,40
 100 270 100 270 105 258 c 0,41,42
 110 245 110 245 121.5 230.5 c 128,-1,43
 133 216 133 216 150 196 c 0,44,45
 193 148 193 148 322 148 c 2,46,-1
 1000 148 l 1,47,-1
 1000 150 l 1,48,49
 1003 151 1003 151 1008 154 c 128,-1,50
 1013 157 1013 157 1017 162.5 c 128,-1,51
 1021 168 1021 168 1024 177.5 c 128,-1,52
 1027 187 1027 187 1027 201 c 0,53,54
 1027 217 1027 217 1021 259 c 0,55,56
 1015 309 1015 309 966 382 c 2,57,-1
 947 409 l 1,58,-1
 1036 565 l 1,59,-1
 1088 485 l 2,60,61
 1113 435 1113 435 1119 414 c 1,62,-1
 1119 413 l 1,63,64
 1129 386 1129 386 1129 345 c 2,65,-1
 1129 331 l 2,66,67
 1128 306 1128 306 1125.5 282 c 128,-1,68
 1123 258 1123 258 1117 235 c 0,69,70
 1113 215 1113 215 1104 186 c 128,-1,71
 1095 157 1095 157 1080 120 c 0,0,1
755 628 m 1,72,-1
 682 528 l 1,73,-1
 568 608 l 1,74,-1
 640 708 l 1,75,-1
 755 628 l 1,72,-1
570 628 m 1,76,-1
 497 528 l 1,77,-1
 383 608 l 1,78,-1
 455 708 l 1,79,-1
 570 628 l 1,76,-1
634 841 m 1,80,-1
 574 762 l 1,81,-1
 480 829 l 1,82,-1
 538 908 l 1,83,-1
 634 841 l 1,80,-1
110 544 m 1,84,85
 108 544 108 544 107 543.5 c 128,-1,86
 106 543 106 543 104 543 c 1,87,88
 104 545 104 545 104.5 547 c 128,-1,89
 105 549 105 549 105 551 c 1,90,91
 105 548 105 548 110 544 c 1,84,85
EndSplineSet
EndChar

StartChar: thehfinal
Encoding: 65178 65178 113
Width: 1217
Flags: W
AnchorPoint: "ArabicBelow" 608 -250 basechar 0
AnchorPoint: "ArabicAbove" 608 1189 basechar 0
LayerCount: 2
Fore
SplineSet
1061 0 m 1,0,-1
 990 108 l 1,1,-1
 990 117 l 1,2,-1
 966 117 l 1,3,-1
 966 109 l 1,4,5
 943 80 943 80 923.5 54.5 c 128,-1,6
 904 29 904 29 882 0 c 1,7,-1
 170 0 l 2,8,9
 122 0 122 0 87.5 13 c 128,-1,10
 53 26 53 26 32 49 c 0,11,12
 9 78 9 78 -4 112 c 128,-1,13
 -17 146 -17 146 -17 181 c 0,14,15
 -17 277 -17 277 23 409 c 0,16,17
 57 526 57 526 75 526 c 1,18,-1
 73 502 l 2,19,20
 61 445 61 445 54.5 406.5 c 128,-1,21
 48 368 48 368 48 350 c 0,22,23
 48 304 48 304 55 284 c 1,24,-1
 56 285 l 1,25,-1
 56 278 l 1,26,27
 66 249 66 249 69 244 c 0,28,29
 75 233 75 233 88.5 220.5 c 128,-1,30
 102 208 102 208 122 191 c 0,31,32
 174 148 174 148 234 148 c 2,33,-1
 943 148 l 1,34,-1
 943 150 l 1,35,36
 947 152 947 152 950 154 c 128,-1,37
 953 156 953 156 954.5 160.5 c 128,-1,38
 956 165 956 165 957.5 172.5 c 128,-1,39
 959 180 959 180 961 193 c 1,40,-1
 961 196 l 2,41,42
 961 198 961 198 961.5 199 c 128,-1,43
 962 200 962 200 962 202 c 2,44,-1
 963 207 l 2,45,46
 963 209 963 209 963.5 208.5 c 128,-1,47
 964 208 964 208 964 210 c 0,48,49
 966 221 966 221 968.5 234 c 128,-1,50
 971 247 971 247 973 262 c 0,51,52
 975 278 975 278 976.5 304.5 c 128,-1,53
 978 331 978 331 980 363 c 2,54,-1
 980 364 l 2,55,56
 980 369 980 369 980.5 366 c 128,-1,57
 981 363 981 363 981 368 c 1,58,-1
 1083 494 l 1,59,60
 1083 440 1083 440 1065 289 c 2,61,-1
 1065 287 l 2,62,63
 1065 234 1065 234 1078.5 207 c 128,-1,64
 1092 180 1092 180 1108 169 c 1,65,-1
 1108 168 l 1,66,67
 1126 154 1126 154 1172 150 c 0,68,69
 1178 150 1178 150 1184 149 c 128,-1,70
 1190 148 1190 148 1196 148 c 2,71,-1
 1233 148 l 1,72,-1
 1233 0 l 1,73,-1
 1061 0 l 1,0,-1
776 658 m 1,74,-1
 703 559 l 1,75,-1
 588 639 l 1,76,-1
 660 739 l 1,77,-1
 776 658 l 1,74,-1
591 658 m 1,78,-1
 517 559 l 1,79,-1
 403 639 l 1,80,-1
 475 739 l 1,81,-1
 591 658 l 1,78,-1
654 872 m 1,82,-1
 595 793 l 1,83,-1
 500 860 l 1,84,-1
 559 939 l 1,85,-1
 654 872 l 1,82,-1
EndSplineSet
EndChar

StartChar: thehinitial
Encoding: 65179 65179 114
Width: 730
Flags: W
AnchorPoint: "ArabicBelow" 365 -250 basechar 0
AnchorPoint: "ArabicAbove" 365 1292 basechar 0
LayerCount: 2
Fore
SplineSet
624 148 m 1,0,-1
 624 174 l 1,1,2
 617 203 617 203 606 238 c 128,-1,3
 595 273 595 273 580.5 308.5 c 128,-1,4
 566 344 566 344 548.5 376 c 128,-1,5
 531 408 531 408 511 430 c 1,6,-1
 589 585 l 1,7,8
 618 539 618 539 635 511.5 c 128,-1,9
 652 484 652 484 658 472 c 1,10,-1
 658 471 l 1,11,12
 666 457 666 457 670.5 447 c 128,-1,13
 675 437 675 437 680 426 c 1,14,-1
 680 425 l 1,15,16
 682 421 682 421 686 411 c 0,17,18
 703 372 703 372 711 331.5 c 128,-1,19
 719 291 719 291 721 265 c 2,20,-1
 721 234 l 2,21,22
 721 215 721 215 718.5 190 c 128,-1,23
 716 165 716 165 708 136 c 0,24,25
 702 114 702 114 694 83.5 c 128,-1,26
 686 53 686 53 672 0 c 1,27,-1
 9 0 l 1,28,-1
 9 148 l 1,29,-1
 624 148 l 1,0,-1
551 761 m 1,30,-1
 478 661 l 1,31,-1
 364 742 l 1,32,-1
 436 841 l 1,33,-1
 551 761 l 1,30,-1
366 761 m 1,34,-1
 293 661 l 1,35,-1
 179 742 l 1,36,-1
 251 841 l 1,37,-1
 366 761 l 1,34,-1
430 975 m 1,38,-1
 370 896 l 1,39,-1
 276 963 l 1,40,-1
 334 1042 l 1,41,-1
 430 975 l 1,38,-1
EndSplineSet
EndChar

StartChar: thehmedial
Encoding: 65180 65180 115
Width: 672
Flags: W
AnchorPoint: "ArabicBelow" 336 -250 basechar 0
AnchorPoint: "ArabicAbove" 336 1285 basechar 0
LayerCount: 2
Fore
SplineSet
414 148 m 1,0,-1
 414 167 l 2,1,2
 419 212 419 212 423 251 c 128,-1,3
 427 290 427 290 432 335 c 1,4,-1
 540 475 l 1,5,-1
 524 266 l 1,6,-1
 524 265 l 2,7,8
 524 226 524 226 539 205 c 128,-1,9
 554 184 554 184 571 169 c 0,10,11
 595 148 595 148 612 148 c 2,12,-1
 693 148 l 1,13,-1
 693 0 l 1,14,-1
 493 0 l 1,15,16
 427 116 427 116 421 116 c 0,17,18
 417 116 417 116 345 0 c 1,19,-1
 -21 0 l 1,20,-1
 -21 148 l 1,21,-1
 414 148 l 1,0,-1
508 754 m 1,22,-1
 435 654 l 1,23,-1
 321 735 l 1,24,-1
 393 834 l 1,25,-1
 508 754 l 1,22,-1
323 754 m 1,26,-1
 250 654 l 1,27,-1
 135 735 l 1,28,-1
 207 834 l 1,29,-1
 323 754 l 1,26,-1
386 968 m 1,30,-1
 327 889 l 1,31,-1
 232 956 l 1,32,-1
 291 1035 l 1,33,-1
 386 968 l 1,30,-1
EndSplineSet
EndChar

StartChar: jeemisolated
Encoding: 65181 65181 116
Width: 901
Flags: W
AnchorPoint: "ArabicBelow" 450 -941 basechar 0
AnchorPoint: "ArabicAbove" 450 774 basechar 0
LayerCount: 2
Fore
SplineSet
674 -584 m 0,0,1
 694 -586 694 -586 714.5 -587.5 c 128,-1,2
 735 -589 735 -589 755 -592 c 1,3,-1
 867 -592 l 1,4,5
 854 -600 854 -600 837.5 -608.5 c 128,-1,6
 821 -617 821 -617 802 -628 c 0,7,8
 738 -660 738 -660 659 -675.5 c 128,-1,9
 580 -691 580 -691 484 -691 c 0,10,11
 264 -691 264 -691 142 -587 c 0,12,13
 15 -478 15 -478 15 -330 c 0,14,15
 15 -227 15 -227 35 -137 c 128,-1,16
 55 -47 55 -47 93 34 c 0,17,18
 124 97 124 97 178 164.5 c 128,-1,19
 232 232 232 232 306 298 c 1,20,-1
 306 355 l 1,21,22
 298 357 298 357 289.5 359.5 c 128,-1,23
 281 362 281 362 274 364 c 0,24,25
 260 369 260 369 248 372 c 128,-1,26
 236 375 236 375 228 377 c 2,27,-1
 178 383 l 1,28,-1
 120 383 l 2,29,30
 80 383 80 383 28 346 c 1,31,-1
 28 345 l 1,32,33
 18 336 18 336 10 331.5 c 128,-1,34
 2 327 2 327 -3 326 c 1,35,-1
 21 407 l 2,36,37
 74 524 74 524 164 524 c 2,38,-1
 208 524 l 2,39,40
 223 522 223 522 240 520 c 128,-1,41
 257 518 257 518 279 517 c 1,42,-1
 392 489 l 1,43,-1
 392 488 l 1,44,45
 435 481 435 481 477 474.5 c 128,-1,46
 519 468 519 468 562 462 c 2,47,-1
 806 462 l 1,48,-1
 749 335 l 1,49,50
 719 334 719 334 685.5 330 c 128,-1,51
 652 326 652 326 597 315 c 0,52,53
 570 310 570 310 542 303.5 c 128,-1,54
 514 297 514 297 485 289 c 0,55,56
 463 281 463 281 439.5 272.5 c 128,-1,57
 416 264 416 264 394 256 c 0,58,59
 336 233 336 233 282.5 188 c 128,-1,60
 229 143 229 143 178 66 c 0,61,62
 86 -73 86 -73 86 -196 c 0,63,64
 86 -350 86 -350 202 -443 c 0,65,66
 248 -485 248 -485 310 -509 c 0,67,68
 342 -524 342 -524 370 -533.5 c 128,-1,69
 398 -543 398 -543 418 -548 c 0,70,71
 444 -556 444 -556 478.5 -561.5 c 128,-1,72
 513 -567 513 -567 557 -572 c 0,73,74
 615 -580 615 -580 674 -584 c 0,0,1
608 -181 m 1,75,-1
 527 -290 l 1,76,-1
 403 -201 l 1,77,-1
 482 -92 l 1,78,-1
 608 -181 l 1,75,-1
632 -176 m 1,79,80
 622 -186 622 -186 620.5 -182.5 c 128,-1,81
 619 -179 619 -179 619 -173 c 1,82,-1
 621 -165 l 1,83,-1
 632 -176 l 1,79,80
EndSplineSet
EndChar

StartChar: jeemfinal
Encoding: 65182 65182 117
Width: 996
Flags: W
AnchorPoint: "ArabicBelow" 498 -849 basechar 0
AnchorPoint: "ArabicAbove" 498 791 basechar 0
LayerCount: 2
Fore
SplineSet
785 0 m 2,0,1
 743 0 743 0 713.5 3.5 c 128,-1,2
 684 7 684 7 664 13 c 0,3,4
 624 30 624 30 605 46.5 c 128,-1,5
 586 63 586 63 573 85 c 1,6,7
 570 93 570 93 568 102.5 c 128,-1,8
 566 112 566 112 566 126 c 0,9,10
 566 157 566 157 576 190 c 0,11,12
 580 203 580 203 582.5 212 c 128,-1,13
 585 221 585 221 587 229 c 0,14,15
 594 249 594 249 597 261.5 c 128,-1,16
 600 274 600 274 600 294 c 2,17,-1
 600 301 l 2,18,19
 600 303 600 303 599.5 306 c 128,-1,20
 599 309 599 309 599 312 c 2,21,-1
 599 332 l 1,22,23
 559 324 559 324 519 315.5 c 128,-1,24
 479 307 479 307 439 298 c 1,25,-1
 439 297 l 1,26,27
 406 289 406 289 372 277 c 128,-1,28
 338 265 338 265 303 245 c 0,29,30
 244 213 244 213 164 101 c 0,31,32
 88 -2 88 -2 88 -123 c 0,33,34
 88 -312 88 -312 269 -402 c 0,35,36
 302 -419 302 -419 337.5 -432 c 128,-1,37
 373 -445 373 -445 416.5 -455 c 128,-1,38
 460 -465 460 -465 512.5 -473.5 c 128,-1,39
 565 -482 565 -482 632 -490 c 0,40,41
 664 -492 664 -492 699 -493.5 c 128,-1,42
 734 -495 734 -495 766 -497 c 2,43,-1
 862 -497 l 1,44,45
 860 -498 860 -498 844 -507.5 c 128,-1,46
 828 -517 828 -517 793 -537 c 0,47,48
 731 -567 731 -567 653 -583 c 128,-1,49
 575 -599 575 -599 475 -599 c 0,50,51
 430 -599 430 -599 404 -598 c 128,-1,52
 378 -597 378 -597 370 -595 c 1,53,-1
 370 -594 l 1,54,55
 319 -588 319 -588 281 -576 c 0,56,57
 237 -564 237 -564 198 -545.5 c 128,-1,58
 159 -527 159 -527 130 -504 c 0,59,60
 71 -456 71 -456 38.5 -393 c 128,-1,61
 6 -330 6 -330 6 -255 c 0,62,63
 6 -167 6 -167 32.5 -78.5 c 128,-1,64
 59 10 59 10 108 91 c 0,65,66
 132 131 132 131 178.5 184.5 c 128,-1,67
 225 238 225 238 292 307 c 2,68,-1
 305 319 l 1,69,-1
 305 345 l 1,70,71
 282 377 282 377 252 386 c 128,-1,72
 222 395 222 395 202 397 c 0,73,74
 193 398 193 398 180 398.5 c 128,-1,75
 167 399 167 399 150 399 c 2,76,-1
 121 399 l 2,77,78
 95 399 95 399 70.5 393.5 c 128,-1,79
 46 388 46 388 21 377 c 1,80,-1
 21 375 l 1,81,-1
 -28 345 l 1,82,83
 -20 380 -20 380 27 466 c 1,84,85
 84 541 84 541 121 541 c 2,86,-1
 178 541 l 2,87,88
 200 541 200 541 220 538 c 0,89,90
 229 537 229 537 240 536 c 128,-1,91
 251 535 251 535 267 534 c 1,92,-1
 404 501 l 2,93,94
 439 496 439 496 476 491.5 c 128,-1,95
 513 487 513 487 548 482 c 0,96,97
 561 481 561 481 575 480.5 c 128,-1,98
 589 480 589 480 602 479 c 2,99,-1
 797 479 l 1,100,-1
 742 353 l 1,101,-1
 656 339 l 1,102,-1
 656 333 l 1,103,104
 652 329 652 329 648 313 c 128,-1,105
 644 297 644 297 639 265 c 1,106,-1
 639 262 l 2,107,108
 639 230 639 230 648 214 c 1,109,-1
 648 213 l 1,110,111
 678 168 678 168 725 154 c 1,112,-1
 725 153 l 1,113,114
 736 152 736 152 747 150.5 c 128,-1,115
 758 149 758 149 769 148 c 2,116,-1
 1027 148 l 1,117,-1
 1027 0 l 1,118,-1
 785 0 l 2,0,1
558 -196 m 1,119,-1
 476 -306 l 1,120,-1
 352 -216 l 1,121,-1
 431 -107 l 1,122,-1
 558 -196 l 1,119,-1
-28 345 m 1,123,124
 -28 344 -28 344 -28.5 343.5 c 128,-1,125
 -29 343 -29 343 -29 342 c 1,126,-1
 -29 345 l 1,127,-1
 -28 345 l 1,123,124
-30 332 m 1,128,-1
 -29 342 l 1,129,130
 -30 337 -30 337 -30 332 c 1,128,-1
EndSplineSet
EndChar

StartChar: jeeminitial
Encoding: 65183 65183 118
Width: 1227
Flags: W
AnchorPoint: "ArabicBelow" 613 -657 basechar 0
AnchorPoint: "ArabicAbove" 613 784 basechar 0
LayerCount: 2
Fore
SplineSet
480 148 m 1,0,-1
 535 157 l 1,1,-1
 535 158 l 1,2,3
 548 162 548 162 560.5 166 c 128,-1,4
 573 170 573 170 586 173 c 2,5,6
 596 177 596 177 607 181 c 128,-1,7
 629 189 l 1,8,-1
 629 190 l 1,9,10
 642 198 642 198 656 205 c 128,-1,11
 670 212 670 212 683 219 c 1,12,-1
 683 280 l 1,13,14
 625 308 l 128,-1,15
 567 336 l 0,16,17
 498 364 498 364 444.5 380 c 128,-1,18
 391 396 391 396 359 396 c 0,19,20
 311 396 311 396 280 382 c 0,21,22
 270 377 270 377 262.5 374 c 128,-1,23
 255 371 255 371 249 369 c 1,24,25
 252 371 252 371 257 374 c 128,-1,26
 262 377 262 377 261 375 c 1,27,-1
 287 417 l 1,28,29
 389 534 389 534 461 534 c 0,30,31
 519 534 519 534 584 512.5 c 128,-1,32
 649 491 649 491 727 443 c 0,33,34
 750 429 750 429 777 414 c 128,-1,35
 804 399 804 399 827 385 c 1,36,-1
 827 384 l 1,37,-1
 910 343 l 1,38,-1
 910 342 l 1,39,40
 956 323 956 323 1002.5 304 c 128,-1,41
 1049 285 1049 285 1096 266 c 0,42,43
 1127 258 1127 258 1150.5 252 c 128,-1,44
 1174 246 1174 246 1206 238 c 1,45,-1
 1113 117 l 1,46,-1
 850 136 l 1,47,-1
 762 136 l 2,48,49
 727 136 727 136 675 118 c 128,-1,50
 623 100 623 100 558 66 c 0,51,52
 501 36 501 36 452.5 18 c 128,-1,53
 404 0 404 0 377 0 c 2,54,-1
 1 0 l 1,55,-1
 1 148 l 1,56,-1
 480 148 l 1,0,-1
795 -292 m 1,57,-1
 710 -407 l 1,58,-1
 580 -315 l 1,59,-1
 664 -200 l 1,60,-1
 795 -292 l 1,57,-1
EndSplineSet
EndChar

StartChar: jeemmedial
Encoding: 65184 65184 119
Width: 1310
Flags: W
AnchorPoint: "ArabicBelow" 655 -714 basechar 0
AnchorPoint: "ArabicAbove" 655 784 basechar 0
LayerCount: 2
Fore
SplineSet
455 149 m 1,0,1
 472 152 472 152 484.5 154.5 c 128,-1,2
 497 157 497 157 510.5 160.5 c 128,-1,3
 524 164 524 164 541 170 c 128,-1,4
 558 176 558 176 584 186 c 0,5,6
 637 207 637 207 663.5 228 c 128,-1,7
 690 249 690 249 692 266 c 2,8,-1
 692 288 l 1,9,10
 651 305 651 305 610 321.5 c 128,-1,11
 569 338 569 338 527 355 c 0,12,13
 461 376 461 376 415 388.5 c 128,-1,14
 369 401 369 401 357 401 c 0,15,16
 282 401 282 401 244 379 c 1,17,-1
 244 378 l 1,18,-1
 237 374 l 1,19,-1
 257 406 l 2,20,21
 299 466 299 466 342.5 497.5 c 128,-1,22
 386 529 386 529 435 532 c 2,23,-1
 471 534 l 2,24,25
 561 534 561 534 682 478 c 0,26,27
 772 436 772 436 832.5 411.5 c 128,-1,28
 893 387 893 387 925 375 c 0,29,30
 961 366 961 366 1008 354.5 c 128,-1,31
 1055 343 1055 343 1091 334 c 1,32,-1
 1091 333 l 1,33,34
 1139 328 1139 328 1172.5 325 c 128,-1,35
 1206 322 1206 322 1226 322 c 1,36,-1
 1173 176 l 1,37,-1
 1173 148 l 1,38,-1
 1345 148 l 1,39,-1
 1345 0 l 1,40,-1
 1081 0 l 1,41,-1
 1058 145 l 1,42,-1
 1058 163 l 1,43,-1
 792 163 l 1,44,-1
 779 164 l 2,45,46
 746 164 746 164 698 143 c 128,-1,47
 650 122 650 122 576 77 c 0,48,49
 513 41 513 41 462.5 20.5 c 128,-1,50
 412 0 412 0 375 0 c 2,51,-1
 -34 0 l 1,52,-1
 -34 148 l 1,53,-1
 455 149 l 1,0,1
681 -355 m 1,54,-1
 599 -464 l 1,55,-1
 475 -374 l 1,56,-1
 554 -265 l 1,57,-1
 681 -355 l 1,54,-1
220 344 m 1,58,-1
 220 366 l 1,59,60
 224 369 224 369 228 370.5 c 128,-1,61
 232 372 232 372 237 374 c 1,62,-1
 220 344 l 1,58,-1
EndSplineSet
EndChar

